<?xml version="1.0" encoding="UTF-8"?>
<!--Generator: Apple Native CoreSVG 338-->
<!DOCTYPE svg
PUBLIC "-//W3C//DTD SVG 1.1//EN"
       "http://www.w3.org/Graphics/SVG/1.1/DTD/svg11.dtd">
<svg version="1.1" xmlns="http://www.w3.org/2000/svg" xmlns:xlink="http://www.w3.org/1999/xlink" viewBox="0 0 3300 2200">
 <!--glyph: "", point size: 100.0, font version: "20.0d8e1", template writer version: "138.0.0"-->
 <style>.monochrome-0 {-sfsymbols-motion-group:1;-sfsymbols-indices:0;-sfsymbols-layer-tags:-5b5b038acb095b9d seal.fill}
.monochrome-1 {opacity:0.0;-sfsymbols-clear-behind:true;-sfsymbols-motion-group:0;-sfsymbols-always-pulses:true;-sfsymbols-layer-tags:-5b5b038acb095b9d}

.multicolor-0:tintColor {-sfsymbols-motion-group:1;-sfsymbols-indices:0;-sfsymbols-layer-tags:-5b5b038acb095b9d seal.fill}
.multicolor-1:white {-sfsymbols-motion-group:0;-sfsymbols-always-pulses:true;-sfsymbols-layer-tags:-5b5b038acb095b9d}

.hierarchical-0:tertiary {-sfsymbols-motion-group:1;-sfsymbols-indices:0;-sfsymbols-layer-tags:-5b5b038acb095b9d seal.fill}
.hierarchical-1:primary {-sfsymbols-motion-group:0;-sfsymbols-layer-tags:-5b5b038acb095b9d}

.shapeGroupLayer-0 {-sfsymbols-fill-action:draw;-sfsymbols-indices:1}

.SFSymbolsPreviewWireframe {fill:none;opacity:1.0;stroke:black;stroke-width:0.5}
</style>
 <g id="Notes">
  <rect height="2200" id="artboard" style="fill:white;opacity:1" width="3300" x="0" y="0"/>
  <line style="fill:none;stroke:black;opacity:1;stroke-width:0.5;" x1="263" x2="3036" y1="292" y2="292"/>
  <text style="stroke:none;fill:black;font-family:sans-serif;font-size:13;font-weight:bold;" transform="matrix(1 0 0 1 263 322)">Weight/Scale Variations</text>
  <text style="stroke:none;fill:black;font-family:sans-serif;font-size:13;text-anchor:middle;" transform="matrix(1 0 0 1 559.711 322)">Ultralight</text>
  <text style="stroke:none;fill:black;font-family:sans-serif;font-size:13;text-anchor:middle;" transform="matrix(1 0 0 1 856.422 322)">Thin</text>
  <text style="stroke:none;fill:black;font-family:sans-serif;font-size:13;text-anchor:middle;" transform="matrix(1 0 0 1 1153.13 322)">Light</text>
  <text style="stroke:none;fill:black;font-family:sans-serif;font-size:13;text-anchor:middle;" transform="matrix(1 0 0 1 1449.84 322)">Regular</text>
  <text style="stroke:none;fill:black;font-family:sans-serif;font-size:13;text-anchor:middle;" transform="matrix(1 0 0 1 1746.56 322)">Medium</text>
  <text style="stroke:none;fill:black;font-family:sans-serif;font-size:13;text-anchor:middle;" transform="matrix(1 0 0 1 2043.27 322)">Semibold</text>
  <text style="stroke:none;fill:black;font-family:sans-serif;font-size:13;text-anchor:middle;" transform="matrix(1 0 0 1 2339.98 322)">Bold</text>
  <text style="stroke:none;fill:black;font-family:sans-serif;font-size:13;text-anchor:middle;" transform="matrix(1 0 0 1 2636.69 322)">Heavy</text>
  <text style="stroke:none;fill:black;font-family:sans-serif;font-size:13;text-anchor:middle;" transform="matrix(1 0 0 1 2933.4 322)">Black</text>
  <line style="fill:none;stroke:black;opacity:1;stroke-width:0.5;" x1="263" x2="3036" y1="1903" y2="1903"/>
  <g transform="matrix(0.2 0 0 0.2 263 1933)">
   <path d="m46.2402 4.15039c21.7773 0 39.4531-17.627 39.4531-39.4043s-17.6758-39.4043-39.4531-39.4043c-21.7285 0-39.4043 17.627-39.4043 39.4043s17.6758 39.4043 39.4043 39.4043Zm0-7.42188c-17.6758 0-31.9336-14.3066-31.9336-31.9824s14.2578-31.9824 31.9336-31.9824 31.9824 14.3066 31.9824 31.9824-14.3066 31.9824-31.9824 31.9824Zm-17.9688-31.9824c0 2.14844 1.51367 3.61328 3.75977 3.61328h10.498v10.5957c0 2.19727 1.46484 3.71094 3.61328 3.71094 2.24609 0 3.71094-1.51367 3.71094-3.71094v-10.5957h10.5957c2.19727 0 3.71094-1.46484 3.71094-3.61328 0-2.19727-1.51367-3.71094-3.71094-3.71094h-10.5957v-10.5469c0-2.24609-1.46484-3.75977-3.71094-3.75977-2.14844 0-3.61328 1.51367-3.61328 3.75977v10.5469h-10.498c-2.24609 0-3.75977 1.51367-3.75977 3.71094Z"/>
  </g>
  <g transform="matrix(0.2 0 0 0.2 281.506 1933)">
   <path d="m58.5449 14.5508c27.4902 0 49.8047-22.3145 49.8047-49.8047s-22.3145-49.8047-49.8047-49.8047-49.8047 22.3145-49.8047 49.8047 22.3145 49.8047 49.8047 49.8047Zm0-8.30078c-22.9492 0-41.5039-18.5547-41.5039-41.5039s18.5547-41.5039 41.5039-41.5039 41.5039 18.5547 41.5039 41.5039-18.5547 41.5039-41.5039 41.5039Zm-22.6562-41.5039c0 2.39258 1.66016 4.00391 4.15039 4.00391h14.3555v14.4043c0 2.44141 1.66016 4.15039 4.05273 4.15039 2.44141 0 4.15039-1.66016 4.15039-4.15039v-14.4043h14.4043c2.44141 0 4.15039-1.61133 4.15039-4.00391 0-2.44141-1.70898-4.15039-4.15039-4.15039h-14.4043v-14.3555c0-2.49023-1.70898-4.19922-4.15039-4.19922-2.39258 0-4.05273 1.70898-4.05273 4.19922v14.3555h-14.3555c-2.49023 0-4.15039 1.70898-4.15039 4.15039Z"/>
  </g>
  <g transform="matrix(0.2 0 0 0.2 304.924 1933)">
   <path d="m74.8535 28.3203c35.1074 0 63.623-28.4668 63.623-63.5742s-28.5156-63.623-63.623-63.623-63.5742 28.5156-63.5742 63.623 28.4668 63.5742 63.5742 63.5742Zm0-9.08203c-30.127 0-54.4922-24.3652-54.4922-54.4922s24.3652-54.4922 54.4922-54.4922 54.4922 24.3652 54.4922 54.4922-24.3652 54.4922-54.4922 54.4922Zm-28.8574-54.4922c0 2.58789 1.85547 4.39453 4.58984 4.39453h19.7266v19.7754c0 2.68555 1.85547 4.58984 4.44336 4.58984 2.68555 0 4.54102-1.85547 4.54102-4.58984v-19.7754h19.7754c2.68555 0 4.58984-1.80664 4.58984-4.39453 0-2.73438-1.85547-4.58984-4.58984-4.58984h-19.7754v-19.7266c0-2.73438-1.85547-4.63867-4.54102-4.63867-2.58789 0-4.44336 1.9043-4.44336 4.63867v19.7266h-19.7266c-2.73438 0-4.58984 1.85547-4.58984 4.58984Z"/>
  </g>
  <text style="stroke:none;fill:black;font-family:sans-serif;font-size:13;font-weight:bold;" transform="matrix(1 0 0 1 263 1953)">Design Variations</text>
  <text style="stroke:none;fill:black;font-family:sans-serif;font-size:13;" transform="matrix(1 0 0 1 263 1971)">Symbols are supported in up to nine weights and three scales.</text>
  <text style="stroke:none;fill:black;font-family:sans-serif;font-size:13;" transform="matrix(1 0 0 1 263 1989)">For optimal layout with text and other symbols, vertically align</text>
  <text style="stroke:none;fill:black;font-family:sans-serif;font-size:13;" transform="matrix(1 0 0 1 263 2007)">symbols with the adjacent text.</text>
  <line style="fill:none;stroke:#00AEEF;stroke-width:0.5;opacity:1.0;" x1="776" x2="776" y1="1919" y2="1933"/>
  <g transform="matrix(0.2 0 0 0.2 776 1933)">
   <path d="m16.5527 0.78125c2.58789 0 3.85742-0.976562 4.78516-3.71094l6.29883-17.2363h28.8086l6.29883 17.2363c0.927734 2.73438 2.19727 3.71094 4.73633 3.71094 2.58789 0 4.24805-1.5625 4.24805-4.00391 0-0.830078-0.146484-1.61133-0.537109-2.63672l-22.9004-60.9863c-1.12305-2.97852-3.125-4.49219-6.25-4.49219-3.02734 0-5.07812 1.46484-6.15234 4.44336l-22.9004 61.084c-0.390625 1.02539-0.537109 1.80664-0.537109 2.63672 0 2.44141 1.5625 3.95508 4.10156 3.95508Zm13.4766-28.3691 11.8652-32.8613h0.244141l11.8652 32.8613Z"/>
  </g>
  <line style="fill:none;stroke:#00AEEF;stroke-width:0.5;opacity:1.0;" x1="792.836" x2="792.836" y1="1919" y2="1933"/>
  <text style="stroke:none;fill:black;font-family:sans-serif;font-size:13;font-weight:bold;" transform="matrix(1 0 0 1 776 1953)">Margins</text>
  <text style="stroke:none;fill:black;font-family:sans-serif;font-size:13;" transform="matrix(1 0 0 1 776 1971)">Leading and trailing margins on the left and right side of each symbol</text>
  <text style="stroke:none;fill:black;font-family:sans-serif;font-size:13;" transform="matrix(1 0 0 1 776 1989)">can be adjusted by modifying the x-location of the margin guidelines.</text>
  <text style="stroke:none;fill:black;font-family:sans-serif;font-size:13;" transform="matrix(1 0 0 1 776 2007)">Modifications are automatically applied proportionally to all</text>
  <text style="stroke:none;fill:black;font-family:sans-serif;font-size:13;" transform="matrix(1 0 0 1 776 2025)">scales and weights.</text>
  <g transform="matrix(0.2 0 0 0.2 1289 1933)">
   <path d="m14.209 9.32617 8.49609 8.54492c4.29688 4.3457 9.22852 4.05273 13.8672-1.07422l53.4668-58.9355-4.83398-4.88281-53.0762 58.3984c-1.75781 2.00195-3.41797 2.49023-5.76172 0.146484l-5.85938-5.81055c-2.34375-2.29492-1.80664-4.00391 0.195312-5.81055l57.373-54.0039-4.88281-4.83398-57.959 54.4434c-4.93164 4.58984-5.32227 9.47266-1.02539 13.8184Zm32.0801-90.9668c-2.09961 2.05078-2.24609 4.93164-1.07422 6.88477 1.17188 1.80664 3.4668 2.97852 6.68945 2.14844 7.32422-1.70898 14.9414-2.00195 22.0703 2.68555l-2.92969 7.27539c-1.70898 4.15039-0.830078 7.08008 1.85547 9.81445l11.4746 11.5723c2.44141 2.44141 4.49219 2.53906 7.32422 2.05078l5.32227-0.976562 3.32031 3.36914-0.195312 2.7832c-0.195312 2.49023 0.439453 4.39453 2.88086 6.78711l3.80859 3.71094c2.39258 2.39258 5.46875 2.53906 7.8125 0.195312l14.5508-14.5996c2.34375-2.34375 2.24609-5.32227-0.146484-7.71484l-3.85742-3.80859c-2.39258-2.39258-4.24805-3.17383-6.64062-2.97852l-2.88086 0.244141-3.22266-3.17383 1.2207-5.61523c0.634766-2.83203-0.146484-5.0293-3.07617-7.95898l-10.9863-10.9375c-16.6992-16.6016-38.8672-16.2109-53.3203-1.75781Zm7.4707 1.85547c12.1582-8.88672 28.6133-7.37305 39.7461 3.75977l12.1582 12.0605c1.17188 1.17188 1.36719 2.09961 1.02539 3.80859l-1.61133 7.42188 7.51953 7.42188 4.93164-0.292969c1.26953-0.0488281 1.66016 0.0488281 2.63672 1.02539l2.88086 2.88086-12.207 12.207-2.88086-2.88086c-0.976562-0.976562-1.12305-1.36719-1.07422-2.68555l0.341797-4.88281-7.4707-7.42188-7.61719 1.26953c-1.61133 0.341797-2.34375 0.195312-3.56445-0.976562l-10.0098-10.0098c-1.26953-1.17188-1.41602-2.00195-0.634766-3.85742l4.39453-10.4492c-7.8125-7.27539-17.9688-10.4004-28.125-7.42188-0.78125 0.195312-1.07422-0.439453-0.439453-0.976562Z"/>
  </g>
  <text style="stroke:none;fill:black;font-family:sans-serif;font-size:13;font-weight:bold;" transform="matrix(1 0 0 1 1289 1953)">Exporting</text>
  <text style="stroke:none;fill:black;font-family:sans-serif;font-size:13;" transform="matrix(1 0 0 1 1289 1971)">Symbols should be outlined when exporting to ensure the</text>
  <text style="stroke:none;fill:black;font-family:sans-serif;font-size:13;" transform="matrix(1 0 0 1 1289 1989)">design is preserved when submitting to Xcode.</text>
  <text id="template-version" style="stroke:none;fill:black;font-family:sans-serif;font-size:13;text-anchor:end;" transform="matrix(1 0 0 1 3036 1933)">Template v.6.0</text>
  <text style="stroke:none;fill:black;font-family:sans-serif;font-size:13;text-anchor:end;" transform="matrix(1 0 0 1 3036 1951)">Requires Xcode 16 or greater</text>
  <text id="descriptive-name" style="stroke:none;fill:black;font-family:sans-serif;font-size:13;text-anchor:end;" transform="matrix(1 0 0 1 3036 1969)">Generated from seal.fill</text>
  <text style="stroke:none;fill:black;font-family:sans-serif;font-size:13;text-anchor:end;" transform="matrix(1 0 0 1 3036 1987)">Typeset at 100.0 points</text>
  <text style="stroke:none;fill:black;font-family:sans-serif;font-size:13;" transform="matrix(1 0 0 1 263 726)">Small</text>
  <text style="stroke:none;fill:black;font-family:sans-serif;font-size:13;" transform="matrix(1 0 0 1 263 1156)">Medium</text>
  <text style="stroke:none;fill:black;font-family:sans-serif;font-size:13;" transform="matrix(1 0 0 1 263 1586)">Large</text>
 </g>
 <g id="Guides">
  <g id="H-reference" style="fill:#27AAE1;stroke:none;" transform="matrix(1 0 0 1 339 696)">
   <path d="M0.993654 0L3.63775 0L29.3281-67.1323L30.0303-67.1323L30.0303-70.459L28.1226-70.459ZM11.6885-24.4799L46.9815-24.4799L46.2315-26.7285L12.4385-26.7285ZM55.1196 0L57.7637 0L30.6382-70.459L29.4326-70.459L29.4326-67.1323Z"/>
  </g>
  <line id="Baseline-S" style="fill:none;stroke:#27AAE1;opacity:1;stroke-width:0.5;" x1="263" x2="3036" y1="696" y2="696"/>
  <line id="Capline-S" style="fill:none;stroke:#27AAE1;opacity:1;stroke-width:0.5;" x1="263" x2="3036" y1="625.541" y2="625.541"/>
  <g id="H-reference" style="fill:#27AAE1;stroke:none;" transform="matrix(1 0 0 1 339 1126)">
   <path d="M0.993654 0L3.63775 0L29.3281-67.1323L30.0303-67.1323L30.0303-70.459L28.1226-70.459ZM11.6885-24.4799L46.9815-24.4799L46.2315-26.7285L12.4385-26.7285ZM55.1196 0L57.7637 0L30.6382-70.459L29.4326-70.459L29.4326-67.1323Z"/>
  </g>
  <line id="Baseline-M" style="fill:none;stroke:#27AAE1;opacity:1;stroke-width:0.5;" x1="263" x2="3036" y1="1126" y2="1126"/>
  <line id="Capline-M" style="fill:none;stroke:#27AAE1;opacity:1;stroke-width:0.5;" x1="263" x2="3036" y1="1055.54" y2="1055.54"/>
  <g id="H-reference" style="fill:#27AAE1;stroke:none;" transform="matrix(1 0 0 1 339 1556)">
   <path d="M0.993654 0L3.63775 0L29.3281-67.1323L30.0303-67.1323L30.0303-70.459L28.1226-70.459ZM11.6885-24.4799L46.9815-24.4799L46.2315-26.7285L12.4385-26.7285ZM55.1196 0L57.7637 0L30.6382-70.459L29.4326-70.459L29.4326-67.1323Z"/>
  </g>
  <line id="Baseline-L" style="fill:none;stroke:#27AAE1;opacity:1;stroke-width:0.5;" x1="263" x2="3036" y1="1556" y2="1556"/>
  <line id="Capline-L" style="fill:none;stroke:#27AAE1;opacity:1;stroke-width:0.5;" x1="263" x2="3036" y1="1485.54" y2="1485.54"/>
  <line id="right-margin-Black-S" style="fill:none;stroke:#00AEEF;stroke-width:0.5;opacity:1.0;" x1="2985.35" x2="2985.35" y1="600.785" y2="720.121"/>
  <line id="left-margin-Black-S" style="fill:none;stroke:#00AEEF;stroke-width:0.5;opacity:1.0;" x1="2881.45" x2="2881.45" y1="600.785" y2="720.121"/>
  <line id="right-margin-Regular-S" style="fill:none;stroke:#00AEEF;stroke-width:0.5;opacity:1.0;" x1="1500.58" x2="1500.58" y1="600.785" y2="720.121"/>
  <line id="left-margin-Regular-S" style="fill:none;stroke:#00AEEF;stroke-width:0.5;opacity:1.0;" x1="1399.11" x2="1399.11" y1="600.785" y2="720.121"/>
  <line id="right-margin-Ultralight-S" style="fill:none;stroke:#00AEEF;stroke-width:0.5;opacity:1.0;" x1="608.014" x2="608.014" y1="600.785" y2="720.121"/>
  <line id="left-margin-Ultralight-S" style="fill:none;stroke:#00AEEF;stroke-width:0.5;opacity:1.0;" x1="511.408" x2="511.408" y1="600.785" y2="720.121"/>
 </g>
 <g id="Symbols">
  <g id="Black-S" transform="matrix(1 0 0 1 2881.45 696)">
   <path class="SFSymbolsPreviewWireframe" d="M29.0527-0.341797L36.8164-0.341797C37.3047-0.341797 37.5977-0.244141 37.9883 0.146484L43.457 5.61523C49.1211 11.2793 54.7852 11.2793 60.4492 5.61523L65.918 0.146484C66.3086-0.244141 66.6016-0.341797 67.0898-0.341797L74.8535-0.341797C82.8613-0.341797 86.8652-4.39453 86.8652-12.3535L86.8652-20.1172C86.8652-20.6055 87.0117-20.9473 87.3535-21.2891L92.8223-26.7578C98.4863-32.4219 98.4863-38.0859 92.8223-43.75L87.3535-49.2188C86.9629-49.6094 86.8652-49.9023 86.8652-50.3906L86.8652-58.1543C86.8652-66.1621 82.8125-70.166 74.8535-70.166L67.0898-70.166C66.6016-70.166 66.2598-70.3125 65.918-70.6543L60.4492-76.123C54.7363-81.8359 49.1211-81.8359 43.457-76.0742L37.9883-70.6543C37.6465-70.3125 37.3047-70.166 36.8164-70.166L29.0527-70.166C21.0449-70.166 17.041-66.2109 17.041-58.1543L17.041-50.3906C17.041-49.9023 16.8945-49.5605 16.5527-49.2188L11.084-43.75C5.41992-38.0859 5.41992-32.4219 11.084-26.7578L16.5527-21.2891C16.8945-20.9473 17.041-20.6055 17.041-20.1172L17.041-12.3535C17.041-4.3457 21.0938-0.341797 29.0527-0.341797ZM28.5484-29.9275L34.331-29.9275C35.8313-29.9275 36.957-30.3511 37.6361-31.2715L39.6088-33.4631L35.7808-33.4631L38.1616-20.9977C38.7649-17.904 43.1413-17.907 43.5801-20.9947L44.1635-25.2122L45.5316-11.8765C45.8866-8.57398 50.7353-8.57248 51.0094-11.8765L51.9449-23.7146L52.8773-11.8675C53.153-8.56796 58.0016-8.57097 58.3566-11.8675L59.7277-25.2122L60.3037-21.0037C60.7469-17.91 65.1234-17.91 65.7266-21.0037L68.1379-33.4706L65.0953-33.4721L66.1059-32.3705C67.0728-30.8199 68.5182-29.9275 70.3107-29.9275L75.3533-29.9275C76.8312-29.9275 78.0925-31.1873 78.0925-32.6696C78.0925-34.1503 76.8312-35.4087 75.3533-35.4087L70.7247-35.4087L69.4116-40.8555C68.7261-43.6859 64.5934-43.6889 64.045-40.8585L63.4736-37.8203L62.0675-47.8079C61.5999-51.0297 56.9446-51.0312 56.6171-47.8109L55.9939-41.5247L54.696-57.6291C54.4218-60.9866 49.4664-60.9866 49.1908-57.6291L47.8974-41.5247L47.2696-47.8109C46.9435-51.0266 42.2853-51.0266 41.8207-47.8079L40.4177-37.8203L39.8447-40.8645C39.2963-43.6629 35.1621-43.6629 34.4796-40.8645L33.162-35.4087L28.5484-35.4087C27.0706-35.4087 25.8093-34.1503 25.8093-32.6696C25.8093-31.1873 27.0706-29.9275 28.5484-29.9275Z"/>
  </g>
  <g id="Regular-S" transform="matrix(1 0 0 1 1399.11 696)">
   <path class="SFSymbolsPreviewWireframe" d="M27.7344-1.5625L35.6934-1.5625C36.4258-1.5625 36.9629-1.36719 37.5-0.830078L43.1641 4.78516C48.291 9.96094 53.1738 9.91211 58.3008 4.78516L63.916-0.830078C64.4531-1.36719 65.0391-1.5625 65.7715-1.5625L73.6816-1.5625C80.9082-1.5625 84.4238-4.98047 84.4238-12.3047L84.4238-20.2148C84.4238-20.9473 84.6191-21.4844 85.1562-22.0703L90.7227-27.6855C95.8984-32.8125 95.8496-37.6953 90.7227-42.8223L85.1562-48.4375C84.6191-49.0234 84.4238-49.5605 84.4238-50.293L84.4238-58.2031C84.4238-65.4785 80.957-68.9453 73.6816-68.9453L65.7715-68.9453C65.0391-68.9453 64.4531-69.1406 63.916-69.6777L58.3008-75.293C53.125-80.4688 48.291-80.4199 43.1641-75.293L37.5-69.6777C36.9629-69.1406 36.4258-68.9453 35.6934-68.9453L27.7344-68.9453C20.459-68.9453 17.041-65.5273 17.041-58.2031L17.041-50.293C17.041-49.5605 16.8457-49.0234 16.3086-48.4375L10.6934-42.8223C5.51758-37.6953 5.56641-32.8125 10.6934-27.6855L16.3086-22.0703C16.8457-21.4844 17.041-20.9473 17.041-20.2148L17.041-12.3047C17.041-5.0293 20.459-1.5625 27.7344-1.5625ZM28.2667-30.7286L33.805-30.7286C34.7654-30.7286 35.5541-31.1077 35.9254-31.8687L37.1966-34.8539L35.144-34.8539L37.8366-21.8136C38.2623-19.7536 41.3368-19.7552 41.6356-21.812L43.1281-31.746L45.208-13.1527C45.4722-10.8165 48.8454-10.8304 49.0468-13.1527L50.8018-33.3965L52.5551-13.1479C52.7427-10.8133 56.1159-10.8149 56.3799-13.1479L58.4615-31.746L59.9647-21.8168C60.2512-19.7568 63.3257-19.7568 63.7514-21.8168L66.4422-34.7843L64.6755-34.7704L65.6158-32.3297C66.1224-31.2462 67.0306-30.7286 68.1139-30.7286L73.1961-30.7286C74.3357-30.7286 75.2684-31.6459 75.2684-32.7731C75.2684-33.9142 74.3357-34.8454 73.1961-34.8454L68.8486-34.8454L67.4224-40.4286C66.9186-42.4661 64.0768-42.4677 63.6738-40.4302L62.1584-33.2333L60.0909-47.0702C59.7505-49.3439 56.5162-49.33 56.2781-47.0718L54.7123-33.2651L52.7334-56.3794C52.5318-58.7383 49.0561-58.7383 48.8686-56.3794L46.8774-33.2651L45.3238-47.0718C45.0718-49.3422 41.8359-49.3422 41.4971-47.0702L39.4312-33.2333L37.9297-40.4334C37.5267-42.3983 34.6694-42.3983 34.1673-40.4334L32.7533-34.8454L28.2667-34.8454C27.1272-34.8454 26.1944-33.9142 26.1944-32.7731C26.1944-31.6459 27.1272-30.7286 28.2667-30.7286Z"/>
  </g>
  <g id="Ultralight-S" transform="matrix(1 0 0 1 511.408 696)">
   <path class="SFSymbolsPreviewWireframe" d="M24.2378-4.28709L34.104-4.28709C35.0635-4.28709 35.7368-4.04637 36.4556-3.32762L43.4819 3.6045C46.9287 7.14553 49.6773 7.14211 53.1241 3.6045L60.147-3.32762C60.8658-4.04637 61.5425-4.28709 62.502-4.28709L72.3648-4.28709C77.3208-4.28709 79.2471-6.25194 79.2471-11.1694L79.2471-21.0322C79.2471-22.0371 79.5332-22.7104 80.2066-23.4326L87.1807-30.4101C90.6763-33.9023 90.6729-36.6055 87.1807-40.0977L80.2066-47.0752C79.5332-47.7974 79.2471-48.4707 79.2471-49.4756L79.2471-59.3384C79.2471-64.2525 77.3242-66.2207 72.3648-66.2207L62.502-66.2207C61.5425-66.2207 60.8658-66.4614 60.147-67.1802L53.1241-74.1123C49.6284-77.6988 46.9287-77.6953 43.4365-74.1123L36.4556-67.1802C35.7822-66.5069 35.0635-66.2207 34.104-66.2207L24.2378-66.2207C19.2783-66.2207 17.3589-64.2559 17.3589-59.3384L17.3589-49.4756C17.3589-48.4707 17.0728-47.7974 16.3994-47.0752L9.42189-40.0977C5.92627-36.6055 5.92968-33.9023 9.42189-30.4101L16.3994-23.4326C17.0728-22.7104 17.3589-22.0371 17.3589-21.0322L17.3589-11.1694C17.3589-6.25536 19.2783-4.28709 24.2378-4.28709ZM25.5774-31.983L31.75-31.983C32.1101-31.983 32.4601-32.2097 32.549-32.5854L33.7188-37.465L33.2642-37.465L36.4673-22.3279C36.6595-21.4801 37.9676-21.4657 38.1054-22.3423L40.8251-40.4899L43.8547-14.0747C43.9781-13.0822 45.3995-13.0922 45.4885-14.0747L48.3459-46.3214L51.2177-14.1179C51.2966-13.111 52.7181-13.0966 52.8415-14.1179L55.8567-40.4899L58.6152-22.2992C58.7285-21.4513 60.0366-21.4513 60.2289-22.2992L63.422-37.415L62.9373-37.4049L64.1572-32.5854C64.2561-32.1696 64.5961-31.983 64.9418-31.983L71.0286-31.983C71.5333-31.983 71.9436-32.3976 71.9436-32.8779C71.9436-33.3683 71.5333-33.7928 71.0286-33.7928L65.563-33.7928L63.9198-40.2252C63.6975-41.1045 62.4939-41.0901 62.3161-40.2109L59.5332-26.9768L56.5524-46.7325C56.409-47.6906 55.042-47.6806 54.9286-46.7181L52.1113-22.2235L49.175-55.5817C49.0861-56.5886 47.6101-56.5886 47.5312-55.5817L44.5704-22.2235L41.7775-46.7181C41.6542-47.705 40.3016-47.705 40.1438-46.7325L37.1486-26.9768L34.3757-40.1821C34.1979-41.0644 32.9987-41.0644 32.762-40.1821L31.1432-33.7928L25.5774-33.7928C25.0726-33.7928 24.6625-33.3683 24.6625-32.8779C24.6625-32.3976 25.0726-31.983 25.5774-31.983Z"/>
  </g>
 </g>
 <g id="LayerTree">
  <g class="monochrome-0 multicolor-0:tintColor hierarchical-0:tertiary"/>
  <g class="monochrome-1 multicolor-1:white hierarchical-1:primary">
   <g class="shapeGroupLayer-0"/>
  </g>
 </g>
</svg>
