<?xml version="1.0" encoding="UTF-8"?>
<svg id="Layer_2" data-name="Layer 2" xmlns="http://www.w3.org/2000/svg" viewBox="0 0 584.65 757.79">
  <g id="Layer_1-2" data-name="Layer 1">
    <g>
      <path d="M333.92,275.87h245.79c-1.7-10.51-9.98-20.55-21.38-31.94L342.37,26.31c-11.01-11.39-21.71-19.61-31.86-21.57v247.72c0,15.81,7.6,23.41,23.41,23.41Z"/>
      <g>
        <path d="M488.86,525.17c12.81-22.15-5.03-55.5-47.65-93.28-14.42,12.2-30.97,24.56-49.54,36.9-1.42,22.38-3.82,43.08-7.13,61.9,53.84,17.89,91.47,16.63,104.32-5.52Z"/>
        <path d="M426.05,419.1c-10.06-8.09-21.16-16.35-33.28-24.71.26,8.22.39,16.64.39,25.24s-.12,16.24-.35,24.1c12.14-8.32,23.22-16.55,33.24-24.64Z"/>
        <path d="M365.81,523.93c-11.68-4.5-25.6-10.6-38.48-16.67,7.32-3.92,14.75-8.06,22.29-12.41,7.2-4.15,14.19-8.33,20.89-12.51-1.11,13.51-2.89,29.59-4.71,41.59ZM282.56,330.52c-6.94,3.71-14.01,7.65-21.16,11.78-7.54,4.37-14.84,8.74-21.84,13.13,1.18-13.68,2.95-29.51,4.86-41.5,10.83,4.18,26.3,11.04,38.14,16.58ZM370.38,355.5l-22-13.19c-7.14-4.12-14.18-8.04-21.12-11.78,13.38-6.4,26.19-11.96,38.26-16.56-.01-.07-.02-.13-.03-.2h.01c1.89,11.87,3.7,28.2,4.89,41.74ZM244.11,523.83c-1.84-11.91-3.53-28.05-4.68-41.37,6.67,4.14,13.6,8.28,20.74,12.4,7.55,4.35,14.99,8.48,22.32,12.41-13.45,6.4-26.29,11.95-38.38,16.56ZM304.91,518.82c-1.2-.59,38.42,17.83,57.47,24.65-11.63,54.19-32.35,89.35-57.44,89.35s-45.63-36.79-57.41-89.37c17.94-6.41,37.15-14.66,57.37-24.63"/>
        <path d="M272.63,228.43c-10.82,15.6-18.55,35.02-24.63,66.04.31-1.57-.33,1.53,0,0,17.82,6.4,36.87,14.59,56.9,24.5,4.28-2.12,8.5-4.14,12.69-6.1,0,0,0,0,0,0-30.29-4.22-44.96-23.44-44.96-58.16v-26.27Z"/>
        <path d="M441.3,406.29c41.99-37.25,59.98-70.37,48.02-92.53h-104.03c2.84,17.02,4.95,35.53,6.26,55.38,18.59,12.44,35.22,24.88,49.75,37.15Z"/>
        <path d="M120.93,525.17c12.85,22.15,50.56,23.41,104.47,5.45-3.28-18.75-5.67-39.38-7.07-61.67-18.61-12.38-35.25-24.78-49.81-37.02-42.57,37.77-60.4,71.1-47.59,93.24Z"/>
        <path d="M120.93,312.88c-12.92,22.15,5.02,55.68,47.64,93.43,14.5-12.3,31.15-24.78,49.86-37.26,1.48-22.4,3.97-43.09,7.37-61.87-54-17.97-92.09-16.68-104.87,5.7Z"/>
        <path d="M509.96,313.76c8.14,28.73-11.55,65.84-54.21,105.3,47.97,44.58,66.86,85.99,49.75,115.82-17.09,29.62-62.2,34.02-124.73,14.73-14.57,64.75-41.2,102.53-75.81,102.53s-61.26-37.79-75.78-102.55c-62.58,19.32-107.78,14.93-124.87-14.7-17.1-29.8,1.73-71.16,49.75-115.7-48.06-44.52-67.05-86.09-49.75-116,17.22-29.91,62.65-34.32,125.39-14.85,9.61-41.4,24.28-71.49,42.95-87.25V0H101.02C34.93,0,0,34.58,0,101.7v554.39c0,67.12,34.2,101.7,101.02,101.7h382.69c66.74,0,100.94-34.78,100.94-101.7v-342.33h-74.7Z"/>
        <path d="M183.74,419.1c10.1,8.12,21.27,16.39,33.44,24.75-.23-7.9-.35-15.96-.35-24.21,0-8.65.13-17.11.39-25.38-12.24,8.41-23.39,16.71-33.47,24.84Z"/>
      </g>
    </g>
    <path d="M371.94,380.57c-10.54-6.84-21.87-13.73-33.8-20.63-10.3-5.97-23.41-13.06-33.23-18.23-10.72,5.5-21.83,11.62-33.22,18.23-11.86,6.86-23.12,13.7-33.7,20.5-.45,11.14-.94,27.23-.94,39.19s.43,26.7.88,37.92c10.13,6.55,20.99,13.13,32.42,19.71,11.21,6.46,23.93,13.31,34.55,18.84,11.12-5.68,22.67-12,34.52-18.84,11.44-6.59,22.33-13.19,32.57-19.75.49-11.66.88-25.31.88-37.88s-.48-27.76-.94-39.06ZM305.05,462.67c-23.41,0-42.29-18.89-42.29-42.3s18.89-42.19,42.29-42.19,42.19,18.89,42.19,42.19-18.99,42.3-42.19,42.3Z"/>
  </g>
</svg>