<?xml version="1.0" encoding="UTF-8"?>
<svg id="Layer_2" data-name="Layer 2" xmlns="http://www.w3.org/2000/svg" viewBox="0 0 306.76 306.33">
  <g id="Layer_1-2" data-name="Layer 1">
    <path d="M153.44,306.33c5.24,0,9.09-3.53,9.8-8.82,12.23-112.47,23.95-124.25,134.49-134.73,5.25-.46,9.04-4.48,9.04-9.57s-3.78-9.23-9.04-9.61c-110.54-10.53-122.26-22.27-134.49-134.7-.7-5.41-4.56-8.9-9.8-8.9s-9.06,3.49-9.88,8.9c-12.18,112.43-23.95,124.16-134.44,134.7-5.3.38-9.12,4.44-9.12,9.61s3.82,8.87,9.12,9.57c109.87,13.66,121.06,21.76,134.44,134.73.82,5.29,4.84,8.82,9.88,8.82Z"/>
  </g>
</svg>