<?xml version="1.0" encoding="UTF-8"?>
<!--Generator: Apple Native CoreSVG 338-->
<!DOCTYPE svg
PUBLIC "-//W3C//DTD SVG 1.1//EN"
       "http://www.w3.org/Graphics/SVG/1.1/DTD/svg11.dtd">
<svg version="1.1" xmlns="http://www.w3.org/2000/svg" xmlns:xlink="http://www.w3.org/1999/xlink" viewBox="0 0 3300 2200">
 <!--glyph: "", point size: 100.0, font version: "20.0d8e1", template writer version: "138.0.0"-->
 <style>.monochrome-0 {-sfsymbols-motion-group:1;-sfsymbols-indices:0 1;-sfsymbols-layer-tags:74530ad044619839 seal}
.monochrome-1 {-sfsymbols-motion-group:0;-sfsymbols-always-pulses:true;-sfsymbols-layer-tags:74530ad044619839}

.multicolor-0:tintColor {-sfsymbols-motion-group:1;-sfsymbols-indices:0 1;-sfsymbols-layer-tags:74530ad044619839 seal}
.multicolor-1:tintColor {-sfsymbols-motion-group:0;-sfsymbols-always-pulses:true;-sfsymbols-layer-tags:74530ad044619839}

.hierarchical-0:secondary {-sfsymbols-motion-group:1;-sfsymbols-indices:0 1;-sfsymbols-layer-tags:74530ad044619839 seal}
.hierarchical-1:primary {-sfsymbols-motion-group:0;-sfsymbols-layer-tags:74530ad044619839}

.shapeGroupLayer-0 {-sfsymbols-fill-action:draw;-sfsymbols-indices:2}

.SFSymbolsPreviewWireframe {fill:none;opacity:1.0;stroke:black;stroke-width:0.5}
</style>
 <g id="Notes">
  <rect height="2200" id="artboard" style="fill:white;opacity:1" width="3300" x="0" y="0"/>
  <line style="fill:none;stroke:black;opacity:1;stroke-width:0.5;" x1="263" x2="3036" y1="292" y2="292"/>
  <text style="stroke:none;fill:black;font-family:sans-serif;font-size:13;font-weight:bold;" transform="matrix(1 0 0 1 263 322)">Weight/Scale Variations</text>
  <text style="stroke:none;fill:black;font-family:sans-serif;font-size:13;text-anchor:middle;" transform="matrix(1 0 0 1 559.711 322)">Ultralight</text>
  <text style="stroke:none;fill:black;font-family:sans-serif;font-size:13;text-anchor:middle;" transform="matrix(1 0 0 1 856.422 322)">Thin</text>
  <text style="stroke:none;fill:black;font-family:sans-serif;font-size:13;text-anchor:middle;" transform="matrix(1 0 0 1 1153.13 322)">Light</text>
  <text style="stroke:none;fill:black;font-family:sans-serif;font-size:13;text-anchor:middle;" transform="matrix(1 0 0 1 1449.84 322)">Regular</text>
  <text style="stroke:none;fill:black;font-family:sans-serif;font-size:13;text-anchor:middle;" transform="matrix(1 0 0 1 1746.56 322)">Medium</text>
  <text style="stroke:none;fill:black;font-family:sans-serif;font-size:13;text-anchor:middle;" transform="matrix(1 0 0 1 2043.27 322)">Semibold</text>
  <text style="stroke:none;fill:black;font-family:sans-serif;font-size:13;text-anchor:middle;" transform="matrix(1 0 0 1 2339.98 322)">Bold</text>
  <text style="stroke:none;fill:black;font-family:sans-serif;font-size:13;text-anchor:middle;" transform="matrix(1 0 0 1 2636.69 322)">Heavy</text>
  <text style="stroke:none;fill:black;font-family:sans-serif;font-size:13;text-anchor:middle;" transform="matrix(1 0 0 1 2933.4 322)">Black</text>
  <line style="fill:none;stroke:black;opacity:1;stroke-width:0.5;" x1="263" x2="3036" y1="1903" y2="1903"/>
  <g transform="matrix(0.2 0 0 0.2 263 1933)">
   <path d="m46.2402 4.15039c21.7773 0 39.4531-17.627 39.4531-39.4043s-17.6758-39.4043-39.4531-39.4043c-21.7285 0-39.4043 17.627-39.4043 39.4043s17.6758 39.4043 39.4043 39.4043Zm0-7.42188c-17.6758 0-31.9336-14.3066-31.9336-31.9824s14.2578-31.9824 31.9336-31.9824 31.9824 14.3066 31.9824 31.9824-14.3066 31.9824-31.9824 31.9824Zm-17.9688-31.9824c0 2.14844 1.51367 3.61328 3.75977 3.61328h10.498v10.5957c0 2.19727 1.46484 3.71094 3.61328 3.71094 2.24609 0 3.71094-1.51367 3.71094-3.71094v-10.5957h10.5957c2.19727 0 3.71094-1.46484 3.71094-3.61328 0-2.19727-1.51367-3.71094-3.71094-3.71094h-10.5957v-10.5469c0-2.24609-1.46484-3.75977-3.71094-3.75977-2.14844 0-3.61328 1.51367-3.61328 3.75977v10.5469h-10.498c-2.24609 0-3.75977 1.51367-3.75977 3.71094Z"/>
  </g>
  <g transform="matrix(0.2 0 0 0.2 281.506 1933)">
   <path d="m58.5449 14.5508c27.4902 0 49.8047-22.3145 49.8047-49.8047s-22.3145-49.8047-49.8047-49.8047-49.8047 22.3145-49.8047 49.8047 22.3145 49.8047 49.8047 49.8047Zm0-8.30078c-22.9492 0-41.5039-18.5547-41.5039-41.5039s18.5547-41.5039 41.5039-41.5039 41.5039 18.5547 41.5039 41.5039-18.5547 41.5039-41.5039 41.5039Zm-22.6562-41.5039c0 2.39258 1.66016 4.00391 4.15039 4.00391h14.3555v14.4043c0 2.44141 1.66016 4.15039 4.05273 4.15039 2.44141 0 4.15039-1.66016 4.15039-4.15039v-14.4043h14.4043c2.44141 0 4.15039-1.61133 4.15039-4.00391 0-2.44141-1.70898-4.15039-4.15039-4.15039h-14.4043v-14.3555c0-2.49023-1.70898-4.19922-4.15039-4.19922-2.39258 0-4.05273 1.70898-4.05273 4.19922v14.3555h-14.3555c-2.49023 0-4.15039 1.70898-4.15039 4.15039Z"/>
  </g>
  <g transform="matrix(0.2 0 0 0.2 304.924 1933)">
   <path d="m74.8535 28.3203c35.1074 0 63.623-28.4668 63.623-63.5742s-28.5156-63.623-63.623-63.623-63.5742 28.5156-63.5742 63.623 28.4668 63.5742 63.5742 63.5742Zm0-9.08203c-30.127 0-54.4922-24.3652-54.4922-54.4922s24.3652-54.4922 54.4922-54.4922 54.4922 24.3652 54.4922 54.4922-24.3652 54.4922-54.4922 54.4922Zm-28.8574-54.4922c0 2.58789 1.85547 4.39453 4.58984 4.39453h19.7266v19.7754c0 2.68555 1.85547 4.58984 4.44336 4.58984 2.68555 0 4.54102-1.85547 4.54102-4.58984v-19.7754h19.7754c2.68555 0 4.58984-1.80664 4.58984-4.39453 0-2.73438-1.85547-4.58984-4.58984-4.58984h-19.7754v-19.7266c0-2.73438-1.85547-4.63867-4.54102-4.63867-2.58789 0-4.44336 1.9043-4.44336 4.63867v19.7266h-19.7266c-2.73438 0-4.58984 1.85547-4.58984 4.58984Z"/>
  </g>
  <text style="stroke:none;fill:black;font-family:sans-serif;font-size:13;font-weight:bold;" transform="matrix(1 0 0 1 263 1953)">Design Variations</text>
  <text style="stroke:none;fill:black;font-family:sans-serif;font-size:13;" transform="matrix(1 0 0 1 263 1971)">Symbols are supported in up to nine weights and three scales.</text>
  <text style="stroke:none;fill:black;font-family:sans-serif;font-size:13;" transform="matrix(1 0 0 1 263 1989)">For optimal layout with text and other symbols, vertically align</text>
  <text style="stroke:none;fill:black;font-family:sans-serif;font-size:13;" transform="matrix(1 0 0 1 263 2007)">symbols with the adjacent text.</text>
  <line style="fill:none;stroke:#00AEEF;stroke-width:0.5;opacity:1.0;" x1="776" x2="776" y1="1919" y2="1933"/>
  <g transform="matrix(0.2 0 0 0.2 776 1933)">
   <path d="m16.5527 0.78125c2.58789 0 3.85742-0.976562 4.78516-3.71094l6.29883-17.2363h28.8086l6.29883 17.2363c0.927734 2.73438 2.19727 3.71094 4.73633 3.71094 2.58789 0 4.24805-1.5625 4.24805-4.00391 0-0.830078-0.146484-1.61133-0.537109-2.63672l-22.9004-60.9863c-1.12305-2.97852-3.125-4.49219-6.25-4.49219-3.02734 0-5.07812 1.46484-6.15234 4.44336l-22.9004 61.084c-0.390625 1.02539-0.537109 1.80664-0.537109 2.63672 0 2.44141 1.5625 3.95508 4.10156 3.95508Zm13.4766-28.3691 11.8652-32.8613h0.244141l11.8652 32.8613Z"/>
  </g>
  <line style="fill:none;stroke:#00AEEF;stroke-width:0.5;opacity:1.0;" x1="792.836" x2="792.836" y1="1919" y2="1933"/>
  <text style="stroke:none;fill:black;font-family:sans-serif;font-size:13;font-weight:bold;" transform="matrix(1 0 0 1 776 1953)">Margins</text>
  <text style="stroke:none;fill:black;font-family:sans-serif;font-size:13;" transform="matrix(1 0 0 1 776 1971)">Leading and trailing margins on the left and right side of each symbol</text>
  <text style="stroke:none;fill:black;font-family:sans-serif;font-size:13;" transform="matrix(1 0 0 1 776 1989)">can be adjusted by modifying the x-location of the margin guidelines.</text>
  <text style="stroke:none;fill:black;font-family:sans-serif;font-size:13;" transform="matrix(1 0 0 1 776 2007)">Modifications are automatically applied proportionally to all</text>
  <text style="stroke:none;fill:black;font-family:sans-serif;font-size:13;" transform="matrix(1 0 0 1 776 2025)">scales and weights.</text>
  <g transform="matrix(0.2 0 0 0.2 1289 1933)">
   <path d="m14.209 9.32617 8.49609 8.54492c4.29688 4.3457 9.22852 4.05273 13.8672-1.07422l53.4668-58.9355-4.83398-4.88281-53.0762 58.3984c-1.75781 2.00195-3.41797 2.49023-5.76172 0.146484l-5.85938-5.81055c-2.34375-2.29492-1.80664-4.00391 0.195312-5.81055l57.373-54.0039-4.88281-4.83398-57.959 54.4434c-4.93164 4.58984-5.32227 9.47266-1.02539 13.8184Zm32.0801-90.9668c-2.09961 2.05078-2.24609 4.93164-1.07422 6.88477 1.17188 1.80664 3.4668 2.97852 6.68945 2.14844 7.32422-1.70898 14.9414-2.00195 22.0703 2.68555l-2.92969 7.27539c-1.70898 4.15039-0.830078 7.08008 1.85547 9.81445l11.4746 11.5723c2.44141 2.44141 4.49219 2.53906 7.32422 2.05078l5.32227-0.976562 3.32031 3.36914-0.195312 2.7832c-0.195312 2.49023 0.439453 4.39453 2.88086 6.78711l3.80859 3.71094c2.39258 2.39258 5.46875 2.53906 7.8125 0.195312l14.5508-14.5996c2.34375-2.34375 2.24609-5.32227-0.146484-7.71484l-3.85742-3.80859c-2.39258-2.39258-4.24805-3.17383-6.64062-2.97852l-2.88086 0.244141-3.22266-3.17383 1.2207-5.61523c0.634766-2.83203-0.146484-5.0293-3.07617-7.95898l-10.9863-10.9375c-16.6992-16.6016-38.8672-16.2109-53.3203-1.75781Zm7.4707 1.85547c12.1582-8.88672 28.6133-7.37305 39.7461 3.75977l12.1582 12.0605c1.17188 1.17188 1.36719 2.09961 1.02539 3.80859l-1.61133 7.42188 7.51953 7.42188 4.93164-0.292969c1.26953-0.0488281 1.66016 0.0488281 2.63672 1.02539l2.88086 2.88086-12.207 12.207-2.88086-2.88086c-0.976562-0.976562-1.12305-1.36719-1.07422-2.68555l0.341797-4.88281-7.4707-7.42188-7.61719 1.26953c-1.61133 0.341797-2.34375 0.195312-3.56445-0.976562l-10.0098-10.0098c-1.26953-1.17188-1.41602-2.00195-0.634766-3.85742l4.39453-10.4492c-7.8125-7.27539-17.9688-10.4004-28.125-7.42188-0.78125 0.195312-1.07422-0.439453-0.439453-0.976562Z"/>
  </g>
  <text style="stroke:none;fill:black;font-family:sans-serif;font-size:13;font-weight:bold;" transform="matrix(1 0 0 1 1289 1953)">Exporting</text>
  <text style="stroke:none;fill:black;font-family:sans-serif;font-size:13;" transform="matrix(1 0 0 1 1289 1971)">Symbols should be outlined when exporting to ensure the</text>
  <text style="stroke:none;fill:black;font-family:sans-serif;font-size:13;" transform="matrix(1 0 0 1 1289 1989)">design is preserved when submitting to Xcode.</text>
  <text id="template-version" style="stroke:none;fill:black;font-family:sans-serif;font-size:13;text-anchor:end;" transform="matrix(1 0 0 1 3036 1933)">Template v.6.0</text>
  <text style="stroke:none;fill:black;font-family:sans-serif;font-size:13;text-anchor:end;" transform="matrix(1 0 0 1 3036 1951)">Requires Xcode 16 or greater</text>
  <text id="descriptive-name" style="stroke:none;fill:black;font-family:sans-serif;font-size:13;text-anchor:end;" transform="matrix(1 0 0 1 3036 1969)">Generated from seal</text>
  <text style="stroke:none;fill:black;font-family:sans-serif;font-size:13;text-anchor:end;" transform="matrix(1 0 0 1 3036 1987)">Typeset at 100.0 points</text>
  <text style="stroke:none;fill:black;font-family:sans-serif;font-size:13;" transform="matrix(1 0 0 1 263 726)">Small</text>
  <text style="stroke:none;fill:black;font-family:sans-serif;font-size:13;" transform="matrix(1 0 0 1 263 1156)">Medium</text>
  <text style="stroke:none;fill:black;font-family:sans-serif;font-size:13;" transform="matrix(1 0 0 1 263 1586)">Large</text>
 </g>
 <g id="Guides">
  <g id="H-reference" style="fill:#27AAE1;stroke:none;" transform="matrix(1 0 0 1 339 696)">
   <path d="M0.993654 0L3.63775 0L29.3281-67.1323L30.0303-67.1323L30.0303-70.459L28.1226-70.459ZM11.6885-24.4799L46.9815-24.4799L46.2315-26.7285L12.4385-26.7285ZM55.1196 0L57.7637 0L30.6382-70.459L29.4326-70.459L29.4326-67.1323Z"/>
  </g>
  <line id="Baseline-S" style="fill:none;stroke:#27AAE1;opacity:1;stroke-width:0.5;" x1="263" x2="3036" y1="696" y2="696"/>
  <line id="Capline-S" style="fill:none;stroke:#27AAE1;opacity:1;stroke-width:0.5;" x1="263" x2="3036" y1="625.541" y2="625.541"/>
  <g id="H-reference" style="fill:#27AAE1;stroke:none;" transform="matrix(1 0 0 1 339 1126)">
   <path d="M0.993654 0L3.63775 0L29.3281-67.1323L30.0303-67.1323L30.0303-70.459L28.1226-70.459ZM11.6885-24.4799L46.9815-24.4799L46.2315-26.7285L12.4385-26.7285ZM55.1196 0L57.7637 0L30.6382-70.459L29.4326-70.459L29.4326-67.1323Z"/>
  </g>
  <line id="Baseline-M" style="fill:none;stroke:#27AAE1;opacity:1;stroke-width:0.5;" x1="263" x2="3036" y1="1126" y2="1126"/>
  <line id="Capline-M" style="fill:none;stroke:#27AAE1;opacity:1;stroke-width:0.5;" x1="263" x2="3036" y1="1055.54" y2="1055.54"/>
  <g id="H-reference" style="fill:#27AAE1;stroke:none;" transform="matrix(1 0 0 1 339 1556)">
   <path d="M0.993654 0L3.63775 0L29.3281-67.1323L30.0303-67.1323L30.0303-70.459L28.1226-70.459ZM11.6885-24.4799L46.9815-24.4799L46.2315-26.7285L12.4385-26.7285ZM55.1196 0L57.7637 0L30.6382-70.459L29.4326-70.459L29.4326-67.1323Z"/>
  </g>
  <line id="Baseline-L" style="fill:none;stroke:#27AAE1;opacity:1;stroke-width:0.5;" x1="263" x2="3036" y1="1556" y2="1556"/>
  <line id="Capline-L" style="fill:none;stroke:#27AAE1;opacity:1;stroke-width:0.5;" x1="263" x2="3036" y1="1485.54" y2="1485.54"/>
  <line id="right-margin-Black-S" style="fill:none;stroke:#00AEEF;stroke-width:0.5;opacity:1.0;" x1="2985.35" x2="2985.35" y1="600.785" y2="720.121"/>
  <line id="left-margin-Black-S" style="fill:none;stroke:#00AEEF;stroke-width:0.5;opacity:1.0;" x1="2881.45" x2="2881.45" y1="600.785" y2="720.121"/>
  <line id="right-margin-Regular-S" style="fill:none;stroke:#00AEEF;stroke-width:0.5;opacity:1.0;" x1="1500.55" x2="1500.55" y1="600.785" y2="720.121"/>
  <line id="left-margin-Regular-S" style="fill:none;stroke:#00AEEF;stroke-width:0.5;opacity:1.0;" x1="1399.14" x2="1399.14" y1="600.785" y2="720.121"/>
  <line id="right-margin-Ultralight-S" style="fill:none;stroke:#00AEEF;stroke-width:0.5;opacity:1.0;" x1="608.012" x2="608.012" y1="600.785" y2="720.121"/>
  <line id="left-margin-Ultralight-S" style="fill:none;stroke:#00AEEF;stroke-width:0.5;opacity:1.0;" x1="511.41" x2="511.41" y1="600.785" y2="720.121"/>
 </g>
 <g id="Symbols">
  <g id="Black-S" transform="matrix(1 0 0 1 2881.45 696)">
   <path class="SFSymbolsPreviewWireframe" d="M29.0527-0.390625L36.8164-0.390625C37.3047-0.390625 37.5977-0.292969 37.9883 0.0976562L43.457 5.56641C49.1211 11.2305 54.7852 11.2305 60.4492 5.56641L65.918 0.0976562C66.3086-0.292969 66.6016-0.390625 67.0898-0.390625L74.8535-0.390625C82.8613-0.390625 86.8652-4.44336 86.8652-12.4023L86.8652-20.166C86.8652-20.6543 87.0117-20.9961 87.3535-21.3379L92.8223-26.8066C98.4863-32.4707 98.4863-38.1348 92.8223-43.7988L87.3535-49.2676C86.9629-49.6582 86.8652-49.9512 86.8652-50.4395L86.8652-58.2031C86.8652-66.2109 82.8125-70.2148 74.8535-70.2148L67.0898-70.2148C66.6016-70.2148 66.2598-70.3613 65.918-70.7031L60.4492-76.1719C54.7363-81.8848 49.2188-81.7871 43.457-76.123L37.9883-70.7031C37.6465-70.3613 37.3047-70.2148 36.8164-70.2148L29.0527-70.2148C21.0449-70.2148 17.041-66.2598 17.041-58.2031L17.041-50.4395C17.041-49.9512 16.8945-49.6094 16.5527-49.2676L11.084-43.7988C5.41992-38.1348 5.41992-32.4707 11.084-26.8066L16.5527-21.3379C16.8945-20.9961 17.041-20.6543 17.041-20.166L17.041-12.4023C17.041-4.39453 21.0938-0.390625 29.0527-0.390625ZM32.1289-11.6211C28.9062-11.6211 28.3203-12.207 28.2715-15.4297L28.2715-23.9746C28.2715-25 28.0273-25.7324 27.2949-26.4648L21.1914-32.5684C18.8965-34.8633 18.8965-35.6445 21.1914-37.9395L27.2949-44.043C28.0273-44.7754 28.2715-45.5078 28.3203-46.5332L28.3203-55.0781C28.3203-58.3496 28.8574-58.8867 32.1289-58.8867L40.6738-58.9355C41.6992-58.9355 42.4805-59.2285 43.1641-59.9121L49.2676-66.0156C51.5625-68.3105 52.2949-68.3594 54.6387-66.0156L60.7422-59.9121C61.4258-59.2285 62.207-58.9355 63.2324-58.9355L71.7773-58.8867C75-58.8867 75.5859-58.3008 75.5859-55.0781L75.5859-46.5332C75.6348-45.5078 75.8789-44.7754 76.6113-44.043L82.7148-37.9395C85.0098-35.6445 85.0098-34.8633 82.7148-32.5684L76.6113-26.4648C75.8789-25.7324 75.6348-25 75.6348-23.9746L75.5859-15.4297C75.5859-12.207 75-11.6211 71.7773-11.6211L63.2324-11.5723C62.207-11.5723 61.5234-11.377 60.7422-10.5957L54.6387-4.49219C52.3438-2.19727 51.5625-2.19727 49.2676-4.49219L43.1641-10.5957C42.3828-11.377 41.6992-11.5723 40.6738-11.5723ZM28.5484-29.9275L34.331-29.9275C35.8313-29.9275 36.957-30.3511 37.6361-31.2715L39.6088-33.4631L35.7808-33.4631L38.1616-20.9977C38.7649-17.904 43.1413-17.907 43.5801-20.9947L44.1635-25.2122L45.5316-11.8765C45.8866-8.57398 50.7353-8.57248 51.0094-11.8765L51.9449-23.7146L52.8773-11.8675C53.153-8.56796 58.0016-8.57097 58.3566-11.8675L59.7277-25.2122L60.3037-21.0037C60.7469-17.91 65.1234-17.91 65.7266-21.0037L68.1379-33.4706L65.0953-33.4721L66.1059-32.3705C67.0728-30.8199 68.5182-29.9275 70.3107-29.9275L75.3533-29.9275C76.8312-29.9275 78.0925-31.1873 78.0925-32.6696C78.0925-34.1503 76.8312-35.4087 75.3533-35.4087L70.7247-35.4087L69.4116-40.8555C68.7261-43.6859 64.5934-43.6889 64.045-40.8585L63.4736-37.8203L62.0675-47.8079C61.5999-51.0297 56.9446-51.0312 56.6171-47.8109L55.9939-41.5247L54.696-57.6291C54.4218-60.9866 49.4664-60.9866 49.1908-57.6291L47.8974-41.5247L47.2696-47.8109C46.9435-51.0266 42.2853-51.0266 41.8207-47.8079L40.4177-37.8203L39.8447-40.8645C39.2963-43.6629 35.1621-43.6629 34.4796-40.8645L33.162-35.4087L28.5484-35.4087C27.0706-35.4087 25.8093-34.1503 25.8093-32.6696C25.8093-31.1873 27.0706-29.9275 28.5484-29.9275Z"/>
  </g>
  <g id="Regular-S" transform="matrix(1 0 0 1 1399.14 696)">
   <path class="SFSymbolsPreviewWireframe" d="M27.7344-1.5625L35.6934-1.5625C36.4258-1.5625 36.9629-1.36719 37.5-0.830078L43.1641 4.78516C48.291 9.96094 53.125 9.91211 58.252 4.78516L63.916-0.830078C64.4531-1.36719 64.9902-1.5625 65.7715-1.5625L73.6816-1.5625C80.9082-1.5625 84.375-4.98047 84.375-12.3047L84.375-20.2148C84.375-20.9473 84.6191-21.4844 85.1562-22.0703L90.7227-27.6855C95.8984-32.8125 95.8496-37.6953 90.7227-42.8223L85.1562-48.4375C84.6191-49.0234 84.375-49.5605 84.375-50.293L84.375-58.2031C84.375-65.4785 80.957-68.9453 73.6816-68.9453L65.7715-68.9453C64.9902-68.9453 64.4531-69.1406 63.916-69.6777L58.252-75.293C53.125-80.4688 48.291-80.4199 43.1641-75.293L37.5-69.6777C36.9629-69.1406 36.4258-68.9453 35.6934-68.9453L27.7344-68.9453C20.459-68.9453 17.041-65.5273 17.041-58.2031L17.041-50.293C17.041-49.5605 16.8457-49.0234 16.3086-48.4375L10.6934-42.8223C5.51758-37.6953 5.56641-32.8125 10.6934-27.6855L16.3086-22.0703C16.8457-21.4844 17.041-20.9473 17.041-20.2148L17.041-12.3047C17.041-5.0293 20.459-1.5625 27.7344-1.5625ZM27.7344-8.54492C24.4141-8.54492 23.9746-8.93555 23.9746-12.3047L23.9746-22.4609C23.9746-23.6816 23.584-24.6094 22.7539-25.4883L15.5762-32.5684C13.2324-35.0098 13.2324-35.498 15.5762-37.9395L22.7539-45.0195C23.584-45.8984 23.9746-46.8262 23.9746-48.0469L23.9746-58.2031C23.9746-61.6211 24.3652-61.9629 27.7344-61.9629L37.9395-61.9629C39.1602-61.9629 40.0879-62.3047 40.918-63.2324L48.0469-70.4102C50.4395-72.7539 50.9766-72.7539 53.3691-70.4102L60.498-63.2324C61.377-62.3047 62.3047-61.9629 63.4766-61.9629L73.6816-61.9629C77.002-61.9629 77.4414-61.5723 77.4414-58.2031L77.4414-48.0469C77.4414-46.8262 77.832-45.8984 78.7109-45.0195L85.8398-37.9395C88.2324-35.498 88.2324-35.0098 85.8398-32.5684L78.7109-25.4883C77.832-24.6094 77.4414-23.6816 77.4414-22.4609L77.4414-12.3047C77.4414-8.93555 77.002-8.54492 73.6816-8.54492L63.4766-8.54492C62.3047-8.54492 61.377-8.20312 60.498-7.27539L53.3691-0.0976562C50.9766 2.24609 50.4395 2.24609 48.0469-0.0976562L40.918-7.27539C40.0879-8.20312 39.1602-8.54492 37.9395-8.54492ZM28.2423-30.7286L33.7806-30.7286C34.741-30.7286 35.5297-31.1077 35.901-31.8687L37.1722-34.8539L35.1196-34.8539L37.8122-21.8136C38.2379-19.7536 41.3123-19.7552 41.6112-21.812L43.1037-31.746L45.1836-13.1527C45.4477-10.8165 48.8209-10.8304 49.0224-13.1527L50.7774-33.3965L52.5307-13.1479C52.7183-10.8133 56.0914-10.8149 56.3555-13.1479L58.4371-31.746L59.9402-21.8168C60.2268-19.7568 63.3013-19.7568 63.727-21.8168L66.4178-34.7843L64.651-34.7704L65.5914-32.3297C66.098-31.2462 67.0062-30.7286 68.0895-30.7286L73.1717-30.7286C74.3113-30.7286 75.244-31.6459 75.244-32.7731C75.244-33.9142 74.3113-34.8454 73.1717-34.8454L68.8242-34.8454L67.3979-40.4286C66.8942-42.4661 64.0524-42.4677 63.6494-40.4302L62.134-33.2333L60.0665-47.0702C59.726-49.3439 56.4918-49.33 56.2537-47.0718L54.6879-33.2651L52.709-56.3794C52.5074-58.7383 49.0317-58.7383 48.8442-56.3794L46.853-33.2651L45.2994-47.0718C45.0474-49.3422 41.8115-49.3422 41.4727-47.0702L39.4068-33.2333L37.9053-40.4334C37.5023-42.3983 34.645-42.3983 34.1428-40.4334L32.7289-34.8454L28.2423-34.8454C27.1028-34.8454 26.17-33.9142 26.17-32.7731C26.17-31.6459 27.1028-30.7286 28.2423-30.7286Z"/>
  </g>
  <g id="Ultralight-S" transform="matrix(1 0 0 1 511.41 696)">
   <path class="SFSymbolsPreviewWireframe" d="M24.2378-4.28709L34.104-4.28709C35.0635-4.28709 35.7368-4.04637 36.4556-3.32762L43.4819 3.6045C46.9741 7.10012 49.6284 7.0967 53.1206 3.6045L60.147-3.32762C60.8658-4.04637 61.5391-4.28709 62.502-4.28709L72.3648-4.28709C77.3208-4.28709 79.2437-6.25194 79.2437-11.1694L79.2437-21.0322C79.2437-22.0371 79.5332-22.7104 80.2066-23.4326L87.1807-30.4101C90.6309-33.9477 90.6275-36.5601 87.1807-40.0977L80.2066-47.0752C79.5332-47.7974 79.2437-48.4707 79.2437-49.4756L79.2437-59.3384C79.2437-64.2525 77.3242-66.2207 72.3648-66.2207L62.502-66.2207C61.5391-66.2207 60.8658-66.4614 60.147-67.1802L53.1206-74.1123C49.583-77.6533 46.9741-77.6953 43.4365-74.1123L36.4556-67.1802C35.7822-66.5069 35.0635-66.2207 34.104-66.2207L24.2378-66.2207C19.2783-66.2207 17.3589-64.2559 17.3589-59.3384L17.3589-49.4756C17.3589-48.4707 17.0728-47.7974 16.3994-47.0752L9.42189-40.0977C5.97168-36.5601 5.97509-33.9477 9.42189-30.4101L16.3994-23.4326C17.0728-22.7104 17.3589-22.0371 17.3589-21.0322L17.3589-11.1694C17.3589-6.25536 19.2783-4.28709 24.2378-4.28709ZM24.2378-6.50148C20.5542-6.50148 19.5699-7.48243 19.5699-11.1694L19.5699-21.9614C19.5699-22.9551 19.2701-23.7012 18.5762-24.353L10.9898-31.978C8.32816-34.6011 8.32816-35.9067 10.9898-38.5298L18.5762-46.1548C19.2701-46.8066 19.5699-47.5527 19.5699-48.5464L19.5699-59.3384C19.5699-63.0742 20.5054-64.0063 24.2378-64.0063L34.9878-64.0063C35.9815-64.0063 36.7276-64.3027 37.4214-65.0034L45.0044-72.5898C47.624-75.206 48.9785-75.206 51.5982-72.5898L59.1812-65.0034C59.8784-64.3027 60.6245-64.0063 61.6148-64.0063L72.3648-64.0063C76.0483-64.0063 77.0781-63.0254 77.0781-59.3384L77.0781-48.5464C77.0781-47.5527 77.3779-46.8066 78.0298-46.1548L85.6582-38.5298C88.2778-35.9067 88.2778-34.6011 85.6582-31.978L78.0298-24.353C77.3779-23.7012 77.0781-22.9551 77.0781-21.9614L77.0781-11.1694C77.0781-7.48243 76.0483-6.50148 72.3648-6.50148L61.6148-6.50148C60.6245-6.50148 59.8784-6.20509 59.1812-5.50441L51.5982 2.08201C48.9785 4.69822 47.624 4.69822 45.0044 2.08201L37.4214-5.50441C36.7276-6.20509 35.9815-6.50148 34.9878-6.50148ZM25.5757-31.983L31.7483-31.983C32.1083-31.983 32.4584-32.2097 32.5473-32.5854L33.7171-37.465L33.2624-37.465L36.4656-22.3279C36.6578-21.4801 37.9659-21.4657 38.1037-22.3423L40.8234-40.4899L43.853-14.0747C43.9764-13.0822 45.3978-13.0922 45.4867-14.0747L48.3442-46.3214L51.216-14.1179C51.2949-13.111 52.7164-13.0966 52.8398-14.1179L55.855-40.4899L58.6135-22.2992C58.7268-21.4513 60.0349-21.4513 60.2272-22.2992L63.4202-37.415L62.9356-37.4049L64.1555-32.5854C64.2544-32.1696 64.5944-31.983 64.9401-31.983L71.0268-31.983C71.5316-31.983 71.9419-32.3976 71.9419-32.8779C71.9419-33.3683 71.5316-33.7928 71.0268-33.7928L65.5613-33.7928L63.9181-40.2252C63.6958-41.1045 62.4922-41.0901 62.3144-40.2109L59.5315-26.9768L56.5507-46.7325C56.4073-47.6906 55.0403-47.6806 54.9269-46.7181L52.1096-22.2235L49.1733-55.5817C49.0844-56.5886 47.6084-56.5886 47.5295-55.5817L44.5687-22.2235L41.7758-46.7181C41.6525-47.705 40.2998-47.705 40.1421-46.7325L37.1469-26.9768L34.374-40.1821C34.1962-41.0644 32.997-41.0644 32.7603-40.1821L31.1415-33.7928L25.5757-33.7928C25.0709-33.7928 24.6608-33.3683 24.6608-32.8779C24.6608-32.3976 25.0709-31.983 25.5757-31.983Z"/>
  </g>
 </g>
 <g id="LayerTree">
  <g class="monochrome-0 multicolor-0:tintColor hierarchical-0:secondary"/>
  <g class="monochrome-1 multicolor-1:tintColor hierarchical-1:primary">
   <g class="shapeGroupLayer-0"/>
  </g>
 </g>
</svg>
