<?xml version="1.0" encoding="UTF-8"?>
<!--Generator: Apple Native CoreSVG 338-->
<!DOCTYPE svg
PUBLIC "-//W3C//DTD SVG 1.1//EN"
       "http://www.w3.org/Graphics/SVG/1.1/DTD/svg11.dtd">
<svg version="1.1" xmlns="http://www.w3.org/2000/svg" xmlns:xlink="http://www.w3.org/1999/xlink" viewBox="0 0 3300 2200">
 <!--glyph: "", point size: 100.0, font version: "20.0d8e1", template writer version: "138.0.0"-->
 <style>.monochrome-0 {-sfsymbols-motion-group:1;-sfsymbols-layer-tags:-26f4d256138bc1cd capsule.fill}
.monochrome-1 {opacity:0.0;-sfsymbols-clear-behind:true;-sfsymbols-motion-group:0;-sfsymbols-always-pulses:true;-sfsymbols-layer-tags:-26f4d256138bc1cd -359118ac16a0adcb sparkles}
.monochrome-2 {opacity:0.0;-sfsymbols-clear-behind:true;-sfsymbols-motion-group:0;-sfsymbols-always-pulses:true;-sfsymbols-layer-tags:-26f4d256138bc1cd -359118ac16a0adcb sparkles}
.monochrome-3 {opacity:0.0;-sfsymbols-clear-behind:true;-sfsymbols-motion-group:0;-sfsymbols-always-pulses:true;-sfsymbols-layer-tags:-26f4d256138bc1cd -359118ac16a0adcb sparkles}

.multicolor-0:tintColor {-sfsymbols-motion-group:1;-sfsymbols-layer-tags:-26f4d256138bc1cd capsule.fill}
.multicolor-1:white {-sfsymbols-motion-group:0;-sfsymbols-always-pulses:true;-sfsymbols-layer-tags:-26f4d256138bc1cd -359118ac16a0adcb sparkles}
.multicolor-2:white {-sfsymbols-motion-group:0;-sfsymbols-always-pulses:true;-sfsymbols-layer-tags:-26f4d256138bc1cd -359118ac16a0adcb sparkles}
.multicolor-3:white {-sfsymbols-motion-group:0;-sfsymbols-always-pulses:true;-sfsymbols-layer-tags:-26f4d256138bc1cd -359118ac16a0adcb sparkles}

.hierarchical-0:tertiary {-sfsymbols-motion-group:1;-sfsymbols-layer-tags:-26f4d256138bc1cd capsule.fill}
.hierarchical-1:primary {-sfsymbols-motion-group:0;-sfsymbols-layer-tags:-26f4d256138bc1cd -359118ac16a0adcb sparkles}
.hierarchical-2:primary {-sfsymbols-motion-group:0;-sfsymbols-layer-tags:-26f4d256138bc1cd -359118ac16a0adcb sparkles}
.hierarchical-3:primary {-sfsymbols-motion-group:0;-sfsymbols-layer-tags:-26f4d256138bc1cd -359118ac16a0adcb sparkles}

.SFSymbolsPreviewWireframe {fill:none;opacity:1.0;stroke:black;stroke-width:0.5}
</style>
 <g id="Notes">
  <rect height="2200" id="artboard" style="fill:white;opacity:1" width="3300" x="0" y="0"/>
  <line style="fill:none;stroke:black;opacity:1;stroke-width:0.5;" x1="263" x2="3036" y1="292" y2="292"/>
  <text style="stroke:none;fill:black;font-family:sans-serif;font-size:13;font-weight:bold;" transform="matrix(1 0 0 1 263 322)">Weight/Scale Variations</text>
  <text style="stroke:none;fill:black;font-family:sans-serif;font-size:13;text-anchor:middle;" transform="matrix(1 0 0 1 559.711 322)">Ultralight</text>
  <text style="stroke:none;fill:black;font-family:sans-serif;font-size:13;text-anchor:middle;" transform="matrix(1 0 0 1 856.422 322)">Thin</text>
  <text style="stroke:none;fill:black;font-family:sans-serif;font-size:13;text-anchor:middle;" transform="matrix(1 0 0 1 1153.13 322)">Light</text>
  <text style="stroke:none;fill:black;font-family:sans-serif;font-size:13;text-anchor:middle;" transform="matrix(1 0 0 1 1449.84 322)">Regular</text>
  <text style="stroke:none;fill:black;font-family:sans-serif;font-size:13;text-anchor:middle;" transform="matrix(1 0 0 1 1746.56 322)">Medium</text>
  <text style="stroke:none;fill:black;font-family:sans-serif;font-size:13;text-anchor:middle;" transform="matrix(1 0 0 1 2043.27 322)">Semibold</text>
  <text style="stroke:none;fill:black;font-family:sans-serif;font-size:13;text-anchor:middle;" transform="matrix(1 0 0 1 2339.98 322)">Bold</text>
  <text style="stroke:none;fill:black;font-family:sans-serif;font-size:13;text-anchor:middle;" transform="matrix(1 0 0 1 2636.69 322)">Heavy</text>
  <text style="stroke:none;fill:black;font-family:sans-serif;font-size:13;text-anchor:middle;" transform="matrix(1 0 0 1 2933.4 322)">Black</text>
  <line style="fill:none;stroke:black;opacity:1;stroke-width:0.5;" x1="263" x2="3036" y1="1903" y2="1903"/>
  <g transform="matrix(0.2 0 0 0.2 263 1933)">
   <path d="m46.2402 4.15039c21.7773 0 39.4531-17.627 39.4531-39.4043s-17.6758-39.4043-39.4531-39.4043c-21.7285 0-39.4043 17.627-39.4043 39.4043s17.6758 39.4043 39.4043 39.4043Zm0-7.42188c-17.6758 0-31.9336-14.3066-31.9336-31.9824s14.2578-31.9824 31.9336-31.9824 31.9824 14.3066 31.9824 31.9824-14.3066 31.9824-31.9824 31.9824Zm-17.9688-31.9824c0 2.14844 1.51367 3.61328 3.75977 3.61328h10.498v10.5957c0 2.19727 1.46484 3.71094 3.61328 3.71094 2.24609 0 3.71094-1.51367 3.71094-3.71094v-10.5957h10.5957c2.19727 0 3.71094-1.46484 3.71094-3.61328 0-2.19727-1.51367-3.71094-3.71094-3.71094h-10.5957v-10.5469c0-2.24609-1.46484-3.75977-3.71094-3.75977-2.14844 0-3.61328 1.51367-3.61328 3.75977v10.5469h-10.498c-2.24609 0-3.75977 1.51367-3.75977 3.71094Z"/>
  </g>
  <g transform="matrix(0.2 0 0 0.2 281.506 1933)">
   <path d="m58.5449 14.5508c27.4902 0 49.8047-22.3145 49.8047-49.8047s-22.3145-49.8047-49.8047-49.8047-49.8047 22.3145-49.8047 49.8047 22.3145 49.8047 49.8047 49.8047Zm0-8.30078c-22.9492 0-41.5039-18.5547-41.5039-41.5039s18.5547-41.5039 41.5039-41.5039 41.5039 18.5547 41.5039 41.5039-18.5547 41.5039-41.5039 41.5039Zm-22.6562-41.5039c0 2.39258 1.66016 4.00391 4.15039 4.00391h14.3555v14.4043c0 2.44141 1.66016 4.15039 4.05273 4.15039 2.44141 0 4.15039-1.66016 4.15039-4.15039v-14.4043h14.4043c2.44141 0 4.15039-1.61133 4.15039-4.00391 0-2.44141-1.70898-4.15039-4.15039-4.15039h-14.4043v-14.3555c0-2.49023-1.70898-4.19922-4.15039-4.19922-2.39258 0-4.05273 1.70898-4.05273 4.19922v14.3555h-14.3555c-2.49023 0-4.15039 1.70898-4.15039 4.15039Z"/>
  </g>
  <g transform="matrix(0.2 0 0 0.2 304.924 1933)">
   <path d="m74.8535 28.3203c35.1074 0 63.623-28.4668 63.623-63.5742s-28.5156-63.623-63.623-63.623-63.5742 28.5156-63.5742 63.623 28.4668 63.5742 63.5742 63.5742Zm0-9.08203c-30.127 0-54.4922-24.3652-54.4922-54.4922s24.3652-54.4922 54.4922-54.4922 54.4922 24.3652 54.4922 54.4922-24.3652 54.4922-54.4922 54.4922Zm-28.8574-54.4922c0 2.58789 1.85547 4.39453 4.58984 4.39453h19.7266v19.7754c0 2.68555 1.85547 4.58984 4.44336 4.58984 2.68555 0 4.54102-1.85547 4.54102-4.58984v-19.7754h19.7754c2.68555 0 4.58984-1.80664 4.58984-4.39453 0-2.73438-1.85547-4.58984-4.58984-4.58984h-19.7754v-19.7266c0-2.73438-1.85547-4.63867-4.54102-4.63867-2.58789 0-4.44336 1.9043-4.44336 4.63867v19.7266h-19.7266c-2.73438 0-4.58984 1.85547-4.58984 4.58984Z"/>
  </g>
  <text style="stroke:none;fill:black;font-family:sans-serif;font-size:13;font-weight:bold;" transform="matrix(1 0 0 1 263 1953)">Design Variations</text>
  <text style="stroke:none;fill:black;font-family:sans-serif;font-size:13;" transform="matrix(1 0 0 1 263 1971)">Symbols are supported in up to nine weights and three scales.</text>
  <text style="stroke:none;fill:black;font-family:sans-serif;font-size:13;" transform="matrix(1 0 0 1 263 1989)">For optimal layout with text and other symbols, vertically align</text>
  <text style="stroke:none;fill:black;font-family:sans-serif;font-size:13;" transform="matrix(1 0 0 1 263 2007)">symbols with the adjacent text.</text>
  <line style="fill:none;stroke:#00AEEF;stroke-width:0.5;opacity:1.0;" x1="776" x2="776" y1="1919" y2="1933"/>
  <g transform="matrix(0.2 0 0 0.2 776 1933)">
   <path d="m16.5527 0.78125c2.58789 0 3.85742-0.976562 4.78516-3.71094l6.29883-17.2363h28.8086l6.29883 17.2363c0.927734 2.73438 2.19727 3.71094 4.73633 3.71094 2.58789 0 4.24805-1.5625 4.24805-4.00391 0-0.830078-0.146484-1.61133-0.537109-2.63672l-22.9004-60.9863c-1.12305-2.97852-3.125-4.49219-6.25-4.49219-3.02734 0-5.07812 1.46484-6.15234 4.44336l-22.9004 61.084c-0.390625 1.02539-0.537109 1.80664-0.537109 2.63672 0 2.44141 1.5625 3.95508 4.10156 3.95508Zm13.4766-28.3691 11.8652-32.8613h0.244141l11.8652 32.8613Z"/>
  </g>
  <line style="fill:none;stroke:#00AEEF;stroke-width:0.5;opacity:1.0;" x1="792.836" x2="792.836" y1="1919" y2="1933"/>
  <text style="stroke:none;fill:black;font-family:sans-serif;font-size:13;font-weight:bold;" transform="matrix(1 0 0 1 776 1953)">Margins</text>
  <text style="stroke:none;fill:black;font-family:sans-serif;font-size:13;" transform="matrix(1 0 0 1 776 1971)">Leading and trailing margins on the left and right side of each symbol</text>
  <text style="stroke:none;fill:black;font-family:sans-serif;font-size:13;" transform="matrix(1 0 0 1 776 1989)">can be adjusted by modifying the x-location of the margin guidelines.</text>
  <text style="stroke:none;fill:black;font-family:sans-serif;font-size:13;" transform="matrix(1 0 0 1 776 2007)">Modifications are automatically applied proportionally to all</text>
  <text style="stroke:none;fill:black;font-family:sans-serif;font-size:13;" transform="matrix(1 0 0 1 776 2025)">scales and weights.</text>
  <g transform="matrix(0.2 0 0 0.2 1289 1933)">
   <path d="m14.209 9.32617 8.49609 8.54492c4.29688 4.3457 9.22852 4.05273 13.8672-1.07422l53.4668-58.9355-4.83398-4.88281-53.0762 58.3984c-1.75781 2.00195-3.41797 2.49023-5.76172 0.146484l-5.85938-5.81055c-2.34375-2.29492-1.80664-4.00391 0.195312-5.81055l57.373-54.0039-4.88281-4.83398-57.959 54.4434c-4.93164 4.58984-5.32227 9.47266-1.02539 13.8184Zm32.0801-90.9668c-2.09961 2.05078-2.24609 4.93164-1.07422 6.88477 1.17188 1.80664 3.4668 2.97852 6.68945 2.14844 7.32422-1.70898 14.9414-2.00195 22.0703 2.68555l-2.92969 7.27539c-1.70898 4.15039-0.830078 7.08008 1.85547 9.81445l11.4746 11.5723c2.44141 2.44141 4.49219 2.53906 7.32422 2.05078l5.32227-0.976562 3.32031 3.36914-0.195312 2.7832c-0.195312 2.49023 0.439453 4.39453 2.88086 6.78711l3.80859 3.71094c2.39258 2.39258 5.46875 2.53906 7.8125 0.195312l14.5508-14.5996c2.34375-2.34375 2.24609-5.32227-0.146484-7.71484l-3.85742-3.80859c-2.39258-2.39258-4.24805-3.17383-6.64062-2.97852l-2.88086 0.244141-3.22266-3.17383 1.2207-5.61523c0.634766-2.83203-0.146484-5.0293-3.07617-7.95898l-10.9863-10.9375c-16.6992-16.6016-38.8672-16.2109-53.3203-1.75781Zm7.4707 1.85547c12.1582-8.88672 28.6133-7.37305 39.7461 3.75977l12.1582 12.0605c1.17188 1.17188 1.36719 2.09961 1.02539 3.80859l-1.61133 7.42188 7.51953 7.42188 4.93164-0.292969c1.26953-0.0488281 1.66016 0.0488281 2.63672 1.02539l2.88086 2.88086-12.207 12.207-2.88086-2.88086c-0.976562-0.976562-1.12305-1.36719-1.07422-2.68555l0.341797-4.88281-7.4707-7.42188-7.61719 1.26953c-1.61133 0.341797-2.34375 0.195312-3.56445-0.976562l-10.0098-10.0098c-1.26953-1.17188-1.41602-2.00195-0.634766-3.85742l4.39453-10.4492c-7.8125-7.27539-17.9688-10.4004-28.125-7.42188-0.78125 0.195312-1.07422-0.439453-0.439453-0.976562Z"/>
  </g>
  <text style="stroke:none;fill:black;font-family:sans-serif;font-size:13;font-weight:bold;" transform="matrix(1 0 0 1 1289 1953)">Exporting</text>
  <text style="stroke:none;fill:black;font-family:sans-serif;font-size:13;" transform="matrix(1 0 0 1 1289 1971)">Symbols should be outlined when exporting to ensure the</text>
  <text style="stroke:none;fill:black;font-family:sans-serif;font-size:13;" transform="matrix(1 0 0 1 1289 1989)">design is preserved when submitting to Xcode.</text>
  <text id="template-version" style="stroke:none;fill:black;font-family:sans-serif;font-size:13;text-anchor:end;" transform="matrix(1 0 0 1 3036 1933)">Template v.6.0</text>
  <text style="stroke:none;fill:black;font-family:sans-serif;font-size:13;text-anchor:end;" transform="matrix(1 0 0 1 3036 1951)">Requires Xcode 16 or greater</text>
  <text id="descriptive-name" style="stroke:none;fill:black;font-family:sans-serif;font-size:13;text-anchor:end;" transform="matrix(1 0 0 1 3036 1969)">Generated from capsule.fill</text>
  <text style="stroke:none;fill:black;font-family:sans-serif;font-size:13;text-anchor:end;" transform="matrix(1 0 0 1 3036 1987)">Typeset at 100.0 points</text>
  <text style="stroke:none;fill:black;font-family:sans-serif;font-size:13;" transform="matrix(1 0 0 1 263 726)">Small</text>
  <text style="stroke:none;fill:black;font-family:sans-serif;font-size:13;" transform="matrix(1 0 0 1 263 1156)">Medium</text>
  <text style="stroke:none;fill:black;font-family:sans-serif;font-size:13;" transform="matrix(1 0 0 1 263 1586)">Large</text>
 </g>
 <g id="Guides">
  <g id="H-reference" style="fill:#27AAE1;stroke:none;" transform="matrix(1 0 0 1 339 696)">
   <path d="M0.993654 0L3.63775 0L29.3281-67.1323L30.0303-67.1323L30.0303-70.459L28.1226-70.459ZM11.6885-24.4799L46.9815-24.4799L46.2315-26.7285L12.4385-26.7285ZM55.1196 0L57.7637 0L30.6382-70.459L29.4326-70.459L29.4326-67.1323Z"/>
  </g>
  <line id="Baseline-S" style="fill:none;stroke:#27AAE1;opacity:1;stroke-width:0.5;" x1="263" x2="3036" y1="696" y2="696"/>
  <line id="Capline-S" style="fill:none;stroke:#27AAE1;opacity:1;stroke-width:0.5;" x1="263" x2="3036" y1="625.541" y2="625.541"/>
  <g id="H-reference" style="fill:#27AAE1;stroke:none;" transform="matrix(1 0 0 1 339 1126)">
   <path d="M0.993654 0L3.63775 0L29.3281-67.1323L30.0303-67.1323L30.0303-70.459L28.1226-70.459ZM11.6885-24.4799L46.9815-24.4799L46.2315-26.7285L12.4385-26.7285ZM55.1196 0L57.7637 0L30.6382-70.459L29.4326-70.459L29.4326-67.1323Z"/>
  </g>
  <line id="Baseline-M" style="fill:none;stroke:#27AAE1;opacity:1;stroke-width:0.5;" x1="263" x2="3036" y1="1126" y2="1126"/>
  <line id="Capline-M" style="fill:none;stroke:#27AAE1;opacity:1;stroke-width:0.5;" x1="263" x2="3036" y1="1055.54" y2="1055.54"/>
  <g id="H-reference" style="fill:#27AAE1;stroke:none;" transform="matrix(1 0 0 1 339 1556)">
   <path d="M0.993654 0L3.63775 0L29.3281-67.1323L30.0303-67.1323L30.0303-70.459L28.1226-70.459ZM11.6885-24.4799L46.9815-24.4799L46.2315-26.7285L12.4385-26.7285ZM55.1196 0L57.7637 0L30.6382-70.459L29.4326-70.459L29.4326-67.1323Z"/>
  </g>
  <line id="Baseline-L" style="fill:none;stroke:#27AAE1;opacity:1;stroke-width:0.5;" x1="263" x2="3036" y1="1556" y2="1556"/>
  <line id="Capline-L" style="fill:none;stroke:#27AAE1;opacity:1;stroke-width:0.5;" x1="263" x2="3036" y1="1485.54" y2="1485.54"/>
  <line id="right-margin-Black-S" style="fill:none;stroke:#00AEEF;stroke-width:0.5;opacity:1.0;" x1="2992.53" x2="2992.53" y1="600.785" y2="720.121"/>
  <line id="left-margin-Black-S" style="fill:none;stroke:#00AEEF;stroke-width:0.5;opacity:1.0;" x1="2874.27" x2="2874.27" y1="600.785" y2="720.121"/>
  <line id="right-margin-Regular-S" style="fill:none;stroke:#00AEEF;stroke-width:0.5;opacity:1.0;" x1="1506.29" x2="1506.29" y1="600.785" y2="720.121"/>
  <line id="left-margin-Regular-S" style="fill:none;stroke:#00AEEF;stroke-width:0.5;opacity:1.0;" x1="1393.4" x2="1393.4" y1="600.785" y2="720.121"/>
  <line id="right-margin-Ultralight-S" style="fill:none;stroke:#00AEEF;stroke-width:0.5;opacity:1.0;" x1="613.455" x2="613.455" y1="600.785" y2="720.121"/>
  <line id="left-margin-Ultralight-S" style="fill:none;stroke:#00AEEF;stroke-width:0.5;opacity:1.0;" x1="505.968" x2="505.968" y1="600.785" y2="720.121"/>
 </g>
 <g id="Symbols">
  <g id="Black-S" transform="matrix(1 0 0 1 2874.27 696)">
   <path class="monochrome-0 multicolor-0:tintColor hierarchical-0:tertiary SFSymbolsPreviewWireframe" d="M6.83594-35.2539C6.83594-11.9629 22.7051 3.56445 46.4844 3.56445L71.7773 3.56445C95.5566 3.56445 111.426-11.9629 111.426-35.2539C111.426-58.5449 95.5566-74.0723 71.7773-74.0723L46.4844-74.0723C22.7051-74.0723 6.83594-58.5449 6.83594-35.2539Z"/>
   <path class="monochrome-1 multicolor-1:white hierarchical-1:primary SFSymbolsPreviewWireframe" d="M56.955-49.0964C57.3512-49.0964 57.6483-49.3921 57.7002-49.7624C58.1412-52.7714 58.1152-52.6642 61.3247-53.358C61.7195-53.4387 61.9892-53.7039 61.9892-54.1032C61.9892-54.5025 61.6906-54.7967 61.2958-54.8485C58.1152-55.2819 58.1122-55.2327 57.7002-58.4152C57.6483-58.8129 57.3512-59.1085 56.955-59.1085C56.5571-59.1085 56.257-58.8129 56.2052-58.3863C55.8525-55.4351 55.819-55.5423 52.5837-54.8485C52.1859-54.7677 51.9162-54.5025 51.9162-54.1032C51.9162-53.7039 52.1859-53.4387 52.6704-53.358C55.7612-52.8088 55.7946-52.887 56.2052-49.7913C56.257-49.3921 56.5571-49.0964 56.955-49.0964Z"/>
   <path class="monochrome-2 multicolor-2:white hierarchical-2:primary SFSymbolsPreviewWireframe" d="M47.5935-34.4399C48.2197-34.4399 48.7407-34.9061 48.8214-35.5323C49.4277-40.3395 49.4551-40.4778 54.7041-41.3556C55.3318-41.4653 55.7645-41.9604 55.7645-42.5835C55.7645-43.2052 55.3029-43.7322 54.6752-43.813C49.5419-44.4484 49.4292-44.5762 48.8214-49.6088C48.7407-50.2595 48.2486-50.7256 47.5935-50.7256C46.9399-50.7256 46.4478-50.2595 46.3671-49.5814C45.8142-44.8 45.7289-44.6922 40.4844-43.813C39.8567-43.7048 39.424-43.2052 39.424-42.5835C39.424-41.9329 39.8567-41.4653 40.623-41.3556C45.6681-40.6668 45.8142-40.4263 46.3671-35.5871C46.4478-34.9061 46.9399-34.4399 47.5935-34.4399Z"/>
   <path class="monochrome-3 multicolor-3:white hierarchical-3:primary SFSymbolsPreviewWireframe" d="M62.4344-12.9815C63.6044-12.9815 64.5383-13.8286 64.7317-15.0336C66.2218-24.5668 67.5811-25.9837 76.7088-27.0654C77.9381-27.204 78.843-28.1942 78.843-29.3977C78.843-30.5708 77.9671-31.5365 76.7377-31.7315C67.639-33.1314 66.5689-34.2316 64.7317-43.7618C64.5094-44.9683 63.5755-45.8154 62.4344-45.8154C61.2658-45.8154 60.332-44.9683 60.1371-43.7618C58.6485-34.2316 57.2892-32.8132 48.1615-31.7315C46.9321-31.5943 46.0257-30.5997 46.0257-29.3977C46.0257-28.2231 46.9032-27.2619 48.1326-27.0654C57.2388-25.7242 58.3255-24.5698 60.1371-15.0336C60.3609-13.8286 61.2947-12.9815 62.4344-12.9815Z"/>
  </g>
  <g id="Regular-S" transform="matrix(1 0 0 1 1393.4 696)">
   <path class="monochrome-0 multicolor-0:tintColor hierarchical-0:tertiary SFSymbolsPreviewWireframe" d="M6.83594-35.2539C6.83594-12.8906 22.5098 1.9043 46.0938 1.9043L66.7969 1.9043C90.332 1.9043 106.055-12.8906 106.055-35.2539C106.055-57.6172 90.332-72.4121 66.7969-72.4121L46.0938-72.4121C22.5098-72.4121 6.83594-57.6172 6.83594-35.2539Z"/>
   <path class="monochrome-1 multicolor-1:white hierarchical-1:primary SFSymbolsPreviewWireframe" d="M54.8853-49.2978C55.2088-49.2978 55.4192-49.5221 55.4697-49.8057C56.0129-52.9002 55.973-52.8753 59.2145-53.5384C59.5225-53.601 59.7363-53.7976 59.7363-54.1228C59.7363-54.448 59.5104-54.6568 59.2023-54.7072C55.973-55.2611 56.0008-55.2605 55.4697-58.4278C55.4192-58.7375 55.2088-58.9618 54.8853-58.9618C54.5756-58.9618 54.3635-58.7375 54.3131-58.4157C53.7923-55.3455 53.8219-55.3703 50.5699-54.7072C50.2602-54.6447 50.0465-54.448 50.0465-54.1228C50.0465-53.7976 50.2602-53.601 50.6063-53.5384C53.7976-52.9359 53.768-52.9487 54.3131-49.8178C54.3635-49.5221 54.5756-49.2978 54.8853-49.2978Z"/>
   <path class="monochrome-2 multicolor-2:white hierarchical-2:primary SFSymbolsPreviewWireframe" d="M45.65-35.4455C46.1434-35.4455 46.5204-35.7999 46.5829-36.2933C47.217-41.2712 47.3608-41.3467 52.6393-42.3098C53.1188-42.3845 53.4732-42.751 53.4732-43.2427C53.4732-43.7484 53.1066-44.1286 52.6271-44.1912C47.3972-44.8488 47.2031-45.051 46.5829-50.1817C46.5204-50.6995 46.1555-51.0539 45.65-51.0539C45.1306-51.0539 44.7657-50.6995 44.7032-50.1556C44.1351-45.1882 43.8787-45.1404 38.6468-44.1912C38.1673-44.1026 37.8129-43.7484 37.8129-43.2427C37.8129-42.7249 38.1673-42.3845 38.7631-42.3098C43.8823-41.5567 44.1351-41.3371 44.7032-36.3453C44.7657-35.7999 45.1306-35.4455 45.65-35.4455Z"/>
   <path class="monochrome-3 multicolor-3:white hierarchical-3:primary SFSymbolsPreviewWireframe" d="M59.4008-14.2366C60.1917-14.2366 60.8276-14.8066 60.9665-15.6424C62.4191-25.5259 63.9032-27.17 73.5939-28.3219C74.4541-28.4087 75.0779-29.0828 75.0779-29.903C75.0779-30.725 74.4663-31.3747 73.6061-31.4997C63.9275-32.785 62.5646-34.2818 60.9665-44.1636C60.8155-45.0149 60.1796-45.585 59.4008-45.585C58.5959-45.585 57.9601-45.0149 57.8351-44.1636C56.3686-34.2818 54.8845-32.6515 45.1937-31.4997C44.3336-31.3989 43.7237-30.7371 43.7237-29.903C43.7237-29.0949 44.3214-28.433 45.1816-28.3219C54.8495-26.9652 56.2066-25.5275 57.8351-15.6424C57.9722-14.8066 58.608-14.2366 59.4008-14.2366Z"/>
  </g>
  <g id="Ultralight-S" transform="matrix(1 0 0 1 505.968 696)">
   <path class="monochrome-0 multicolor-0:tintColor hierarchical-0:tertiary SFSymbolsPreviewWireframe" d="M6.83594-35.2539C6.83594-14.0713 20.2393-0.820291 40.9624-0.820291L66.5698-0.820291C87.2896-0.820291 100.651-14.0713 100.651-35.2539C100.651-56.4365 87.2896-69.6875 66.5698-69.6875L40.9624-69.6875C20.2393-69.6875 6.83594-56.4365 6.83594-35.2539Z"/>
   <path class="monochrome-1 multicolor-1:white hierarchical-1:primary SFSymbolsPreviewWireframe" d="M52.6896-49.6234C52.9006-49.6234 53.0183-49.7511 53.0528-49.942C53.5048-52.9332 53.4847-53.313 56.9145-53.8038C57.1299-53.8383 57.2432-53.9704 57.2432-54.167C57.2432-54.3636 57.1299-54.4957 56.9145-54.5301C53.4847-55.021 53.5048-55.4008 53.0528-58.3919C53.0183-58.5928 52.9006-58.7206 52.6896-58.7206C52.4886-58.7206 52.3853-58.5928 52.3509-58.3919C51.8888-55.4008 51.9189-55.021 48.4747-54.5301C48.2738-54.4957 48.1604-54.3636 48.1604-54.167C48.1604-53.9704 48.2738-53.8383 48.4747-53.8038C51.9189-53.313 51.8888-52.9332 52.3509-49.942C52.3853-49.7511 52.4886-49.6234 52.6896-49.6234Z"/>
   <path class="monochrome-2 multicolor-2:white hierarchical-2:primary SFSymbolsPreviewWireframe" d="M43.2753-36.6975C43.5076-36.6975 43.6755-36.8509 43.7099-37.0833C44.4842-42.2146 44.5169-42.1095 49.7715-43.1493C49.9939-43.1837 50.1717-43.3371 50.1717-43.5839C50.1717-43.8406 49.9939-43.9797 49.7715-44.0141C44.5169-44.9279 44.4742-44.8987 43.7099-50.0701C43.6755-50.3268 43.5076-50.4802 43.2753-50.4802C43.0329-50.4802 42.8651-50.3268 42.8307-50.06C42.0864-44.9431 42.0368-45.0439 36.7691-44.0141C36.5467-43.9696 36.3689-43.8406 36.3689-43.5839C36.3689-43.3271 36.5467-43.1837 36.8092-43.1493C42.0569-42.1997 42.0864-42.2202 42.8307-37.1033C42.8651-36.8509 43.0329-36.6975 43.2753-36.6975Z"/>
   <path class="monochrome-3 multicolor-3:white hierarchical-3:primary SFSymbolsPreviewWireframe" d="M56.2536-15.2784C56.6655-15.2784 56.951-15.5583 57.0055-15.9471C58.2057-27.1495 59.4948-28.3274 70.4181-29.3798C70.8313-29.4142 71.1169-29.7097 71.1169-30.103C71.1169-30.5062 70.8313-30.7773 70.4181-30.8218C59.4948-31.8741 58.2057-33.0419 57.0055-44.2587C56.951-44.6432 56.6655-44.9231 56.2536-44.9231C55.8316-44.9231 55.5461-44.6432 55.5016-44.2587C54.2914-33.0419 53.0023-31.8741 42.079-30.8218C41.6658-30.7773 41.3903-30.5062 41.3903-30.103C41.3903-29.7097 41.6658-29.4142 42.079-29.3798C52.9635-28.0269 54.1706-27.1352 55.5016-15.9471C55.5461-15.5583 55.8316-15.2784 56.2536-15.2784Z"/>
  </g>
 </g>
</svg>
