<?xml version="1.0" encoding="UTF-8"?>
<!--Generator: Apple Native CoreSVG 338-->
<!DOCTYPE svg
PUBLIC "-//W3C//DTD SVG 1.1//EN"
       "http://www.w3.org/Graphics/SVG/1.1/DTD/svg11.dtd">
<svg version="1.1" xmlns="http://www.w3.org/2000/svg" xmlns:xlink="http://www.w3.org/1999/xlink" viewBox="0 0 3300 2200">
 <!--glyph: "", point size: 100.0, font version: "20.0d8e1", template writer version: "138.0.0"-->
 <style>.monochrome-0 {-sfsymbols-motion-group:1;-sfsymbols-indices:0 1;-sfsymbols-layer-tags:7953a03bacc57ccc triangle}
.monochrome-1 {-sfsymbols-motion-group:0;-sfsymbols-always-pulses:true;-sfsymbols-layer-tags:7953a03bacc57ccc}

.multicolor-0:tintColor {-sfsymbols-motion-group:1;-sfsymbols-indices:0 1;-sfsymbols-layer-tags:7953a03bacc57ccc triangle}
.multicolor-1:tintColor {-sfsymbols-motion-group:0;-sfsymbols-always-pulses:true;-sfsymbols-layer-tags:7953a03bacc57ccc}

.hierarchical-0:secondary {-sfsymbols-motion-group:1;-sfsymbols-indices:0 1;-sfsymbols-layer-tags:7953a03bacc57ccc triangle}
.hierarchical-1:primary {-sfsymbols-motion-group:0;-sfsymbols-layer-tags:7953a03bacc57ccc}

.shapeGroupLayer-0 {-sfsymbols-fill-action:draw;-sfsymbols-indices:2}

.SFSymbolsPreviewWireframe {fill:none;opacity:1.0;stroke:black;stroke-width:0.5}
</style>
 <g id="Notes">
  <rect height="2200" id="artboard" style="fill:white;opacity:1" width="3300" x="0" y="0"/>
  <line style="fill:none;stroke:black;opacity:1;stroke-width:0.5;" x1="263" x2="3036" y1="292" y2="292"/>
  <text style="stroke:none;fill:black;font-family:sans-serif;font-size:13;font-weight:bold;" transform="matrix(1 0 0 1 263 322)">Weight/Scale Variations</text>
  <text style="stroke:none;fill:black;font-family:sans-serif;font-size:13;text-anchor:middle;" transform="matrix(1 0 0 1 559.711 322)">Ultralight</text>
  <text style="stroke:none;fill:black;font-family:sans-serif;font-size:13;text-anchor:middle;" transform="matrix(1 0 0 1 856.422 322)">Thin</text>
  <text style="stroke:none;fill:black;font-family:sans-serif;font-size:13;text-anchor:middle;" transform="matrix(1 0 0 1 1153.13 322)">Light</text>
  <text style="stroke:none;fill:black;font-family:sans-serif;font-size:13;text-anchor:middle;" transform="matrix(1 0 0 1 1449.84 322)">Regular</text>
  <text style="stroke:none;fill:black;font-family:sans-serif;font-size:13;text-anchor:middle;" transform="matrix(1 0 0 1 1746.56 322)">Medium</text>
  <text style="stroke:none;fill:black;font-family:sans-serif;font-size:13;text-anchor:middle;" transform="matrix(1 0 0 1 2043.27 322)">Semibold</text>
  <text style="stroke:none;fill:black;font-family:sans-serif;font-size:13;text-anchor:middle;" transform="matrix(1 0 0 1 2339.98 322)">Bold</text>
  <text style="stroke:none;fill:black;font-family:sans-serif;font-size:13;text-anchor:middle;" transform="matrix(1 0 0 1 2636.69 322)">Heavy</text>
  <text style="stroke:none;fill:black;font-family:sans-serif;font-size:13;text-anchor:middle;" transform="matrix(1 0 0 1 2933.4 322)">Black</text>
  <line style="fill:none;stroke:black;opacity:1;stroke-width:0.5;" x1="263" x2="3036" y1="1903" y2="1903"/>
  <g transform="matrix(0.2 0 0 0.2 263 1933)">
   <path d="m46.2402 4.15039c21.7773 0 39.4531-17.627 39.4531-39.4043s-17.6758-39.4043-39.4531-39.4043c-21.7285 0-39.4043 17.627-39.4043 39.4043s17.6758 39.4043 39.4043 39.4043Zm0-7.42188c-17.6758 0-31.9336-14.3066-31.9336-31.9824s14.2578-31.9824 31.9336-31.9824 31.9824 14.3066 31.9824 31.9824-14.3066 31.9824-31.9824 31.9824Zm-17.9688-31.9824c0 2.14844 1.51367 3.61328 3.75977 3.61328h10.498v10.5957c0 2.19727 1.46484 3.71094 3.61328 3.71094 2.24609 0 3.71094-1.51367 3.71094-3.71094v-10.5957h10.5957c2.19727 0 3.71094-1.46484 3.71094-3.61328 0-2.19727-1.51367-3.71094-3.71094-3.71094h-10.5957v-10.5469c0-2.24609-1.46484-3.75977-3.71094-3.75977-2.14844 0-3.61328 1.51367-3.61328 3.75977v10.5469h-10.498c-2.24609 0-3.75977 1.51367-3.75977 3.71094Z"/>
  </g>
  <g transform="matrix(0.2 0 0 0.2 281.506 1933)">
   <path d="m58.5449 14.5508c27.4902 0 49.8047-22.3145 49.8047-49.8047s-22.3145-49.8047-49.8047-49.8047-49.8047 22.3145-49.8047 49.8047 22.3145 49.8047 49.8047 49.8047Zm0-8.30078c-22.9492 0-41.5039-18.5547-41.5039-41.5039s18.5547-41.5039 41.5039-41.5039 41.5039 18.5547 41.5039 41.5039-18.5547 41.5039-41.5039 41.5039Zm-22.6562-41.5039c0 2.39258 1.66016 4.00391 4.15039 4.00391h14.3555v14.4043c0 2.44141 1.66016 4.15039 4.05273 4.15039 2.44141 0 4.15039-1.66016 4.15039-4.15039v-14.4043h14.4043c2.44141 0 4.15039-1.61133 4.15039-4.00391 0-2.44141-1.70898-4.15039-4.15039-4.15039h-14.4043v-14.3555c0-2.49023-1.70898-4.19922-4.15039-4.19922-2.39258 0-4.05273 1.70898-4.05273 4.19922v14.3555h-14.3555c-2.49023 0-4.15039 1.70898-4.15039 4.15039Z"/>
  </g>
  <g transform="matrix(0.2 0 0 0.2 304.924 1933)">
   <path d="m74.8535 28.3203c35.1074 0 63.623-28.4668 63.623-63.5742s-28.5156-63.623-63.623-63.623-63.5742 28.5156-63.5742 63.623 28.4668 63.5742 63.5742 63.5742Zm0-9.08203c-30.127 0-54.4922-24.3652-54.4922-54.4922s24.3652-54.4922 54.4922-54.4922 54.4922 24.3652 54.4922 54.4922-24.3652 54.4922-54.4922 54.4922Zm-28.8574-54.4922c0 2.58789 1.85547 4.39453 4.58984 4.39453h19.7266v19.7754c0 2.68555 1.85547 4.58984 4.44336 4.58984 2.68555 0 4.54102-1.85547 4.54102-4.58984v-19.7754h19.7754c2.68555 0 4.58984-1.80664 4.58984-4.39453 0-2.73438-1.85547-4.58984-4.58984-4.58984h-19.7754v-19.7266c0-2.73438-1.85547-4.63867-4.54102-4.63867-2.58789 0-4.44336 1.9043-4.44336 4.63867v19.7266h-19.7266c-2.73438 0-4.58984 1.85547-4.58984 4.58984Z"/>
  </g>
  <text style="stroke:none;fill:black;font-family:sans-serif;font-size:13;font-weight:bold;" transform="matrix(1 0 0 1 263 1953)">Design Variations</text>
  <text style="stroke:none;fill:black;font-family:sans-serif;font-size:13;" transform="matrix(1 0 0 1 263 1971)">Symbols are supported in up to nine weights and three scales.</text>
  <text style="stroke:none;fill:black;font-family:sans-serif;font-size:13;" transform="matrix(1 0 0 1 263 1989)">For optimal layout with text and other symbols, vertically align</text>
  <text style="stroke:none;fill:black;font-family:sans-serif;font-size:13;" transform="matrix(1 0 0 1 263 2007)">symbols with the adjacent text.</text>
  <line style="fill:none;stroke:#00AEEF;stroke-width:0.5;opacity:1.0;" x1="776" x2="776" y1="1919" y2="1933"/>
  <g transform="matrix(0.2 0 0 0.2 776 1933)">
   <path d="m16.5527 0.78125c2.58789 0 3.85742-0.976562 4.78516-3.71094l6.29883-17.2363h28.8086l6.29883 17.2363c0.927734 2.73438 2.19727 3.71094 4.73633 3.71094 2.58789 0 4.24805-1.5625 4.24805-4.00391 0-0.830078-0.146484-1.61133-0.537109-2.63672l-22.9004-60.9863c-1.12305-2.97852-3.125-4.49219-6.25-4.49219-3.02734 0-5.07812 1.46484-6.15234 4.44336l-22.9004 61.084c-0.390625 1.02539-0.537109 1.80664-0.537109 2.63672 0 2.44141 1.5625 3.95508 4.10156 3.95508Zm13.4766-28.3691 11.8652-32.8613h0.244141l11.8652 32.8613Z"/>
  </g>
  <line style="fill:none;stroke:#00AEEF;stroke-width:0.5;opacity:1.0;" x1="792.836" x2="792.836" y1="1919" y2="1933"/>
  <text style="stroke:none;fill:black;font-family:sans-serif;font-size:13;font-weight:bold;" transform="matrix(1 0 0 1 776 1953)">Margins</text>
  <text style="stroke:none;fill:black;font-family:sans-serif;font-size:13;" transform="matrix(1 0 0 1 776 1971)">Leading and trailing margins on the left and right side of each symbol</text>
  <text style="stroke:none;fill:black;font-family:sans-serif;font-size:13;" transform="matrix(1 0 0 1 776 1989)">can be adjusted by modifying the x-location of the margin guidelines.</text>
  <text style="stroke:none;fill:black;font-family:sans-serif;font-size:13;" transform="matrix(1 0 0 1 776 2007)">Modifications are automatically applied proportionally to all</text>
  <text style="stroke:none;fill:black;font-family:sans-serif;font-size:13;" transform="matrix(1 0 0 1 776 2025)">scales and weights.</text>
  <g transform="matrix(0.2 0 0 0.2 1289 1933)">
   <path d="m14.209 9.32617 8.49609 8.54492c4.29688 4.3457 9.22852 4.05273 13.8672-1.07422l53.4668-58.9355-4.83398-4.88281-53.0762 58.3984c-1.75781 2.00195-3.41797 2.49023-5.76172 0.146484l-5.85938-5.81055c-2.34375-2.29492-1.80664-4.00391 0.195312-5.81055l57.373-54.0039-4.88281-4.83398-57.959 54.4434c-4.93164 4.58984-5.32227 9.47266-1.02539 13.8184Zm32.0801-90.9668c-2.09961 2.05078-2.24609 4.93164-1.07422 6.88477 1.17188 1.80664 3.4668 2.97852 6.68945 2.14844 7.32422-1.70898 14.9414-2.00195 22.0703 2.68555l-2.92969 7.27539c-1.70898 4.15039-0.830078 7.08008 1.85547 9.81445l11.4746 11.5723c2.44141 2.44141 4.49219 2.53906 7.32422 2.05078l5.32227-0.976562 3.32031 3.36914-0.195312 2.7832c-0.195312 2.49023 0.439453 4.39453 2.88086 6.78711l3.80859 3.71094c2.39258 2.39258 5.46875 2.53906 7.8125 0.195312l14.5508-14.5996c2.34375-2.34375 2.24609-5.32227-0.146484-7.71484l-3.85742-3.80859c-2.39258-2.39258-4.24805-3.17383-6.64062-2.97852l-2.88086 0.244141-3.22266-3.17383 1.2207-5.61523c0.634766-2.83203-0.146484-5.0293-3.07617-7.95898l-10.9863-10.9375c-16.6992-16.6016-38.8672-16.2109-53.3203-1.75781Zm7.4707 1.85547c12.1582-8.88672 28.6133-7.37305 39.7461 3.75977l12.1582 12.0605c1.17188 1.17188 1.36719 2.09961 1.02539 3.80859l-1.61133 7.42188 7.51953 7.42188 4.93164-0.292969c1.26953-0.0488281 1.66016 0.0488281 2.63672 1.02539l2.88086 2.88086-12.207 12.207-2.88086-2.88086c-0.976562-0.976562-1.12305-1.36719-1.07422-2.68555l0.341797-4.88281-7.4707-7.42188-7.61719 1.26953c-1.61133 0.341797-2.34375 0.195312-3.56445-0.976562l-10.0098-10.0098c-1.26953-1.17188-1.41602-2.00195-0.634766-3.85742l4.39453-10.4492c-7.8125-7.27539-17.9688-10.4004-28.125-7.42188-0.78125 0.195312-1.07422-0.439453-0.439453-0.976562Z"/>
  </g>
  <text style="stroke:none;fill:black;font-family:sans-serif;font-size:13;font-weight:bold;" transform="matrix(1 0 0 1 1289 1953)">Exporting</text>
  <text style="stroke:none;fill:black;font-family:sans-serif;font-size:13;" transform="matrix(1 0 0 1 1289 1971)">Symbols should be outlined when exporting to ensure the</text>
  <text style="stroke:none;fill:black;font-family:sans-serif;font-size:13;" transform="matrix(1 0 0 1 1289 1989)">design is preserved when submitting to Xcode.</text>
  <text id="template-version" style="stroke:none;fill:black;font-family:sans-serif;font-size:13;text-anchor:end;" transform="matrix(1 0 0 1 3036 1933)">Template v.6.0</text>
  <text style="stroke:none;fill:black;font-family:sans-serif;font-size:13;text-anchor:end;" transform="matrix(1 0 0 1 3036 1951)">Requires Xcode 16 or greater</text>
  <text id="descriptive-name" style="stroke:none;fill:black;font-family:sans-serif;font-size:13;text-anchor:end;" transform="matrix(1 0 0 1 3036 1969)">Generated from triangle</text>
  <text style="stroke:none;fill:black;font-family:sans-serif;font-size:13;text-anchor:end;" transform="matrix(1 0 0 1 3036 1987)">Typeset at 100.0 points</text>
  <text style="stroke:none;fill:black;font-family:sans-serif;font-size:13;" transform="matrix(1 0 0 1 263 726)">Small</text>
  <text style="stroke:none;fill:black;font-family:sans-serif;font-size:13;" transform="matrix(1 0 0 1 263 1156)">Medium</text>
  <text style="stroke:none;fill:black;font-family:sans-serif;font-size:13;" transform="matrix(1 0 0 1 263 1586)">Large</text>
 </g>
 <g id="Guides">
  <g id="H-reference" style="fill:#27AAE1;stroke:none;" transform="matrix(1 0 0 1 339 696)">
   <path d="M0.993654 0L3.63775 0L29.3281-67.1323L30.0303-67.1323L30.0303-70.459L28.1226-70.459ZM11.6885-24.4799L46.9815-24.4799L46.2315-26.7285L12.4385-26.7285ZM55.1196 0L57.7637 0L30.6382-70.459L29.4326-70.459L29.4326-67.1323Z"/>
  </g>
  <line id="Baseline-S" style="fill:none;stroke:#27AAE1;opacity:1;stroke-width:0.5;" x1="263" x2="3036" y1="696" y2="696"/>
  <line id="Capline-S" style="fill:none;stroke:#27AAE1;opacity:1;stroke-width:0.5;" x1="263" x2="3036" y1="625.541" y2="625.541"/>
  <g id="H-reference" style="fill:#27AAE1;stroke:none;" transform="matrix(1 0 0 1 339 1126)">
   <path d="M0.993654 0L3.63775 0L29.3281-67.1323L30.0303-67.1323L30.0303-70.459L28.1226-70.459ZM11.6885-24.4799L46.9815-24.4799L46.2315-26.7285L12.4385-26.7285ZM55.1196 0L57.7637 0L30.6382-70.459L29.4326-70.459L29.4326-67.1323Z"/>
  </g>
  <line id="Baseline-M" style="fill:none;stroke:#27AAE1;opacity:1;stroke-width:0.5;" x1="263" x2="3036" y1="1126" y2="1126"/>
  <line id="Capline-M" style="fill:none;stroke:#27AAE1;opacity:1;stroke-width:0.5;" x1="263" x2="3036" y1="1055.54" y2="1055.54"/>
  <g id="H-reference" style="fill:#27AAE1;stroke:none;" transform="matrix(1 0 0 1 339 1556)">
   <path d="M0.993654 0L3.63775 0L29.3281-67.1323L30.0303-67.1323L30.0303-70.459L28.1226-70.459ZM11.6885-24.4799L46.9815-24.4799L46.2315-26.7285L12.4385-26.7285ZM55.1196 0L57.7637 0L30.6382-70.459L29.4326-70.459L29.4326-67.1323Z"/>
  </g>
  <line id="Baseline-L" style="fill:none;stroke:#27AAE1;opacity:1;stroke-width:0.5;" x1="263" x2="3036" y1="1556" y2="1556"/>
  <line id="Capline-L" style="fill:none;stroke:#27AAE1;opacity:1;stroke-width:0.5;" x1="263" x2="3036" y1="1485.54" y2="1485.54"/>
  <line id="right-margin-Black-S" style="fill:none;stroke:#00AEEF;stroke-width:0.5;opacity:1.0;" x1="2983.33" x2="2983.33" y1="600.785" y2="720.121"/>
  <line id="left-margin-Black-S" style="fill:none;stroke:#00AEEF;stroke-width:0.5;opacity:1.0;" x1="2883.47" x2="2883.47" y1="600.785" y2="720.121"/>
  <line id="right-margin-Regular-S" style="fill:none;stroke:#00AEEF;stroke-width:0.5;opacity:1.0;" x1="1497.94" x2="1497.94" y1="600.785" y2="720.121"/>
  <line id="left-margin-Regular-S" style="fill:none;stroke:#00AEEF;stroke-width:0.5;opacity:1.0;" x1="1401.75" x2="1401.75" y1="600.785" y2="720.121"/>
  <line id="right-margin-Ultralight-S" style="fill:none;stroke:#00AEEF;stroke-width:0.5;opacity:1.0;" x1="606.785" x2="606.785" y1="600.785" y2="720.121"/>
  <line id="left-margin-Ultralight-S" style="fill:none;stroke:#00AEEF;stroke-width:0.5;opacity:1.0;" x1="512.637" x2="512.637" y1="600.785" y2="720.121"/>
 </g>
 <g id="Symbols">
  <g id="Black-S" transform="matrix(1 0 0 1 2883.47 696)">
   <path class="SFSymbolsPreviewWireframe" d="M20.752 4.15039L79.1504 4.15039C86.6699 4.15039 92.041-2.05078 92.041-8.83789C92.041-10.9863 91.5527-13.1836 90.3809-15.2344L61.1328-66.4551C58.5938-70.8496 54.3457-72.9492 49.9512-72.9492C45.5566-72.9492 41.1621-70.752 38.7207-66.4551L9.47266-15.1855C8.34961-13.1836 7.8125-10.9863 7.8125-8.83789C7.8125-2.05078 13.1836 4.15039 20.752 4.15039ZM24.5117-9.0332C23.4375-9.0332 22.7051-9.91211 22.7051-10.9375C22.7051-11.1816 22.7539-11.6211 22.9004-11.9141L48.3887-57.1777C48.6816-57.7148 49.3652-57.9102 49.9512-57.9102C50.5371-57.9102 51.1719-57.666 51.4648-57.1289L77.002-11.8164C77.1484-11.5234 77.1973-11.1328 77.1973-10.9375C77.1973-9.91211 76.4648-9.0332 75.3906-9.0332ZM31.2239-22.603L35.8435-22.603C37.0331-22.603 37.9271-22.9412 38.4643-23.6748L40.0273-25.4418L37.0006-25.4418L38.9111-15.4609C39.3903-13.0062 42.8663-13.0086 43.2146-15.4585L43.6989-18.9417L44.8071-8.17321C45.0894-5.54971 48.9398-5.54885 49.1577-8.17321L49.9219-17.8044L50.6836-8.16599C50.9025-5.5449 54.7528-5.5473 55.0351-8.16599L56.1458-18.9417L56.6244-15.4657C56.9759-13.011 60.452-13.011 60.9311-15.4657L62.8653-25.4461L60.4566-25.447L61.2631-24.541C62.0274-23.3094 63.173-22.603 64.593-22.603L68.626-22.603C69.8022-22.603 70.805-23.6044 70.805-24.7836C70.805-25.962 69.8022-26.9625 68.626-26.9625L64.9313-26.9625L63.8788-31.3214C63.3338-33.5706 60.0528-33.573 59.6168-31.3238L59.1414-28.8139L58.0039-36.8767C57.6321-39.436 53.9354-39.4368 53.6751-36.8792L53.1583-31.7063L52.107-44.7235C51.889-47.3902 47.9532-47.3902 47.7344-44.7235L46.6863-31.7063L46.1662-36.8792C45.9067-39.4336 42.2077-39.4336 41.8384-36.8767L40.7032-28.8139L40.227-31.3286C39.791-33.5512 36.5084-33.5512 35.9658-31.3286L34.91-26.9625L31.2239-26.9625C30.0479-26.9625 29.045-25.962 29.045-24.7836C29.045-23.6044 30.0479-22.603 31.2239-22.603Z"/>
  </g>
  <g id="Regular-S" transform="matrix(1 0 0 1 1401.75 696)">
   <path class="SFSymbolsPreviewWireframe" d="M18.75 1.12305L77.4414 1.12305C84.2285 1.12305 88.3789-3.61328 88.3789-9.81445C88.3789-11.6211 87.8418-13.5254 86.8652-15.2344L57.4707-66.2598C55.3711-69.873 51.8066-71.7773 48.0957-71.7773C44.3848-71.7773 40.7715-69.873 38.7207-66.2598L9.32617-15.2344C8.30078-13.4766 7.8125-11.6211 7.8125-9.81445C7.8125-3.61328 11.9629 1.12305 18.75 1.12305ZM18.7988-5.76172C16.4062-5.76172 14.8438-7.71484 14.8438-9.81445C14.8438-10.4492 14.9902-11.2305 15.332-11.8652L44.6777-62.9395C45.4102-64.209 46.7773-64.8438 48.0957-64.8438C49.3652-64.8438 50.6836-64.209 51.4648-62.9395L80.8105-11.8164C81.1523-11.1816 81.2988-10.4492 81.2988-9.81445C81.2988-7.71484 79.7363-5.76172 77.3438-5.76172ZM30.0183-23.1923L34.4966-23.1923C35.2982-23.1923 35.9477-23.4946 36.266-24.1058L37.3506-26.4811L35.5853-26.4811L37.726-16.0322C38.0762-14.3225 40.6049-14.3234 40.8524-16.0314L41.9979-23.6916L43.6235-9.07135C43.839-7.15225 46.6177-7.16167 46.7822-9.07135L48.1424-24.8417L49.5016-9.06875C49.6567-7.15052 52.4354-7.15139 52.6509-9.06875L54.2773-23.6916L55.4305-16.034C55.6695-14.3243 58.1982-14.3243 58.5484-16.034L60.6906-26.434L59.1935-26.4246L59.9629-24.523C60.4004-23.6326 61.1612-23.1923 62.0735-23.1923L66.1713-23.1923C67.0946-23.1923 67.8554-23.9429 67.8554-24.8576C67.8554-25.7817 67.0946-26.5418 66.1713-26.5418L62.6246-26.5418L61.4873-31.0249C61.0759-32.694 58.73-32.6949 58.4009-31.0257L57.2391-25.4748L55.6196-36.365C55.3414-38.2332 52.6764-38.2238 52.4813-36.3658L51.2796-25.7022L49.7315-43.8479C49.5669-45.7881 46.7075-45.7881 46.5524-43.8479L44.9956-25.7022L43.8025-36.3658C43.598-38.2323 40.9321-38.2323 40.6548-36.365L39.0362-25.4748L37.8838-31.0275C37.5547-32.6454 35.1985-32.6454 34.7879-31.0275L33.6592-26.5418L30.0183-26.5418C29.0951-26.5418 28.3342-25.7817 28.3342-24.8576C28.3342-23.9429 29.0951-23.1923 30.0183-23.1923Z"/>
  </g>
  <g id="Ultralight-S" transform="matrix(1 0 0 1 512.637 696)">
   <path class="SFSymbolsPreviewWireframe" d="M16.0254-0.0121981L78.1226-0.0121981C83.3203-0.0121981 86.3355-3.65869 86.3355-7.99806C86.3355-9.66847 85.8892-11.4365 84.9126-13.1455L53.9287-67.8945C52.4195-70.5996 49.7178-71.7319 47.0967-71.7319C44.4302-71.7319 41.7251-70.5996 40.2192-67.8945L9.23535-13.1455C8.25537-11.4331 7.8125-9.66847 7.8125-7.99806C7.8125-3.65869 10.8276-0.0121981 16.0254-0.0121981ZM16.0742-2.21975C12.1831-2.21975 10.1211-4.89944 10.1211-8.04347C10.1211-9.35938 10.4947-10.8218 11.2451-12.1831L42.1802-66.8447C43.2759-68.7954 45.188-69.4755 47.0967-69.4755C48.9565-69.4755 50.8652-68.7954 51.9644-66.8447L82.8994-12.1797C83.6499-10.8184 84.0234-9.35938 84.0234-8.04347C84.0234-4.89944 81.9614-2.21975 78.0703-2.21975ZM29.1202-24.0564L33.8575-24.0564C34.2028-24.0564 34.5345-24.2682 34.6233-24.6378L35.4638-28.2041L35.006-28.2041L37.4944-16.52C37.676-15.7165 38.9403-15.7087 39.0667-16.5278L41.0919-29.9753L43.4006-9.89473C43.5189-8.93092 44.8903-8.94256 44.9771-9.89473L47.1283-34.1365L49.2873-9.91796C49.3624-8.94641 50.7338-8.93866 50.8521-9.91796L53.153-29.9753L55.2054-16.5046C55.3124-15.701 56.5766-15.701 56.7582-16.5046L59.2352-28.146L58.7464-28.1343L59.6403-24.6432C59.7421-24.2239 60.0638-24.0564 60.4028-24.0564L65.0277-24.0564C65.532-24.0564 65.9344-24.4549 65.9344-24.9398C65.9344-25.4364 65.532-25.8465 65.0277-25.8465L60.9834-25.8465L59.7036-30.8035C59.4866-31.6601 58.3362-31.6524 58.1626-30.7957L56.0909-21.0028L53.8208-35.9894C53.6787-36.9217 52.3626-36.9101 52.2561-35.9816L50.1531-17.7649L47.9263-43.0957C47.8395-44.0675 46.4132-44.0675 46.338-43.0957L44.0918-17.7649L42.0082-35.9816C41.8901-36.9295 40.5817-36.9295 40.4319-35.9894L38.1541-21.0028L36.094-30.7802C35.9204-31.6134 34.7661-31.6134 34.5413-30.7802L33.281-25.8465L29.1202-25.8465C28.6158-25.8465 28.2135-25.4364 28.2135-24.9398C28.2135-24.4549 28.6158-24.0564 29.1202-24.0564Z"/>
  </g>
 </g>
 <g id="LayerTree">
  <g class="monochrome-0 multicolor-0:tintColor hierarchical-0:secondary"/>
  <g class="monochrome-1 multicolor-1:tintColor hierarchical-1:primary">
   <g class="shapeGroupLayer-0"/>
  </g>
 </g>
</svg>
