<?xml version="1.0" encoding="UTF-8"?>
<!--Generator: Apple Native CoreSVG 338-->
<!DOCTYPE svg
PUBLIC "-//W3C//DTD SVG 1.1//EN"
       "http://www.w3.org/Graphics/SVG/1.1/DTD/svg11.dtd">
<svg version="1.1" xmlns="http://www.w3.org/2000/svg" xmlns:xlink="http://www.w3.org/1999/xlink" viewBox="0 0 3300 2200">
 <!--glyph: "", point size: 100.0, font version: "20.0d8e1", template writer version: "138.0.0"-->
 <style>.monochrome-0 {-sfsymbols-motion-group:1;-sfsymbols-layer-tags:7821fe203fcb8431 capsule.portrait.fill}
.monochrome-1 {opacity:0.0;-sfsymbols-clear-behind:true;-sfsymbols-motion-group:0;-sfsymbols-always-pulses:true;-sfsymbols-layer-tags:-359118ac16a0adcb 7821fe203fcb8431 sparkles}
.monochrome-2 {opacity:0.0;-sfsymbols-clear-behind:true;-sfsymbols-motion-group:0;-sfsymbols-always-pulses:true;-sfsymbols-layer-tags:-359118ac16a0adcb 7821fe203fcb8431 sparkles}
.monochrome-3 {opacity:0.0;-sfsymbols-clear-behind:true;-sfsymbols-motion-group:0;-sfsymbols-always-pulses:true;-sfsymbols-layer-tags:-359118ac16a0adcb 7821fe203fcb8431 sparkles}

.multicolor-0:tintColor {-sfsymbols-motion-group:1;-sfsymbols-layer-tags:7821fe203fcb8431 capsule.portrait.fill}
.multicolor-1:white {-sfsymbols-motion-group:0;-sfsymbols-always-pulses:true;-sfsymbols-layer-tags:-359118ac16a0adcb 7821fe203fcb8431 sparkles}
.multicolor-2:white {-sfsymbols-motion-group:0;-sfsymbols-always-pulses:true;-sfsymbols-layer-tags:-359118ac16a0adcb 7821fe203fcb8431 sparkles}
.multicolor-3:white {-sfsymbols-motion-group:0;-sfsymbols-always-pulses:true;-sfsymbols-layer-tags:-359118ac16a0adcb 7821fe203fcb8431 sparkles}

.hierarchical-0:tertiary {-sfsymbols-motion-group:1;-sfsymbols-layer-tags:7821fe203fcb8431 capsule.portrait.fill}
.hierarchical-1:primary {-sfsymbols-motion-group:0;-sfsymbols-layer-tags:-359118ac16a0adcb 7821fe203fcb8431 sparkles}
.hierarchical-2:primary {-sfsymbols-motion-group:0;-sfsymbols-layer-tags:-359118ac16a0adcb 7821fe203fcb8431 sparkles}
.hierarchical-3:primary {-sfsymbols-motion-group:0;-sfsymbols-layer-tags:-359118ac16a0adcb 7821fe203fcb8431 sparkles}

.SFSymbolsPreviewWireframe {fill:none;opacity:1.0;stroke:black;stroke-width:0.5}
</style>
 <g id="Notes">
  <rect height="2200" id="artboard" style="fill:white;opacity:1" width="3300" x="0" y="0"/>
  <line style="fill:none;stroke:black;opacity:1;stroke-width:0.5;" x1="263" x2="3036" y1="292" y2="292"/>
  <text style="stroke:none;fill:black;font-family:sans-serif;font-size:13;font-weight:bold;" transform="matrix(1 0 0 1 263 322)">Weight/Scale Variations</text>
  <text style="stroke:none;fill:black;font-family:sans-serif;font-size:13;text-anchor:middle;" transform="matrix(1 0 0 1 559.711 322)">Ultralight</text>
  <text style="stroke:none;fill:black;font-family:sans-serif;font-size:13;text-anchor:middle;" transform="matrix(1 0 0 1 856.422 322)">Thin</text>
  <text style="stroke:none;fill:black;font-family:sans-serif;font-size:13;text-anchor:middle;" transform="matrix(1 0 0 1 1153.13 322)">Light</text>
  <text style="stroke:none;fill:black;font-family:sans-serif;font-size:13;text-anchor:middle;" transform="matrix(1 0 0 1 1449.84 322)">Regular</text>
  <text style="stroke:none;fill:black;font-family:sans-serif;font-size:13;text-anchor:middle;" transform="matrix(1 0 0 1 1746.56 322)">Medium</text>
  <text style="stroke:none;fill:black;font-family:sans-serif;font-size:13;text-anchor:middle;" transform="matrix(1 0 0 1 2043.27 322)">Semibold</text>
  <text style="stroke:none;fill:black;font-family:sans-serif;font-size:13;text-anchor:middle;" transform="matrix(1 0 0 1 2339.98 322)">Bold</text>
  <text style="stroke:none;fill:black;font-family:sans-serif;font-size:13;text-anchor:middle;" transform="matrix(1 0 0 1 2636.69 322)">Heavy</text>
  <text style="stroke:none;fill:black;font-family:sans-serif;font-size:13;text-anchor:middle;" transform="matrix(1 0 0 1 2933.4 322)">Black</text>
  <line style="fill:none;stroke:black;opacity:1;stroke-width:0.5;" x1="263" x2="3036" y1="1903" y2="1903"/>
  <g transform="matrix(0.2 0 0 0.2 263 1933)">
   <path d="m46.2402 4.15039c21.7773 0 39.4531-17.627 39.4531-39.4043s-17.6758-39.4043-39.4531-39.4043c-21.7285 0-39.4043 17.627-39.4043 39.4043s17.6758 39.4043 39.4043 39.4043Zm0-7.42188c-17.6758 0-31.9336-14.3066-31.9336-31.9824s14.2578-31.9824 31.9336-31.9824 31.9824 14.3066 31.9824 31.9824-14.3066 31.9824-31.9824 31.9824Zm-17.9688-31.9824c0 2.14844 1.51367 3.61328 3.75977 3.61328h10.498v10.5957c0 2.19727 1.46484 3.71094 3.61328 3.71094 2.24609 0 3.71094-1.51367 3.71094-3.71094v-10.5957h10.5957c2.19727 0 3.71094-1.46484 3.71094-3.61328 0-2.19727-1.51367-3.71094-3.71094-3.71094h-10.5957v-10.5469c0-2.24609-1.46484-3.75977-3.71094-3.75977-2.14844 0-3.61328 1.51367-3.61328 3.75977v10.5469h-10.498c-2.24609 0-3.75977 1.51367-3.75977 3.71094Z"/>
  </g>
  <g transform="matrix(0.2 0 0 0.2 281.506 1933)">
   <path d="m58.5449 14.5508c27.4902 0 49.8047-22.3145 49.8047-49.8047s-22.3145-49.8047-49.8047-49.8047-49.8047 22.3145-49.8047 49.8047 22.3145 49.8047 49.8047 49.8047Zm0-8.30078c-22.9492 0-41.5039-18.5547-41.5039-41.5039s18.5547-41.5039 41.5039-41.5039 41.5039 18.5547 41.5039 41.5039-18.5547 41.5039-41.5039 41.5039Zm-22.6562-41.5039c0 2.39258 1.66016 4.00391 4.15039 4.00391h14.3555v14.4043c0 2.44141 1.66016 4.15039 4.05273 4.15039 2.44141 0 4.15039-1.66016 4.15039-4.15039v-14.4043h14.4043c2.44141 0 4.15039-1.61133 4.15039-4.00391 0-2.44141-1.70898-4.15039-4.15039-4.15039h-14.4043v-14.3555c0-2.49023-1.70898-4.19922-4.15039-4.19922-2.39258 0-4.05273 1.70898-4.05273 4.19922v14.3555h-14.3555c-2.49023 0-4.15039 1.70898-4.15039 4.15039Z"/>
  </g>
  <g transform="matrix(0.2 0 0 0.2 304.924 1933)">
   <path d="m74.8535 28.3203c35.1074 0 63.623-28.4668 63.623-63.5742s-28.5156-63.623-63.623-63.623-63.5742 28.5156-63.5742 63.623 28.4668 63.5742 63.5742 63.5742Zm0-9.08203c-30.127 0-54.4922-24.3652-54.4922-54.4922s24.3652-54.4922 54.4922-54.4922 54.4922 24.3652 54.4922 54.4922-24.3652 54.4922-54.4922 54.4922Zm-28.8574-54.4922c0 2.58789 1.85547 4.39453 4.58984 4.39453h19.7266v19.7754c0 2.68555 1.85547 4.58984 4.44336 4.58984 2.68555 0 4.54102-1.85547 4.54102-4.58984v-19.7754h19.7754c2.68555 0 4.58984-1.80664 4.58984-4.39453 0-2.73438-1.85547-4.58984-4.58984-4.58984h-19.7754v-19.7266c0-2.73438-1.85547-4.63867-4.54102-4.63867-2.58789 0-4.44336 1.9043-4.44336 4.63867v19.7266h-19.7266c-2.73438 0-4.58984 1.85547-4.58984 4.58984Z"/>
  </g>
  <text style="stroke:none;fill:black;font-family:sans-serif;font-size:13;font-weight:bold;" transform="matrix(1 0 0 1 263 1953)">Design Variations</text>
  <text style="stroke:none;fill:black;font-family:sans-serif;font-size:13;" transform="matrix(1 0 0 1 263 1971)">Symbols are supported in up to nine weights and three scales.</text>
  <text style="stroke:none;fill:black;font-family:sans-serif;font-size:13;" transform="matrix(1 0 0 1 263 1989)">For optimal layout with text and other symbols, vertically align</text>
  <text style="stroke:none;fill:black;font-family:sans-serif;font-size:13;" transform="matrix(1 0 0 1 263 2007)">symbols with the adjacent text.</text>
  <line style="fill:none;stroke:#00AEEF;stroke-width:0.5;opacity:1.0;" x1="776" x2="776" y1="1919" y2="1933"/>
  <g transform="matrix(0.2 0 0 0.2 776 1933)">
   <path d="m16.5527 0.78125c2.58789 0 3.85742-0.976562 4.78516-3.71094l6.29883-17.2363h28.8086l6.29883 17.2363c0.927734 2.73438 2.19727 3.71094 4.73633 3.71094 2.58789 0 4.24805-1.5625 4.24805-4.00391 0-0.830078-0.146484-1.61133-0.537109-2.63672l-22.9004-60.9863c-1.12305-2.97852-3.125-4.49219-6.25-4.49219-3.02734 0-5.07812 1.46484-6.15234 4.44336l-22.9004 61.084c-0.390625 1.02539-0.537109 1.80664-0.537109 2.63672 0 2.44141 1.5625 3.95508 4.10156 3.95508Zm13.4766-28.3691 11.8652-32.8613h0.244141l11.8652 32.8613Z"/>
  </g>
  <line style="fill:none;stroke:#00AEEF;stroke-width:0.5;opacity:1.0;" x1="792.836" x2="792.836" y1="1919" y2="1933"/>
  <text style="stroke:none;fill:black;font-family:sans-serif;font-size:13;font-weight:bold;" transform="matrix(1 0 0 1 776 1953)">Margins</text>
  <text style="stroke:none;fill:black;font-family:sans-serif;font-size:13;" transform="matrix(1 0 0 1 776 1971)">Leading and trailing margins on the left and right side of each symbol</text>
  <text style="stroke:none;fill:black;font-family:sans-serif;font-size:13;" transform="matrix(1 0 0 1 776 1989)">can be adjusted by modifying the x-location of the margin guidelines.</text>
  <text style="stroke:none;fill:black;font-family:sans-serif;font-size:13;" transform="matrix(1 0 0 1 776 2007)">Modifications are automatically applied proportionally to all</text>
  <text style="stroke:none;fill:black;font-family:sans-serif;font-size:13;" transform="matrix(1 0 0 1 776 2025)">scales and weights.</text>
  <g transform="matrix(0.2 0 0 0.2 1289 1933)">
   <path d="m14.209 9.32617 8.49609 8.54492c4.29688 4.3457 9.22852 4.05273 13.8672-1.07422l53.4668-58.9355-4.83398-4.88281-53.0762 58.3984c-1.75781 2.00195-3.41797 2.49023-5.76172 0.146484l-5.85938-5.81055c-2.34375-2.29492-1.80664-4.00391 0.195312-5.81055l57.373-54.0039-4.88281-4.83398-57.959 54.4434c-4.93164 4.58984-5.32227 9.47266-1.02539 13.8184Zm32.0801-90.9668c-2.09961 2.05078-2.24609 4.93164-1.07422 6.88477 1.17188 1.80664 3.4668 2.97852 6.68945 2.14844 7.32422-1.70898 14.9414-2.00195 22.0703 2.68555l-2.92969 7.27539c-1.70898 4.15039-0.830078 7.08008 1.85547 9.81445l11.4746 11.5723c2.44141 2.44141 4.49219 2.53906 7.32422 2.05078l5.32227-0.976562 3.32031 3.36914-0.195312 2.7832c-0.195312 2.49023 0.439453 4.39453 2.88086 6.78711l3.80859 3.71094c2.39258 2.39258 5.46875 2.53906 7.8125 0.195312l14.5508-14.5996c2.34375-2.34375 2.24609-5.32227-0.146484-7.71484l-3.85742-3.80859c-2.39258-2.39258-4.24805-3.17383-6.64062-2.97852l-2.88086 0.244141-3.22266-3.17383 1.2207-5.61523c0.634766-2.83203-0.146484-5.0293-3.07617-7.95898l-10.9863-10.9375c-16.6992-16.6016-38.8672-16.2109-53.3203-1.75781Zm7.4707 1.85547c12.1582-8.88672 28.6133-7.37305 39.7461 3.75977l12.1582 12.0605c1.17188 1.17188 1.36719 2.09961 1.02539 3.80859l-1.61133 7.42188 7.51953 7.42188 4.93164-0.292969c1.26953-0.0488281 1.66016 0.0488281 2.63672 1.02539l2.88086 2.88086-12.207 12.207-2.88086-2.88086c-0.976562-0.976562-1.12305-1.36719-1.07422-2.68555l0.341797-4.88281-7.4707-7.42188-7.61719 1.26953c-1.61133 0.341797-2.34375 0.195312-3.56445-0.976562l-10.0098-10.0098c-1.26953-1.17188-1.41602-2.00195-0.634766-3.85742l4.39453-10.4492c-7.8125-7.27539-17.9688-10.4004-28.125-7.42188-0.78125 0.195312-1.07422-0.439453-0.439453-0.976562Z"/>
  </g>
  <text style="stroke:none;fill:black;font-family:sans-serif;font-size:13;font-weight:bold;" transform="matrix(1 0 0 1 1289 1953)">Exporting</text>
  <text style="stroke:none;fill:black;font-family:sans-serif;font-size:13;" transform="matrix(1 0 0 1 1289 1971)">Symbols should be outlined when exporting to ensure the</text>
  <text style="stroke:none;fill:black;font-family:sans-serif;font-size:13;" transform="matrix(1 0 0 1 1289 1989)">design is preserved when submitting to Xcode.</text>
  <text id="template-version" style="stroke:none;fill:black;font-family:sans-serif;font-size:13;text-anchor:end;" transform="matrix(1 0 0 1 3036 1933)">Template v.6.0</text>
  <text style="stroke:none;fill:black;font-family:sans-serif;font-size:13;text-anchor:end;" transform="matrix(1 0 0 1 3036 1951)">Requires Xcode 16 or greater</text>
  <text id="descriptive-name" style="stroke:none;fill:black;font-family:sans-serif;font-size:13;text-anchor:end;" transform="matrix(1 0 0 1 3036 1969)">Generated from capsule.portrait.fill</text>
  <text style="stroke:none;fill:black;font-family:sans-serif;font-size:13;text-anchor:end;" transform="matrix(1 0 0 1 3036 1987)">Typeset at 100.0 points</text>
  <text style="stroke:none;fill:black;font-family:sans-serif;font-size:13;" transform="matrix(1 0 0 1 263 726)">Small</text>
  <text style="stroke:none;fill:black;font-family:sans-serif;font-size:13;" transform="matrix(1 0 0 1 263 1156)">Medium</text>
  <text style="stroke:none;fill:black;font-family:sans-serif;font-size:13;" transform="matrix(1 0 0 1 263 1586)">Large</text>
 </g>
 <g id="Guides">
  <g id="H-reference" style="fill:#27AAE1;stroke:none;" transform="matrix(1 0 0 1 339 696)">
   <path d="M0.993654 0L3.63775 0L29.3281-67.1323L30.0303-67.1323L30.0303-70.459L28.1226-70.459ZM11.6885-24.4799L46.9815-24.4799L46.2315-26.7285L12.4385-26.7285ZM55.1196 0L57.7637 0L30.6382-70.459L29.4326-70.459L29.4326-67.1323Z"/>
  </g>
  <line id="Baseline-S" style="fill:none;stroke:#27AAE1;opacity:1;stroke-width:0.5;" x1="263" x2="3036" y1="696" y2="696"/>
  <line id="Capline-S" style="fill:none;stroke:#27AAE1;opacity:1;stroke-width:0.5;" x1="263" x2="3036" y1="625.541" y2="625.541"/>
  <g id="H-reference" style="fill:#27AAE1;stroke:none;" transform="matrix(1 0 0 1 339 1126)">
   <path d="M0.993654 0L3.63775 0L29.3281-67.1323L30.0303-67.1323L30.0303-70.459L28.1226-70.459ZM11.6885-24.4799L46.9815-24.4799L46.2315-26.7285L12.4385-26.7285ZM55.1196 0L57.7637 0L30.6382-70.459L29.4326-70.459L29.4326-67.1323Z"/>
  </g>
  <line id="Baseline-M" style="fill:none;stroke:#27AAE1;opacity:1;stroke-width:0.5;" x1="263" x2="3036" y1="1126" y2="1126"/>
  <line id="Capline-M" style="fill:none;stroke:#27AAE1;opacity:1;stroke-width:0.5;" x1="263" x2="3036" y1="1055.54" y2="1055.54"/>
  <g id="H-reference" style="fill:#27AAE1;stroke:none;" transform="matrix(1 0 0 1 339 1556)">
   <path d="M0.993654 0L3.63775 0L29.3281-67.1323L30.0303-67.1323L30.0303-70.459L28.1226-70.459ZM11.6885-24.4799L46.9815-24.4799L46.2315-26.7285L12.4385-26.7285ZM55.1196 0L57.7637 0L30.6382-70.459L29.4326-70.459L29.4326-67.1323Z"/>
  </g>
  <line id="Baseline-L" style="fill:none;stroke:#27AAE1;opacity:1;stroke-width:0.5;" x1="263" x2="3036" y1="1556" y2="1556"/>
  <line id="Capline-L" style="fill:none;stroke:#27AAE1;opacity:1;stroke-width:0.5;" x1="263" x2="3036" y1="1485.54" y2="1485.54"/>
  <line id="right-margin-Black-S" style="fill:none;stroke:#00AEEF;stroke-width:0.5;opacity:1.0;" x1="2981.98" x2="2981.98" y1="600.785" y2="720.121"/>
  <line id="left-margin-Black-S" style="fill:none;stroke:#00AEEF;stroke-width:0.5;opacity:1.0;" x1="2884.82" x2="2884.82" y1="600.785" y2="720.121"/>
  <line id="right-margin-Regular-S" style="fill:none;stroke:#00AEEF;stroke-width:0.5;opacity:1.0;" x1="1494.57" x2="1494.57" y1="600.785" y2="720.121"/>
  <line id="left-margin-Regular-S" style="fill:none;stroke:#00AEEF;stroke-width:0.5;opacity:1.0;" x1="1405.12" x2="1405.12" y1="600.785" y2="720.121"/>
  <line id="right-margin-Ultralight-S" style="fill:none;stroke:#00AEEF;stroke-width:0.5;opacity:1.0;" x1="601.1" x2="601.1" y1="600.785" y2="720.121"/>
  <line id="left-margin-Ultralight-S" style="fill:none;stroke:#00AEEF;stroke-width:0.5;opacity:1.0;" x1="518.322" x2="518.322" y1="600.785" y2="720.121"/>
 </g>
 <g id="Symbols">
  <g id="Black-S" transform="matrix(1 0 0 1 2884.82 696)">
   <path class="monochrome-0 multicolor-0:tintColor hierarchical-0:tertiary SFSymbolsPreviewWireframe" d="M48.584-83.6426C25.293-83.6426 9.76562-67.7734 9.76562-43.9941L9.76562-26.5137C9.76562-2.73438 25.293 13.1348 48.584 13.1348C71.875 13.1348 87.4023-2.73438 87.4023-26.5137L87.4023-43.9941C87.4023-67.7734 71.875-83.6426 48.584-83.6426Z"/>
   <path class="monochrome-1 multicolor-1:white hierarchical-1:primary SFSymbolsPreviewWireframe" d="M46.4081-49.0964C46.8044-49.0964 47.1015-49.3921 47.1533-49.7624C47.5943-52.7714 47.5683-52.6642 50.7778-53.358C51.1726-53.4387 51.4423-53.7039 51.4423-54.1032C51.4423-54.5025 51.1437-54.7967 50.7489-54.8485C47.5683-55.2819 47.5653-55.2327 47.1533-58.4152C47.1015-58.8129 46.8044-59.1085 46.4081-59.1085C46.0103-59.1085 45.7101-58.8129 45.6583-58.3863C45.3056-55.4351 45.2722-55.5423 42.0368-54.8485C41.639-54.7677 41.3693-54.5025 41.3693-54.1032C41.3693-53.7039 41.639-53.4387 42.1236-53.358C45.2144-52.8088 45.2478-52.887 45.6583-49.7913C45.7101-49.3921 46.0103-49.0964 46.4081-49.0964Z"/>
   <path class="monochrome-2 multicolor-2:white hierarchical-2:primary SFSymbolsPreviewWireframe" d="M37.0467-34.4399C37.6728-34.4399 38.1938-34.9061 38.2746-35.5323C38.8808-40.3395 38.9082-40.4778 44.1572-41.3556C44.7849-41.4653 45.2176-41.9604 45.2176-42.5835C45.2176-43.2052 44.756-43.7322 44.1283-43.813C38.995-44.4484 38.8823-44.5762 38.2746-49.6088C38.1938-50.2595 37.7017-50.7256 37.0467-50.7256C36.393-50.7256 35.901-50.2595 35.8202-49.5814C35.2673-44.8 35.182-44.6922 29.9375-43.813C29.3098-43.7048 28.8771-43.2052 28.8771-42.5835C28.8771-41.9329 29.3098-41.4653 30.0761-41.3556C35.1212-40.6668 35.2673-40.4263 35.8202-35.5871C35.901-34.9061 36.393-34.4399 37.0467-34.4399Z"/>
   <path class="monochrome-3 multicolor-3:white hierarchical-3:primary SFSymbolsPreviewWireframe" d="M51.8875-12.9815C53.0576-12.9815 53.9914-13.8286 54.1849-15.0336C55.6749-24.5668 57.0343-25.9837 66.1619-27.0654C67.3913-27.204 68.2961-28.1942 68.2961-29.3977C68.2961-30.5708 67.4202-31.5365 66.1908-31.7315C57.0921-33.1314 56.022-34.2316 54.1849-43.7618C53.9625-44.9683 53.0287-45.8154 51.8875-45.8154C50.7189-45.8154 49.7852-44.9683 49.5902-43.7618C48.1016-34.2316 46.7423-32.8132 37.6147-31.7315C36.3852-31.5943 35.4788-30.5997 35.4788-29.3977C35.4788-28.2231 36.3563-27.2619 37.5858-27.0654C46.6919-25.7242 47.7786-24.5698 49.5902-15.0336C49.8141-13.8286 50.7478-12.9815 51.8875-12.9815Z"/>
  </g>
  <g id="Regular-S" transform="matrix(1 0 0 1 1405.12 696)">
   <path class="monochrome-0 multicolor-0:tintColor hierarchical-0:tertiary SFSymbolsPreviewWireframe" d="M44.7266-80.5664C23.6816-80.5664 9.76562-67.2363 9.76562-46.2402L9.76562-24.2676C9.76562-3.27148 23.6816 10.0586 44.7266 10.0586C65.7715 10.0586 79.6875-3.27148 79.6875-24.2676L79.6875-46.2402C79.6875-67.2363 65.7715-80.5664 44.7266-80.5664Z"/>
   <path class="monochrome-1 multicolor-1:white hierarchical-1:primary SFSymbolsPreviewWireframe" d="M43.1665-49.2978C43.4901-49.2978 43.7004-49.5221 43.7509-49.8057C44.2942-52.9002 44.2542-52.8753 47.4957-53.5384C47.8038-53.601 48.0176-53.7976 48.0176-54.1228C48.0176-54.448 47.7917-54.6568 47.4836-54.7072C44.2542-55.2611 44.282-55.2605 43.7509-58.4278C43.7004-58.7375 43.4901-58.9618 43.1665-58.9618C42.8568-58.9618 42.6448-58.7375 42.5944-58.4157C42.0736-55.3455 42.1031-55.3703 38.8511-54.7072C38.5415-54.6447 38.3277-54.448 38.3277-54.1228C38.3277-53.7976 38.5415-53.601 38.8875-53.5384C42.0789-52.9359 42.0493-52.9487 42.5944-49.8178C42.6448-49.5221 42.8568-49.2978 43.1665-49.2978Z"/>
   <path class="monochrome-2 multicolor-2:white hierarchical-2:primary SFSymbolsPreviewWireframe" d="M33.9313-35.4455C34.4247-35.4455 34.8016-35.7999 34.8642-36.2933C35.4983-41.2712 35.642-41.3467 40.9205-42.3098C41.4-42.3845 41.7545-42.751 41.7545-43.2427C41.7545-43.7484 41.3879-44.1286 40.9084-44.1912C35.6784-44.8488 35.4844-45.051 34.8642-50.1817C34.8016-50.6995 34.4368-51.0539 33.9313-51.0539C33.4118-51.0539 33.047-50.6995 32.9844-50.1556C32.4163-45.1882 32.16-45.1404 26.9281-44.1912C26.4486-44.1026 26.0941-43.7484 26.0941-43.2427C26.0941-42.7249 26.4486-42.3845 27.0444-42.3098C32.1635-41.5567 32.4163-41.3371 32.9844-36.3453C33.047-35.7999 33.4118-35.4455 33.9313-35.4455Z"/>
   <path class="monochrome-3 multicolor-3:white hierarchical-3:primary SFSymbolsPreviewWireframe" d="M47.682-14.2366C48.473-14.2366 49.1089-14.8066 49.2478-15.6424C50.7003-25.5259 52.1845-27.17 61.8752-28.3219C62.7354-28.4087 63.3591-29.0828 63.3591-29.903C63.3591-30.725 62.7475-31.3747 61.8873-31.4997C52.2087-32.785 50.8459-34.2818 49.2478-44.1636C49.0967-45.0149 48.4608-45.585 47.682-45.585C46.8772-45.585 46.2413-45.0149 46.1163-44.1636C44.6499-34.2818 43.1657-32.6515 33.475-31.4997C32.6148-31.3989 32.0049-30.7371 32.0049-29.903C32.0049-29.0949 32.6027-28.433 33.4628-28.3219C43.1308-26.9652 44.4879-25.5275 46.1163-15.6424C46.2534-14.8066 46.8893-14.2366 47.682-14.2366Z"/>
  </g>
  <g id="Ultralight-S" transform="matrix(1 0 0 1 518.322 696)">
   <path class="monochrome-0 multicolor-0:tintColor hierarchical-0:tertiary SFSymbolsPreviewWireframe" d="M41.3662-78.6592C21.5474-78.6592 9.76562-67.2363 9.76562-48.0112L9.76562-22.4966C9.76562-3.27148 21.5474 8.15138 41.3662 8.15138C61.2305 8.15138 73.0123-3.27148 73.0123-22.4966L73.0123-48.0112C73.0123-67.2363 61.2305-78.6592 41.3662-78.6592Z"/>
   <path class="monochrome-1 multicolor-1:white hierarchical-1:primary SFSymbolsPreviewWireframe" d="M40.3351-49.6234C40.5461-49.6234 40.6638-49.7511 40.6983-49.942C41.1503-52.9332 41.1302-53.313 44.56-53.8038C44.7754-53.8383 44.8887-53.9704 44.8887-54.167C44.8887-54.3636 44.7754-54.4957 44.56-54.5301C41.1302-55.021 41.1503-55.4008 40.6983-58.3919C40.6638-58.5928 40.5461-58.7206 40.3351-58.7206C40.1341-58.7206 40.0308-58.5928 39.9964-58.3919C39.5343-55.4008 39.5644-55.021 36.1202-54.5301C35.9193-54.4957 35.8059-54.3636 35.8059-54.167C35.8059-53.9704 35.9193-53.8383 36.1202-53.8038C39.5644-53.313 39.5343-52.9332 39.9964-49.942C40.0308-49.7511 40.1341-49.6234 40.3351-49.6234Z"/>
   <path class="monochrome-2 multicolor-2:white hierarchical-2:primary SFSymbolsPreviewWireframe" d="M30.9208-36.6975C31.1532-36.6975 31.321-36.8509 31.3554-37.0833C32.1297-42.2146 32.1624-42.1095 37.417-43.1493C37.6394-43.1837 37.8172-43.3371 37.8172-43.5839C37.8172-43.8406 37.6394-43.9797 37.417-44.0141C32.1624-44.9279 32.1197-44.8987 31.3554-50.0701C31.321-50.3268 31.1532-50.4802 30.9208-50.4802C30.6785-50.4802 30.5106-50.3268 30.4762-50.06C29.732-44.9431 29.6823-45.0439 24.4146-44.0141C24.1923-43.9696 24.0144-43.8406 24.0144-43.5839C24.0144-43.3271 24.1923-43.1837 24.4547-43.1493C29.7024-42.1997 29.732-42.2202 30.4762-37.1033C30.5106-36.8509 30.6785-36.6975 30.9208-36.6975Z"/>
   <path class="monochrome-3 multicolor-3:white hierarchical-3:primary SFSymbolsPreviewWireframe" d="M43.8991-15.2784C44.311-15.2784 44.5966-15.5583 44.651-15.9471C45.8512-27.1495 47.1403-28.3274 58.0636-29.3798C58.4769-29.4142 58.7624-29.7097 58.7624-30.103C58.7624-30.5062 58.4769-30.7773 58.0636-30.8218C47.1403-31.8741 45.8512-33.0419 44.651-44.2587C44.5966-44.6432 44.311-44.9231 43.8991-44.9231C43.4771-44.9231 43.1916-44.6432 43.1471-44.2587C41.9369-33.0419 40.6478-31.8741 29.7245-30.8218C29.3113-30.7773 29.0358-30.5062 29.0358-30.103C29.0358-29.7097 29.3113-29.4142 29.7245-29.3798C40.609-28.0269 41.8161-27.1352 43.1471-15.9471C43.1916-15.5583 43.4771-15.2784 43.8991-15.2784Z"/>
  </g>
 </g>
</svg>
