<?xml version="1.0" encoding="UTF-8"?>
<!--Generator: Apple Native CoreSVG 338-->
<!DOCTYPE svg
PUBLIC "-//W3C//DTD SVG 1.1//EN"
       "http://www.w3.org/Graphics/SVG/1.1/DTD/svg11.dtd">
<svg version="1.1" xmlns="http://www.w3.org/2000/svg" xmlns:xlink="http://www.w3.org/1999/xlink" viewBox="0 0 3300 2200">
 <!--glyph: "", point size: 100.0, font version: "20.0d8e1", template writer version: "138.0.0"-->
 <style>.monochrome-0 {-sfsymbols-motion-group:1;-sfsymbols-indices:0;-sfsymbols-layer-tags:7ab471981919f640 capsule.portrait.fill}
.monochrome-1 {opacity:0.0;-sfsymbols-clear-behind:true;-sfsymbols-motion-group:0;-sfsymbols-always-pulses:true;-sfsymbols-layer-tags:7ab471981919f640}

.multicolor-0:tintColor {-sfsymbols-motion-group:1;-sfsymbols-indices:0;-sfsymbols-layer-tags:7ab471981919f640 capsule.portrait.fill}
.multicolor-1:white {-sfsymbols-motion-group:0;-sfsymbols-always-pulses:true;-sfsymbols-layer-tags:7ab471981919f640}

.hierarchical-0:tertiary {-sfsymbols-motion-group:1;-sfsymbols-indices:0;-sfsymbols-layer-tags:7ab471981919f640 capsule.portrait.fill}
.hierarchical-1:primary {-sfsymbols-motion-group:0;-sfsymbols-layer-tags:7ab471981919f640}

.shapeGroupLayer-0 {-sfsymbols-fill-action:draw;-sfsymbols-indices:1}

.SFSymbolsPreviewWireframe {fill:none;opacity:1.0;stroke:black;stroke-width:0.5}
</style>
 <g id="Notes">
  <rect height="2200" id="artboard" style="fill:white;opacity:1" width="3300" x="0" y="0"/>
  <line style="fill:none;stroke:black;opacity:1;stroke-width:0.5;" x1="263" x2="3036" y1="292" y2="292"/>
  <text style="stroke:none;fill:black;font-family:sans-serif;font-size:13;font-weight:bold;" transform="matrix(1 0 0 1 263 322)">Weight/Scale Variations</text>
  <text style="stroke:none;fill:black;font-family:sans-serif;font-size:13;text-anchor:middle;" transform="matrix(1 0 0 1 559.711 322)">Ultralight</text>
  <text style="stroke:none;fill:black;font-family:sans-serif;font-size:13;text-anchor:middle;" transform="matrix(1 0 0 1 856.422 322)">Thin</text>
  <text style="stroke:none;fill:black;font-family:sans-serif;font-size:13;text-anchor:middle;" transform="matrix(1 0 0 1 1153.13 322)">Light</text>
  <text style="stroke:none;fill:black;font-family:sans-serif;font-size:13;text-anchor:middle;" transform="matrix(1 0 0 1 1449.84 322)">Regular</text>
  <text style="stroke:none;fill:black;font-family:sans-serif;font-size:13;text-anchor:middle;" transform="matrix(1 0 0 1 1746.56 322)">Medium</text>
  <text style="stroke:none;fill:black;font-family:sans-serif;font-size:13;text-anchor:middle;" transform="matrix(1 0 0 1 2043.27 322)">Semibold</text>
  <text style="stroke:none;fill:black;font-family:sans-serif;font-size:13;text-anchor:middle;" transform="matrix(1 0 0 1 2339.98 322)">Bold</text>
  <text style="stroke:none;fill:black;font-family:sans-serif;font-size:13;text-anchor:middle;" transform="matrix(1 0 0 1 2636.69 322)">Heavy</text>
  <text style="stroke:none;fill:black;font-family:sans-serif;font-size:13;text-anchor:middle;" transform="matrix(1 0 0 1 2933.4 322)">Black</text>
  <line style="fill:none;stroke:black;opacity:1;stroke-width:0.5;" x1="263" x2="3036" y1="1903" y2="1903"/>
  <g transform="matrix(0.2 0 0 0.2 263 1933)">
   <path d="m46.2402 4.15039c21.7773 0 39.4531-17.627 39.4531-39.4043s-17.6758-39.4043-39.4531-39.4043c-21.7285 0-39.4043 17.627-39.4043 39.4043s17.6758 39.4043 39.4043 39.4043Zm0-7.42188c-17.6758 0-31.9336-14.3066-31.9336-31.9824s14.2578-31.9824 31.9336-31.9824 31.9824 14.3066 31.9824 31.9824-14.3066 31.9824-31.9824 31.9824Zm-17.9688-31.9824c0 2.14844 1.51367 3.61328 3.75977 3.61328h10.498v10.5957c0 2.19727 1.46484 3.71094 3.61328 3.71094 2.24609 0 3.71094-1.51367 3.71094-3.71094v-10.5957h10.5957c2.19727 0 3.71094-1.46484 3.71094-3.61328 0-2.19727-1.51367-3.71094-3.71094-3.71094h-10.5957v-10.5469c0-2.24609-1.46484-3.75977-3.71094-3.75977-2.14844 0-3.61328 1.51367-3.61328 3.75977v10.5469h-10.498c-2.24609 0-3.75977 1.51367-3.75977 3.71094Z"/>
  </g>
  <g transform="matrix(0.2 0 0 0.2 281.506 1933)">
   <path d="m58.5449 14.5508c27.4902 0 49.8047-22.3145 49.8047-49.8047s-22.3145-49.8047-49.8047-49.8047-49.8047 22.3145-49.8047 49.8047 22.3145 49.8047 49.8047 49.8047Zm0-8.30078c-22.9492 0-41.5039-18.5547-41.5039-41.5039s18.5547-41.5039 41.5039-41.5039 41.5039 18.5547 41.5039 41.5039-18.5547 41.5039-41.5039 41.5039Zm-22.6562-41.5039c0 2.39258 1.66016 4.00391 4.15039 4.00391h14.3555v14.4043c0 2.44141 1.66016 4.15039 4.05273 4.15039 2.44141 0 4.15039-1.66016 4.15039-4.15039v-14.4043h14.4043c2.44141 0 4.15039-1.61133 4.15039-4.00391 0-2.44141-1.70898-4.15039-4.15039-4.15039h-14.4043v-14.3555c0-2.49023-1.70898-4.19922-4.15039-4.19922-2.39258 0-4.05273 1.70898-4.05273 4.19922v14.3555h-14.3555c-2.49023 0-4.15039 1.70898-4.15039 4.15039Z"/>
  </g>
  <g transform="matrix(0.2 0 0 0.2 304.924 1933)">
   <path d="m74.8535 28.3203c35.1074 0 63.623-28.4668 63.623-63.5742s-28.5156-63.623-63.623-63.623-63.5742 28.5156-63.5742 63.623 28.4668 63.5742 63.5742 63.5742Zm0-9.08203c-30.127 0-54.4922-24.3652-54.4922-54.4922s24.3652-54.4922 54.4922-54.4922 54.4922 24.3652 54.4922 54.4922-24.3652 54.4922-54.4922 54.4922Zm-28.8574-54.4922c0 2.58789 1.85547 4.39453 4.58984 4.39453h19.7266v19.7754c0 2.68555 1.85547 4.58984 4.44336 4.58984 2.68555 0 4.54102-1.85547 4.54102-4.58984v-19.7754h19.7754c2.68555 0 4.58984-1.80664 4.58984-4.39453 0-2.73438-1.85547-4.58984-4.58984-4.58984h-19.7754v-19.7266c0-2.73438-1.85547-4.63867-4.54102-4.63867-2.58789 0-4.44336 1.9043-4.44336 4.63867v19.7266h-19.7266c-2.73438 0-4.58984 1.85547-4.58984 4.58984Z"/>
  </g>
  <text style="stroke:none;fill:black;font-family:sans-serif;font-size:13;font-weight:bold;" transform="matrix(1 0 0 1 263 1953)">Design Variations</text>
  <text style="stroke:none;fill:black;font-family:sans-serif;font-size:13;" transform="matrix(1 0 0 1 263 1971)">Symbols are supported in up to nine weights and three scales.</text>
  <text style="stroke:none;fill:black;font-family:sans-serif;font-size:13;" transform="matrix(1 0 0 1 263 1989)">For optimal layout with text and other symbols, vertically align</text>
  <text style="stroke:none;fill:black;font-family:sans-serif;font-size:13;" transform="matrix(1 0 0 1 263 2007)">symbols with the adjacent text.</text>
  <line style="fill:none;stroke:#00AEEF;stroke-width:0.5;opacity:1.0;" x1="776" x2="776" y1="1919" y2="1933"/>
  <g transform="matrix(0.2 0 0 0.2 776 1933)">
   <path d="m16.5527 0.78125c2.58789 0 3.85742-0.976562 4.78516-3.71094l6.29883-17.2363h28.8086l6.29883 17.2363c0.927734 2.73438 2.19727 3.71094 4.73633 3.71094 2.58789 0 4.24805-1.5625 4.24805-4.00391 0-0.830078-0.146484-1.61133-0.537109-2.63672l-22.9004-60.9863c-1.12305-2.97852-3.125-4.49219-6.25-4.49219-3.02734 0-5.07812 1.46484-6.15234 4.44336l-22.9004 61.084c-0.390625 1.02539-0.537109 1.80664-0.537109 2.63672 0 2.44141 1.5625 3.95508 4.10156 3.95508Zm13.4766-28.3691 11.8652-32.8613h0.244141l11.8652 32.8613Z"/>
  </g>
  <line style="fill:none;stroke:#00AEEF;stroke-width:0.5;opacity:1.0;" x1="792.836" x2="792.836" y1="1919" y2="1933"/>
  <text style="stroke:none;fill:black;font-family:sans-serif;font-size:13;font-weight:bold;" transform="matrix(1 0 0 1 776 1953)">Margins</text>
  <text style="stroke:none;fill:black;font-family:sans-serif;font-size:13;" transform="matrix(1 0 0 1 776 1971)">Leading and trailing margins on the left and right side of each symbol</text>
  <text style="stroke:none;fill:black;font-family:sans-serif;font-size:13;" transform="matrix(1 0 0 1 776 1989)">can be adjusted by modifying the x-location of the margin guidelines.</text>
  <text style="stroke:none;fill:black;font-family:sans-serif;font-size:13;" transform="matrix(1 0 0 1 776 2007)">Modifications are automatically applied proportionally to all</text>
  <text style="stroke:none;fill:black;font-family:sans-serif;font-size:13;" transform="matrix(1 0 0 1 776 2025)">scales and weights.</text>
  <g transform="matrix(0.2 0 0 0.2 1289 1933)">
   <path d="m14.209 9.32617 8.49609 8.54492c4.29688 4.3457 9.22852 4.05273 13.8672-1.07422l53.4668-58.9355-4.83398-4.88281-53.0762 58.3984c-1.75781 2.00195-3.41797 2.49023-5.76172 0.146484l-5.85938-5.81055c-2.34375-2.29492-1.80664-4.00391 0.195312-5.81055l57.373-54.0039-4.88281-4.83398-57.959 54.4434c-4.93164 4.58984-5.32227 9.47266-1.02539 13.8184Zm32.0801-90.9668c-2.09961 2.05078-2.24609 4.93164-1.07422 6.88477 1.17188 1.80664 3.4668 2.97852 6.68945 2.14844 7.32422-1.70898 14.9414-2.00195 22.0703 2.68555l-2.92969 7.27539c-1.70898 4.15039-0.830078 7.08008 1.85547 9.81445l11.4746 11.5723c2.44141 2.44141 4.49219 2.53906 7.32422 2.05078l5.32227-0.976562 3.32031 3.36914-0.195312 2.7832c-0.195312 2.49023 0.439453 4.39453 2.88086 6.78711l3.80859 3.71094c2.39258 2.39258 5.46875 2.53906 7.8125 0.195312l14.5508-14.5996c2.34375-2.34375 2.24609-5.32227-0.146484-7.71484l-3.85742-3.80859c-2.39258-2.39258-4.24805-3.17383-6.64062-2.97852l-2.88086 0.244141-3.22266-3.17383 1.2207-5.61523c0.634766-2.83203-0.146484-5.0293-3.07617-7.95898l-10.9863-10.9375c-16.6992-16.6016-38.8672-16.2109-53.3203-1.75781Zm7.4707 1.85547c12.1582-8.88672 28.6133-7.37305 39.7461 3.75977l12.1582 12.0605c1.17188 1.17188 1.36719 2.09961 1.02539 3.80859l-1.61133 7.42188 7.51953 7.42188 4.93164-0.292969c1.26953-0.0488281 1.66016 0.0488281 2.63672 1.02539l2.88086 2.88086-12.207 12.207-2.88086-2.88086c-0.976562-0.976562-1.12305-1.36719-1.07422-2.68555l0.341797-4.88281-7.4707-7.42188-7.61719 1.26953c-1.61133 0.341797-2.34375 0.195312-3.56445-0.976562l-10.0098-10.0098c-1.26953-1.17188-1.41602-2.00195-0.634766-3.85742l4.39453-10.4492c-7.8125-7.27539-17.9688-10.4004-28.125-7.42188-0.78125 0.195312-1.07422-0.439453-0.439453-0.976562Z"/>
  </g>
  <text style="stroke:none;fill:black;font-family:sans-serif;font-size:13;font-weight:bold;" transform="matrix(1 0 0 1 1289 1953)">Exporting</text>
  <text style="stroke:none;fill:black;font-family:sans-serif;font-size:13;" transform="matrix(1 0 0 1 1289 1971)">Symbols should be outlined when exporting to ensure the</text>
  <text style="stroke:none;fill:black;font-family:sans-serif;font-size:13;" transform="matrix(1 0 0 1 1289 1989)">design is preserved when submitting to Xcode.</text>
  <text id="template-version" style="stroke:none;fill:black;font-family:sans-serif;font-size:13;text-anchor:end;" transform="matrix(1 0 0 1 3036 1933)">Template v.6.0</text>
  <text style="stroke:none;fill:black;font-family:sans-serif;font-size:13;text-anchor:end;" transform="matrix(1 0 0 1 3036 1951)">Requires Xcode 16 or greater</text>
  <text id="descriptive-name" style="stroke:none;fill:black;font-family:sans-serif;font-size:13;text-anchor:end;" transform="matrix(1 0 0 1 3036 1969)">Generated from capsule.portrait.fill</text>
  <text style="stroke:none;fill:black;font-family:sans-serif;font-size:13;text-anchor:end;" transform="matrix(1 0 0 1 3036 1987)">Typeset at 100.0 points</text>
  <text style="stroke:none;fill:black;font-family:sans-serif;font-size:13;" transform="matrix(1 0 0 1 263 726)">Small</text>
  <text style="stroke:none;fill:black;font-family:sans-serif;font-size:13;" transform="matrix(1 0 0 1 263 1156)">Medium</text>
  <text style="stroke:none;fill:black;font-family:sans-serif;font-size:13;" transform="matrix(1 0 0 1 263 1586)">Large</text>
 </g>
 <g id="Guides">
  <g id="H-reference" style="fill:#27AAE1;stroke:none;" transform="matrix(1 0 0 1 339 696)">
   <path d="M0.993654 0L3.63775 0L29.3281-67.1323L30.0303-67.1323L30.0303-70.459L28.1226-70.459ZM11.6885-24.4799L46.9815-24.4799L46.2315-26.7285L12.4385-26.7285ZM55.1196 0L57.7637 0L30.6382-70.459L29.4326-70.459L29.4326-67.1323Z"/>
  </g>
  <line id="Baseline-S" style="fill:none;stroke:#27AAE1;opacity:1;stroke-width:0.5;" x1="263" x2="3036" y1="696" y2="696"/>
  <line id="Capline-S" style="fill:none;stroke:#27AAE1;opacity:1;stroke-width:0.5;" x1="263" x2="3036" y1="625.541" y2="625.541"/>
  <g id="H-reference" style="fill:#27AAE1;stroke:none;" transform="matrix(1 0 0 1 339 1126)">
   <path d="M0.993654 0L3.63775 0L29.3281-67.1323L30.0303-67.1323L30.0303-70.459L28.1226-70.459ZM11.6885-24.4799L46.9815-24.4799L46.2315-26.7285L12.4385-26.7285ZM55.1196 0L57.7637 0L30.6382-70.459L29.4326-70.459L29.4326-67.1323Z"/>
  </g>
  <line id="Baseline-M" style="fill:none;stroke:#27AAE1;opacity:1;stroke-width:0.5;" x1="263" x2="3036" y1="1126" y2="1126"/>
  <line id="Capline-M" style="fill:none;stroke:#27AAE1;opacity:1;stroke-width:0.5;" x1="263" x2="3036" y1="1055.54" y2="1055.54"/>
  <g id="H-reference" style="fill:#27AAE1;stroke:none;" transform="matrix(1 0 0 1 339 1556)">
   <path d="M0.993654 0L3.63775 0L29.3281-67.1323L30.0303-67.1323L30.0303-70.459L28.1226-70.459ZM11.6885-24.4799L46.9815-24.4799L46.2315-26.7285L12.4385-26.7285ZM55.1196 0L57.7637 0L30.6382-70.459L29.4326-70.459L29.4326-67.1323Z"/>
  </g>
  <line id="Baseline-L" style="fill:none;stroke:#27AAE1;opacity:1;stroke-width:0.5;" x1="263" x2="3036" y1="1556" y2="1556"/>
  <line id="Capline-L" style="fill:none;stroke:#27AAE1;opacity:1;stroke-width:0.5;" x1="263" x2="3036" y1="1485.54" y2="1485.54"/>
  <line id="right-margin-Black-S" style="fill:none;stroke:#00AEEF;stroke-width:0.5;opacity:1.0;" x1="2981.98" x2="2981.98" y1="600.785" y2="720.121"/>
  <line id="left-margin-Black-S" style="fill:none;stroke:#00AEEF;stroke-width:0.5;opacity:1.0;" x1="2884.82" x2="2884.82" y1="600.785" y2="720.121"/>
  <line id="right-margin-Regular-S" style="fill:none;stroke:#00AEEF;stroke-width:0.5;opacity:1.0;" x1="1494.57" x2="1494.57" y1="600.785" y2="720.121"/>
  <line id="left-margin-Regular-S" style="fill:none;stroke:#00AEEF;stroke-width:0.5;opacity:1.0;" x1="1405.12" x2="1405.12" y1="600.785" y2="720.121"/>
  <line id="right-margin-Ultralight-S" style="fill:none;stroke:#00AEEF;stroke-width:0.5;opacity:1.0;" x1="601.1" x2="601.1" y1="600.785" y2="720.121"/>
  <line id="left-margin-Ultralight-S" style="fill:none;stroke:#00AEEF;stroke-width:0.5;opacity:1.0;" x1="518.322" x2="518.322" y1="600.785" y2="720.121"/>
 </g>
 <g id="Symbols">
  <g id="Black-S" transform="matrix(1 0 0 1 2884.82 696)">
   <path class="SFSymbolsPreviewWireframe" d="M48.584-83.6426C25.293-83.6426 9.76562-67.7734 9.76562-43.9941L9.76562-26.5137C9.76562-2.73438 25.293 13.1348 48.584 13.1348C71.875 13.1348 87.4023-2.73438 87.4023-26.5137L87.4023-43.9941C87.4023-67.7734 71.875-83.6426 48.584-83.6426ZM25.1792-29.9275L30.9619-29.9275C32.4621-29.9275 33.5879-30.3511 34.267-31.2715L36.2396-33.4631L32.4117-33.4631L34.7924-20.9977C35.3957-17.904 39.7722-17.907 40.2109-20.9947L40.7944-25.2122L42.1625-11.8765C42.5175-8.57398 47.3661-8.57248 47.6403-11.8765L48.5757-23.7146L49.5081-11.8675C49.7838-8.56796 54.6324-8.57097 54.9874-11.8675L56.3586-25.2122L56.9345-21.0037C57.3777-17.91 61.7542-17.91 62.3575-21.0037L64.7687-33.4706L61.7261-33.4721L62.7368-32.3705C63.7037-30.8199 65.1491-29.9275 66.9416-29.9275L71.9842-29.9275C73.4621-29.9275 74.7234-31.1873 74.7234-32.6696C74.7234-34.1503 73.4621-35.4087 71.9842-35.4087L67.3555-35.4087L66.0425-40.8555C65.3569-43.6859 61.2243-43.6889 60.6759-40.8585L60.1045-37.8203L58.6984-47.8079C58.2307-51.0297 53.5755-51.0312 53.248-47.8109L52.6247-41.5247L51.3268-57.6291C51.0526-60.9866 46.0973-60.9866 45.8216-57.6291L44.5282-41.5247L43.9004-47.8109C43.5744-51.0266 38.9162-51.0266 38.4516-47.8079L37.0485-37.8203L36.4756-40.8645C35.9271-43.6629 31.793-43.6629 31.1104-40.8645L29.7929-35.4087L25.1792-35.4087C23.7015-35.4087 22.4401-34.1503 22.4401-32.6696C22.4401-31.1873 23.7015-29.9275 25.1792-29.9275Z"/>
  </g>
  <g id="Regular-S" transform="matrix(1 0 0 1 1405.12 696)">
   <path class="SFSymbolsPreviewWireframe" d="M44.7266-80.5664C23.6816-80.5664 9.76562-67.2363 9.76562-46.2402L9.76562-24.2676C9.76562-3.27148 23.6816 10.0586 44.7266 10.0586C65.7715 10.0586 79.6875-3.27148 79.6875-24.2676L79.6875-46.2402C79.6875-67.2363 65.7715-80.5664 44.7266-80.5664ZM22.2608-30.7286L27.7992-30.7286C28.7595-30.7286 29.5482-31.1077 29.9196-31.8687L31.1907-34.8539L29.1382-34.8539L31.8308-21.8136C32.2564-19.7536 35.3309-19.7552 35.6298-21.812L37.1222-31.746L39.2022-13.1527C39.4663-10.8165 42.8395-10.8304 43.041-13.1527L44.7959-33.3965L46.5492-13.1479C46.7368-10.8133 50.11-10.8149 50.3741-13.1479L52.4557-31.746L53.9588-21.8168C54.2454-19.7568 57.3199-19.7568 57.7455-21.8168L60.4363-34.7843L58.6696-34.7704L59.61-32.3297C60.1165-31.2462 61.0248-30.7286 62.1081-30.7286L67.1903-30.7286C68.3298-30.7286 69.2625-31.6459 69.2625-32.7731C69.2625-33.9142 68.3298-34.8454 67.1903-34.8454L62.8428-34.8454L61.4165-40.4286C60.9127-42.4661 58.071-42.4677 57.668-40.4302L56.1526-33.2333L54.085-47.0702C53.7446-49.3439 50.5103-49.33 50.2723-47.0718L48.7064-33.2651L46.7275-56.3794C46.526-58.7383 43.0503-58.7383 42.8627-56.3794L40.8715-33.2651L39.3179-47.0718C39.066-49.3422 35.8301-49.3422 35.4913-47.0702L33.4254-33.2333L31.9239-40.4334C31.5209-42.3983 28.6636-42.3983 28.1614-40.4334L26.7474-34.8454L22.2608-34.8454C21.1214-34.8454 20.1886-33.9142 20.1886-32.7731C20.1886-31.6459 21.1214-30.7286 22.2608-30.7286Z"/>
  </g>
  <g id="Ultralight-S" transform="matrix(1 0 0 1 518.322 696)">
   <path class="SFSymbolsPreviewWireframe" d="M41.3662-78.6592C21.5474-78.6592 9.76562-67.2363 9.76562-48.0112L9.76562-22.4966C9.76562-3.27148 21.5474 8.15138 41.3662 8.15138C61.2305 8.15138 73.0123-3.27148 73.0123-22.4966L73.0123-48.0112C73.0123-67.2363 61.2305-78.6592 41.3662-78.6592ZM18.6633-31.983L24.8359-31.983C25.196-31.983 25.546-32.2097 25.635-32.5854L26.8047-37.465L26.3501-37.465L29.5532-22.3279C29.7455-21.4801 31.0536-21.4657 31.1913-22.3423L33.911-40.4899L36.9406-14.0747C37.064-13.0822 38.4855-13.0922 38.5744-14.0747L41.4318-46.3214L44.3037-14.1179C44.3826-13.111 45.804-13.0966 45.9274-14.1179L48.9426-40.4899L51.7011-22.2992C51.8145-21.4513 53.1226-21.4513 53.3148-22.2992L56.5079-37.415L56.0232-37.4049L57.2431-32.5854C57.3421-32.1696 57.6821-31.983 58.0278-31.983L64.1145-31.983C64.6192-31.983 65.0295-32.3976 65.0295-32.8779C65.0295-33.3683 64.6192-33.7928 64.1145-33.7928L58.6489-33.7928L57.0057-40.2252C56.7834-41.1045 55.5799-41.0901 55.4021-40.2109L52.6191-26.9768L49.6384-46.7325C49.4949-47.6906 48.1279-47.6806 48.0146-46.7181L45.1973-22.2235L42.2609-55.5817C42.172-56.5886 40.696-56.5886 40.6171-55.5817L37.6564-22.2235L34.8635-46.7181C34.7401-47.705 33.3875-47.705 33.2297-46.7325L30.2345-26.9768L27.4617-40.1821C27.2838-41.0644 26.0846-41.0644 25.8479-40.1821L24.2291-33.7928L18.6633-33.7928C18.1586-33.7928 17.7484-33.3683 17.7484-32.8779C17.7484-32.3976 18.1586-31.983 18.6633-31.983Z"/>
  </g>
 </g>
 <g id="LayerTree">
  <g class="monochrome-0 multicolor-0:tintColor hierarchical-0:tertiary"/>
  <g class="monochrome-1 multicolor-1:white hierarchical-1:primary">
   <g class="shapeGroupLayer-0"/>
  </g>
 </g>
</svg>
