<?xml version="1.0" encoding="UTF-8"?>
<svg id="Layer_2" data-name="Layer 2" xmlns="http://www.w3.org/2000/svg" viewBox="0 0 273.1 269.3">
  <g id="Layer_1-2" data-name="Layer 1">
    <g>
      <path d="M243.21,268.14c-.78.78-2.38,1.07-3.46,1.15H109.8c-4.91-.43-5.09-6.06-4.34-9.84,4.57-4.67,9.62-8.87,13.55-14.14,18.79-25.16,15.5-61.62-7.99-82.53-2.24-1.99-5.59-3.85-7.54-5.79-.31-.31-.63-.56-.66-1.05l-.02-73.17c.07-1.12.45-2.71,1.39-3.4l100.26-.45c.73.29.85,1.09.93,1.8,1,8.65-.78,19.19,0,28.04.45,5.2,4.16,9.45,9.43,10.05,8.51.97,18.88-.96,27.32.03,3.83.45,2.25,4.82,2.2,7.34-.99,46.72.97,93.61-.22,140.3-.26.52-.5,1.25-.91,1.66ZM171.24,114.35c0-10.24-8.3-18.54-18.54-18.54s-18.54,8.3-18.54,18.54,8.3,18.54,18.54,18.54,18.54-8.3,18.54-18.54ZM121.39,163.87c.3.3.78.51,1.16.71l60.07.07c2.23-.35,2.96-3.01,2.95-4.94-.03-9.1-4.93-16.9-13.13-20.74-1.83-.85-6.38-2.52-8.27-2.36-1.19.1-4.67,2.44-6.66,2.94-3.69.92-7.81.75-11.38-.6-1.6-.6-3.7-2.36-5.16-2.29-3.76.17-9.79,3.07-12.69,5.46-5.27,4.34-8.81,12.06-8.04,18.97.1.89.52,2.15,1.14,2.79ZM144.79,183.23c-1.6.38-2.91-.02-4.04,1.43-1.75,2.26-.5,6.37,2.56,6.68h83.44c5.39-1.42,3.77-8.53-1.7-8.23l-80.26.11ZM228.85,208.2c-.83-.78-2.35-1.06-3.46-1.15h-80.71c-5.16-.13-6.4,5.6-2.23,8.07l83.96.16c3.19-.47,4.91-4.74,2.44-7.07ZM142.72,230.39c-4.28,1.16-4.01,6.99.26,7.8h59.5c4.69-.53,4.28-7.63-.35-7.87l-59.41.08Z"/>
      <path d="M136.66,71.33h-31.97c-3.65,0-8.56,5.15-9.03,8.75-.77,5.83.02,11.73-.06,17.44-.22,16.5.64,33.33.04,49.89-.06,1.68-.51,3.55-.36,5.29-19.11-9.1-41.37-7.41-59.11,3.96-1.62,1.04-6.91,5.5-7.87,5.8-1.65.52-5.72.09-7.73.14-.9.02-1.73.34-2.7.37-6.93.21-11.27-2.54-11.81-9.76-1.1-14.65-1.02-29.46-1.7-44.12C2.97,79.12,1.27,49.2.26,19.18c-.14-4.12-1.08-7.14,1.75-10.87s6.88-3.08,11.05-3.31C46.68,3.2,80.29,1.73,113.92.56c4.36-.15,11.78-1.39,15.69.38,3.67,1.67,4.74,5.3,4.99,9.02.74,10.8.62,21.68,1.03,32.48.33,8.68.87,17.27,1.01,26,.02,1.02.56,1.82.02,2.89ZM110.56,33.96c2.29-2.21,1.11-6.55-2.13-7.05-2.78-.43-5.79.23-8.53.32-23.28.77-46.54,1.46-69.73,2.75-3.74.21-9.82-1.07-9.79,4.6.02,4.65,5.52,4.03,8.76,3.94,24.72-.68,50.56-1.7,75.2-3.43,2.05-.14,4.54.47,6.21-1.14ZM85.65,51.26c-17.97.48-36.14,1.5-54.1,2.31-3.34.15-10.25-1.22-10.08,4.22.15,4.62,4.55,4.42,8.01,4.31,14.11-.44,28.28-1.44,42.38-2.06,5.15-.23,10.6,0,15.74-.33,3.87-.24,7.71-.92,6.6-5.91-.76-3.4-6.03-2.6-8.55-2.54ZM62.4,79.3c-3.52.08-7.18.21-10.68.6-7.86.62-16.85-.21-24.59.71-5.68.67-5.02,8.01-.73,8.52,4.03.48,8.55-.82,12.67-.34,8.28-.44,16.63-.98,24.93-1.4,3.98-.2,9.4,1.07,8.37-5.27-.64-3.96-7.08-2.89-9.97-2.82ZM81.86,104.6c-2.19-1.95-5.46-.84-7.92-.77-15.4.44-30.71,1.21-46.14,1.72-5.01.49-4.97,7.74-.04,8.19,3.86.36,9.95-.19,14.05-.34,12.59-.47,25.25-1.53,37.91-1.74,3.22-.42,4.43-5.01,2.14-7.06Z"/>
      <path d="M252.56,172.19v-52.14c0-3.51-2.4-7.19-4.61-9.75-4.99-5.78-11.8-12.03-17.26-17.61s-11.22-10.91-16.41-16.74c7.05-6.25,17.44-11.57,14.95-22.82-2.93-13.26-21.86-16.62-31.53-8.8-2.63,2.13-6.7,7.49-5.91,11.03.38,1.71,3.65,1.77,5.22,1.95,1.01.12,4.32.5,5.06.28,1.12-.34,1.27-2.74,1.68-3.79,2.14-5.49,12.05-5.32,14.35.2,2.11,5.08-1.6,8.23-5.03,11.17-.92.79-7.36,6.16-7.86,6.16h-54.7c-.88,0-.19-1.79-.17-2.22.31-8.46,1.32-16.88,2.05-25.3.41-4.76.2-12.71,1.46-17.01,2.36-8.09,12.22-5.76,18.21-5.39,24.17,1.52,48.34,3.52,72.48,5.47,6.35.51,13.6.42,19.8,1.4s9.13,4.97,8.75,11.08l-10.98,124.06c-.87,5.72-3.72,8.27-9.53,8.76Z"/>
      <path d="M123.59,208.79c0,29.83-24.19,54.02-54.02,54.02s-54.02-24.19-54.02-54.02,24.19-54.02,54.02-54.02,54.02,24.19,54.02,54.02ZM90.12,190.68c0-11.09-8.99-20.07-20.07-20.07s-20.07,8.99-20.07,20.07,8.99,20.07,20.07,20.07,20.07-8.99,20.07-20.07ZM57.96,215.36c-11.92.85-22.38,11.41-23.18,23.33-.24,3.66-.25,4.41,2.39,6.84,17.54,16.13,47.12,16.67,64.97.68,2.57-2.31,3.56-3.16,3.41-6.84-.46-11.5-9.02-20.38-19.82-23.25-5.45-1.45-4.98-.52-9.65.96-3.96,1.25-7.98,1.32-11.97.15-2.2-.64-3.74-2.03-6.15-1.86Z"/>
      <path d="M210.85,83.98l28.38,29.4h-25.13c-1.02,0-3.25-2.53-3.25-3.59v-25.81Z"/>
    </g>
  </g>
</svg>