<?xml version="1.0" encoding="UTF-8"?>
<!--Generator: Apple Native CoreSVG 338-->
<!DOCTYPE svg
PUBLIC "-//W3C//DTD SVG 1.1//EN"
       "http://www.w3.org/Graphics/SVG/1.1/DTD/svg11.dtd">
<svg version="1.1" xmlns="http://www.w3.org/2000/svg" xmlns:xlink="http://www.w3.org/1999/xlink" viewBox="0 0 3300 2200">
 <!--glyph: "", point size: 100.0, font version: "20.0d8e1", template writer version: "138.0.0"-->
 <style>.monochrome-0 {-sfsymbols-motion-group:1;-sfsymbols-indices:0 1;-sfsymbols-layer-tags:4ab677997b63458 pentagon}
.monochrome-1 {-sfsymbols-motion-group:0;-sfsymbols-always-pulses:true;-sfsymbols-layer-tags:4ab677997b63458}

.multicolor-0:tintColor {-sfsymbols-motion-group:1;-sfsymbols-indices:0 1;-sfsymbols-layer-tags:4ab677997b63458 pentagon}
.multicolor-1:tintColor {-sfsymbols-motion-group:0;-sfsymbols-always-pulses:true;-sfsymbols-layer-tags:4ab677997b63458}

.hierarchical-0:secondary {-sfsymbols-motion-group:1;-sfsymbols-indices:0 1;-sfsymbols-layer-tags:4ab677997b63458 pentagon}
.hierarchical-1:primary {-sfsymbols-motion-group:0;-sfsymbols-layer-tags:4ab677997b63458}

.shapeGroupLayer-0 {-sfsymbols-fill-action:draw;-sfsymbols-indices:2}

.SFSymbolsPreviewWireframe {fill:none;opacity:1.0;stroke:black;stroke-width:0.5}
</style>
 <g id="Notes">
  <rect height="2200" id="artboard" style="fill:white;opacity:1" width="3300" x="0" y="0"/>
  <line style="fill:none;stroke:black;opacity:1;stroke-width:0.5;" x1="263" x2="3036" y1="292" y2="292"/>
  <text style="stroke:none;fill:black;font-family:sans-serif;font-size:13;font-weight:bold;" transform="matrix(1 0 0 1 263 322)">Weight/Scale Variations</text>
  <text style="stroke:none;fill:black;font-family:sans-serif;font-size:13;text-anchor:middle;" transform="matrix(1 0 0 1 559.711 322)">Ultralight</text>
  <text style="stroke:none;fill:black;font-family:sans-serif;font-size:13;text-anchor:middle;" transform="matrix(1 0 0 1 856.422 322)">Thin</text>
  <text style="stroke:none;fill:black;font-family:sans-serif;font-size:13;text-anchor:middle;" transform="matrix(1 0 0 1 1153.13 322)">Light</text>
  <text style="stroke:none;fill:black;font-family:sans-serif;font-size:13;text-anchor:middle;" transform="matrix(1 0 0 1 1449.84 322)">Regular</text>
  <text style="stroke:none;fill:black;font-family:sans-serif;font-size:13;text-anchor:middle;" transform="matrix(1 0 0 1 1746.56 322)">Medium</text>
  <text style="stroke:none;fill:black;font-family:sans-serif;font-size:13;text-anchor:middle;" transform="matrix(1 0 0 1 2043.27 322)">Semibold</text>
  <text style="stroke:none;fill:black;font-family:sans-serif;font-size:13;text-anchor:middle;" transform="matrix(1 0 0 1 2339.98 322)">Bold</text>
  <text style="stroke:none;fill:black;font-family:sans-serif;font-size:13;text-anchor:middle;" transform="matrix(1 0 0 1 2636.69 322)">Heavy</text>
  <text style="stroke:none;fill:black;font-family:sans-serif;font-size:13;text-anchor:middle;" transform="matrix(1 0 0 1 2933.4 322)">Black</text>
  <line style="fill:none;stroke:black;opacity:1;stroke-width:0.5;" x1="263" x2="3036" y1="1903" y2="1903"/>
  <g transform="matrix(0.2 0 0 0.2 263 1933)">
   <path d="m46.2402 4.15039c21.7773 0 39.4531-17.627 39.4531-39.4043s-17.6758-39.4043-39.4531-39.4043c-21.7285 0-39.4043 17.627-39.4043 39.4043s17.6758 39.4043 39.4043 39.4043Zm0-7.42188c-17.6758 0-31.9336-14.3066-31.9336-31.9824s14.2578-31.9824 31.9336-31.9824 31.9824 14.3066 31.9824 31.9824-14.3066 31.9824-31.9824 31.9824Zm-17.9688-31.9824c0 2.14844 1.51367 3.61328 3.75977 3.61328h10.498v10.5957c0 2.19727 1.46484 3.71094 3.61328 3.71094 2.24609 0 3.71094-1.51367 3.71094-3.71094v-10.5957h10.5957c2.19727 0 3.71094-1.46484 3.71094-3.61328 0-2.19727-1.51367-3.71094-3.71094-3.71094h-10.5957v-10.5469c0-2.24609-1.46484-3.75977-3.71094-3.75977-2.14844 0-3.61328 1.51367-3.61328 3.75977v10.5469h-10.498c-2.24609 0-3.75977 1.51367-3.75977 3.71094Z"/>
  </g>
  <g transform="matrix(0.2 0 0 0.2 281.506 1933)">
   <path d="m58.5449 14.5508c27.4902 0 49.8047-22.3145 49.8047-49.8047s-22.3145-49.8047-49.8047-49.8047-49.8047 22.3145-49.8047 49.8047 22.3145 49.8047 49.8047 49.8047Zm0-8.30078c-22.9492 0-41.5039-18.5547-41.5039-41.5039s18.5547-41.5039 41.5039-41.5039 41.5039 18.5547 41.5039 41.5039-18.5547 41.5039-41.5039 41.5039Zm-22.6562-41.5039c0 2.39258 1.66016 4.00391 4.15039 4.00391h14.3555v14.4043c0 2.44141 1.66016 4.15039 4.05273 4.15039 2.44141 0 4.15039-1.66016 4.15039-4.15039v-14.4043h14.4043c2.44141 0 4.15039-1.61133 4.15039-4.00391 0-2.44141-1.70898-4.15039-4.15039-4.15039h-14.4043v-14.3555c0-2.49023-1.70898-4.19922-4.15039-4.19922-2.39258 0-4.05273 1.70898-4.05273 4.19922v14.3555h-14.3555c-2.49023 0-4.15039 1.70898-4.15039 4.15039Z"/>
  </g>
  <g transform="matrix(0.2 0 0 0.2 304.924 1933)">
   <path d="m74.8535 28.3203c35.1074 0 63.623-28.4668 63.623-63.5742s-28.5156-63.623-63.623-63.623-63.5742 28.5156-63.5742 63.623 28.4668 63.5742 63.5742 63.5742Zm0-9.08203c-30.127 0-54.4922-24.3652-54.4922-54.4922s24.3652-54.4922 54.4922-54.4922 54.4922 24.3652 54.4922 54.4922-24.3652 54.4922-54.4922 54.4922Zm-28.8574-54.4922c0 2.58789 1.85547 4.39453 4.58984 4.39453h19.7266v19.7754c0 2.68555 1.85547 4.58984 4.44336 4.58984 2.68555 0 4.54102-1.85547 4.54102-4.58984v-19.7754h19.7754c2.68555 0 4.58984-1.80664 4.58984-4.39453 0-2.73438-1.85547-4.58984-4.58984-4.58984h-19.7754v-19.7266c0-2.73438-1.85547-4.63867-4.54102-4.63867-2.58789 0-4.44336 1.9043-4.44336 4.63867v19.7266h-19.7266c-2.73438 0-4.58984 1.85547-4.58984 4.58984Z"/>
  </g>
  <text style="stroke:none;fill:black;font-family:sans-serif;font-size:13;font-weight:bold;" transform="matrix(1 0 0 1 263 1953)">Design Variations</text>
  <text style="stroke:none;fill:black;font-family:sans-serif;font-size:13;" transform="matrix(1 0 0 1 263 1971)">Symbols are supported in up to nine weights and three scales.</text>
  <text style="stroke:none;fill:black;font-family:sans-serif;font-size:13;" transform="matrix(1 0 0 1 263 1989)">For optimal layout with text and other symbols, vertically align</text>
  <text style="stroke:none;fill:black;font-family:sans-serif;font-size:13;" transform="matrix(1 0 0 1 263 2007)">symbols with the adjacent text.</text>
  <line style="fill:none;stroke:#00AEEF;stroke-width:0.5;opacity:1.0;" x1="776" x2="776" y1="1919" y2="1933"/>
  <g transform="matrix(0.2 0 0 0.2 776 1933)">
   <path d="m16.5527 0.78125c2.58789 0 3.85742-0.976562 4.78516-3.71094l6.29883-17.2363h28.8086l6.29883 17.2363c0.927734 2.73438 2.19727 3.71094 4.73633 3.71094 2.58789 0 4.24805-1.5625 4.24805-4.00391 0-0.830078-0.146484-1.61133-0.537109-2.63672l-22.9004-60.9863c-1.12305-2.97852-3.125-4.49219-6.25-4.49219-3.02734 0-5.07812 1.46484-6.15234 4.44336l-22.9004 61.084c-0.390625 1.02539-0.537109 1.80664-0.537109 2.63672 0 2.44141 1.5625 3.95508 4.10156 3.95508Zm13.4766-28.3691 11.8652-32.8613h0.244141l11.8652 32.8613Z"/>
  </g>
  <line style="fill:none;stroke:#00AEEF;stroke-width:0.5;opacity:1.0;" x1="792.836" x2="792.836" y1="1919" y2="1933"/>
  <text style="stroke:none;fill:black;font-family:sans-serif;font-size:13;font-weight:bold;" transform="matrix(1 0 0 1 776 1953)">Margins</text>
  <text style="stroke:none;fill:black;font-family:sans-serif;font-size:13;" transform="matrix(1 0 0 1 776 1971)">Leading and trailing margins on the left and right side of each symbol</text>
  <text style="stroke:none;fill:black;font-family:sans-serif;font-size:13;" transform="matrix(1 0 0 1 776 1989)">can be adjusted by modifying the x-location of the margin guidelines.</text>
  <text style="stroke:none;fill:black;font-family:sans-serif;font-size:13;" transform="matrix(1 0 0 1 776 2007)">Modifications are automatically applied proportionally to all</text>
  <text style="stroke:none;fill:black;font-family:sans-serif;font-size:13;" transform="matrix(1 0 0 1 776 2025)">scales and weights.</text>
  <g transform="matrix(0.2 0 0 0.2 1289 1933)">
   <path d="m14.209 9.32617 8.49609 8.54492c4.29688 4.3457 9.22852 4.05273 13.8672-1.07422l53.4668-58.9355-4.83398-4.88281-53.0762 58.3984c-1.75781 2.00195-3.41797 2.49023-5.76172 0.146484l-5.85938-5.81055c-2.34375-2.29492-1.80664-4.00391 0.195312-5.81055l57.373-54.0039-4.88281-4.83398-57.959 54.4434c-4.93164 4.58984-5.32227 9.47266-1.02539 13.8184Zm32.0801-90.9668c-2.09961 2.05078-2.24609 4.93164-1.07422 6.88477 1.17188 1.80664 3.4668 2.97852 6.68945 2.14844 7.32422-1.70898 14.9414-2.00195 22.0703 2.68555l-2.92969 7.27539c-1.70898 4.15039-0.830078 7.08008 1.85547 9.81445l11.4746 11.5723c2.44141 2.44141 4.49219 2.53906 7.32422 2.05078l5.32227-0.976562 3.32031 3.36914-0.195312 2.7832c-0.195312 2.49023 0.439453 4.39453 2.88086 6.78711l3.80859 3.71094c2.39258 2.39258 5.46875 2.53906 7.8125 0.195312l14.5508-14.5996c2.34375-2.34375 2.24609-5.32227-0.146484-7.71484l-3.85742-3.80859c-2.39258-2.39258-4.24805-3.17383-6.64062-2.97852l-2.88086 0.244141-3.22266-3.17383 1.2207-5.61523c0.634766-2.83203-0.146484-5.0293-3.07617-7.95898l-10.9863-10.9375c-16.6992-16.6016-38.8672-16.2109-53.3203-1.75781Zm7.4707 1.85547c12.1582-8.88672 28.6133-7.37305 39.7461 3.75977l12.1582 12.0605c1.17188 1.17188 1.36719 2.09961 1.02539 3.80859l-1.61133 7.42188 7.51953 7.42188 4.93164-0.292969c1.26953-0.0488281 1.66016 0.0488281 2.63672 1.02539l2.88086 2.88086-12.207 12.207-2.88086-2.88086c-0.976562-0.976562-1.12305-1.36719-1.07422-2.68555l0.341797-4.88281-7.4707-7.42188-7.61719 1.26953c-1.61133 0.341797-2.34375 0.195312-3.56445-0.976562l-10.0098-10.0098c-1.26953-1.17188-1.41602-2.00195-0.634766-3.85742l4.39453-10.4492c-7.8125-7.27539-17.9688-10.4004-28.125-7.42188-0.78125 0.195312-1.07422-0.439453-0.439453-0.976562Z"/>
  </g>
  <text style="stroke:none;fill:black;font-family:sans-serif;font-size:13;font-weight:bold;" transform="matrix(1 0 0 1 1289 1953)">Exporting</text>
  <text style="stroke:none;fill:black;font-family:sans-serif;font-size:13;" transform="matrix(1 0 0 1 1289 1971)">Symbols should be outlined when exporting to ensure the</text>
  <text style="stroke:none;fill:black;font-family:sans-serif;font-size:13;" transform="matrix(1 0 0 1 1289 1989)">design is preserved when submitting to Xcode.</text>
  <text id="template-version" style="stroke:none;fill:black;font-family:sans-serif;font-size:13;text-anchor:end;" transform="matrix(1 0 0 1 3036 1933)">Template v.6.0</text>
  <text style="stroke:none;fill:black;font-family:sans-serif;font-size:13;text-anchor:end;" transform="matrix(1 0 0 1 3036 1951)">Requires Xcode 16 or greater</text>
  <text id="descriptive-name" style="stroke:none;fill:black;font-family:sans-serif;font-size:13;text-anchor:end;" transform="matrix(1 0 0 1 3036 1969)">Generated from pentagon</text>
  <text style="stroke:none;fill:black;font-family:sans-serif;font-size:13;text-anchor:end;" transform="matrix(1 0 0 1 3036 1987)">Typeset at 100.0 points</text>
  <text style="stroke:none;fill:black;font-family:sans-serif;font-size:13;" transform="matrix(1 0 0 1 263 726)">Small</text>
  <text style="stroke:none;fill:black;font-family:sans-serif;font-size:13;" transform="matrix(1 0 0 1 263 1156)">Medium</text>
  <text style="stroke:none;fill:black;font-family:sans-serif;font-size:13;" transform="matrix(1 0 0 1 263 1586)">Large</text>
 </g>
 <g id="Guides">
  <g id="H-reference" style="fill:#27AAE1;stroke:none;" transform="matrix(1 0 0 1 339 696)">
   <path d="M0.993654 0L3.63775 0L29.3281-67.1323L30.0303-67.1323L30.0303-70.459L28.1226-70.459ZM11.6885-24.4799L46.9815-24.4799L46.2315-26.7285L12.4385-26.7285ZM55.1196 0L57.7637 0L30.6382-70.459L29.4326-70.459L29.4326-67.1323Z"/>
  </g>
  <line id="Baseline-S" style="fill:none;stroke:#27AAE1;opacity:1;stroke-width:0.5;" x1="263" x2="3036" y1="696" y2="696"/>
  <line id="Capline-S" style="fill:none;stroke:#27AAE1;opacity:1;stroke-width:0.5;" x1="263" x2="3036" y1="625.541" y2="625.541"/>
  <g id="H-reference" style="fill:#27AAE1;stroke:none;" transform="matrix(1 0 0 1 339 1126)">
   <path d="M0.993654 0L3.63775 0L29.3281-67.1323L30.0303-67.1323L30.0303-70.459L28.1226-70.459ZM11.6885-24.4799L46.9815-24.4799L46.2315-26.7285L12.4385-26.7285ZM55.1196 0L57.7637 0L30.6382-70.459L29.4326-70.459L29.4326-67.1323Z"/>
  </g>
  <line id="Baseline-M" style="fill:none;stroke:#27AAE1;opacity:1;stroke-width:0.5;" x1="263" x2="3036" y1="1126" y2="1126"/>
  <line id="Capline-M" style="fill:none;stroke:#27AAE1;opacity:1;stroke-width:0.5;" x1="263" x2="3036" y1="1055.54" y2="1055.54"/>
  <g id="H-reference" style="fill:#27AAE1;stroke:none;" transform="matrix(1 0 0 1 339 1556)">
   <path d="M0.993654 0L3.63775 0L29.3281-67.1323L30.0303-67.1323L30.0303-70.459L28.1226-70.459ZM11.6885-24.4799L46.9815-24.4799L46.2315-26.7285L12.4385-26.7285ZM55.1196 0L57.7637 0L30.6382-70.459L29.4326-70.459L29.4326-67.1323Z"/>
  </g>
  <line id="Baseline-L" style="fill:none;stroke:#27AAE1;opacity:1;stroke-width:0.5;" x1="263" x2="3036" y1="1556" y2="1556"/>
  <line id="Capline-L" style="fill:none;stroke:#27AAE1;opacity:1;stroke-width:0.5;" x1="263" x2="3036" y1="1485.54" y2="1485.54"/>
  <line id="right-margin-Black-S" style="fill:none;stroke:#00AEEF;stroke-width:0.5;opacity:1.0;" x1="2988.31" x2="2988.31" y1="600.785" y2="720.121"/>
  <line id="left-margin-Black-S" style="fill:none;stroke:#00AEEF;stroke-width:0.5;opacity:1.0;" x1="2878.49" x2="2878.49" y1="600.785" y2="720.121"/>
  <line id="right-margin-Regular-S" style="fill:none;stroke:#00AEEF;stroke-width:0.5;opacity:1.0;" x1="1501.41" x2="1501.41" y1="600.785" y2="720.121"/>
  <line id="left-margin-Regular-S" style="fill:none;stroke:#00AEEF;stroke-width:0.5;opacity:1.0;" x1="1398.28" x2="1398.28" y1="600.785" y2="720.121"/>
  <line id="right-margin-Ultralight-S" style="fill:none;stroke:#00AEEF;stroke-width:0.5;opacity:1.0;" x1="609.185" x2="609.185" y1="600.785" y2="720.121"/>
  <line id="left-margin-Ultralight-S" style="fill:none;stroke:#00AEEF;stroke-width:0.5;opacity:1.0;" x1="510.237" x2="510.237" y1="600.785" y2="720.121"/>
 </g>
 <g id="Symbols">
  <g id="Black-S" transform="matrix(1 0 0 1 2878.49 696)">
   <path class="SFSymbolsPreviewWireframe" d="M10.7422-35.4492L21.875-2.49023C24.2676 4.54102 29.5898 8.54492 37.0605 8.54492L72.8027 8.54492C80.2734 8.54492 85.5957 4.54102 87.9883-2.49023L99.1211-35.4492C101.514-42.5781 99.3652-48.9258 93.457-53.2715L64.3555-74.6582C58.3008-79.1016 51.5625-79.1016 45.5078-74.6582L16.4062-53.2715C10.498-48.9258 8.34961-42.5781 10.7422-35.4492ZM23.9746-38.6719C23.3887-40.332 23.9258-41.7969 25.4883-42.9688L52.6367-62.9883C54.0039-64.0137 55.8105-64.0137 57.1777-62.9883L84.375-42.9688C85.9375-41.7969 86.4746-40.332 85.8887-38.6719L75.3906-7.8125C74.8535-6.20117 73.291-5.12695 71.7285-5.12695L38.1348-5.12695C36.5723-5.12695 35.0098-6.20117 34.4727-7.8125ZM31.5025-26.4275L37.2851-26.4275C38.7854-26.4275 39.9111-26.8511 40.5902-27.7715L42.5629-29.9631L38.7349-29.9631L41.1157-17.4977C41.719-14.404 46.0954-14.407 46.5342-17.4947L47.1176-21.7122L48.4857-8.37654C48.8407-5.07398 53.6894-5.07248 53.9635-8.37654L54.899-20.2146L55.8314-8.36752C56.1071-5.06796 60.9557-5.07097 61.3107-8.36752L62.6818-21.7122L63.2578-17.5037C63.701-14.41 68.0775-14.41 68.6807-17.5037L71.092-29.9706L68.0494-29.9721L69.06-28.8705C70.0269-27.3199 71.4723-26.4275 73.2648-26.4275L78.3074-26.4275C79.7853-26.4275 81.0466-27.6873 81.0466-29.1696C81.0466-30.6503 79.7853-31.9087 78.3074-31.9087L73.6788-31.9087L72.3657-37.3555C71.6802-40.1859 67.5475-40.1889 66.9991-37.3585L66.4277-34.3203L65.0216-44.3079C64.554-47.5297 59.8987-47.5312 59.5712-44.3109L58.948-38.0247L57.6501-54.1291C57.3759-57.4866 52.4205-57.4866 52.1449-54.1291L50.8515-38.0247L50.2237-44.3109C49.8976-47.5266 45.2394-47.5266 44.7748-44.3079L43.3718-34.3203L42.7988-37.3645C42.2504-40.1629 38.1162-40.1629 37.4337-37.3645L36.1161-31.9087L31.5025-31.9087C30.0248-31.9087 28.7634-30.6503 28.7634-29.1696C28.7634-27.6873 30.0248-26.4275 31.5025-26.4275Z"/>
  </g>
  <g id="Regular-S" transform="matrix(1 0 0 1 1398.28 696)">
   <path class="SFSymbolsPreviewWireframe" d="M10.498-37.4512L21.6797-2.49023C23.4863 3.125 27.5879 6.20117 33.6426 6.20117L69.4824 6.20117C75.5371 6.20117 79.6387 3.125 81.4453-2.49023L92.627-37.4512C94.4336-43.2129 92.9199-48.0469 88.1836-51.5625L59.0332-72.9492C54.1016-76.6113 49.0234-76.6113 44.0918-72.9492L14.9414-51.5625C10.2051-48.0469 8.69141-43.2129 10.498-37.4512ZM17.1387-39.5996C16.2598-42.3828 16.8457-44.1406 19.2383-45.8984L48.3398-67.334C50.7324-69.0918 52.3926-69.0918 54.834-67.334L83.9355-45.8984C86.2793-44.1406 86.8652-42.3828 85.9863-39.5996L74.8535-4.6875C73.9258-1.9043 72.4609-0.878906 69.4824-0.878906L33.6426-0.878906C30.6641-0.878906 29.1992-1.9043 28.3203-4.6875ZM29.0968-27.2286L34.6351-27.2286C35.5955-27.2286 36.3842-27.6077 36.7555-28.3687L38.0267-31.3539L35.9741-31.3539L38.6667-18.3136C39.0924-16.2536 42.1668-16.2552 42.4657-18.312L43.9582-28.246L46.0381-9.65273C46.3022-7.3165 49.6754-7.3304 49.8769-9.65273L51.6319-29.8965L53.3851-9.64786C53.5728-7.31326 56.9459-7.31488 57.21-9.64786L59.2916-28.246L60.7947-18.3168C61.0813-16.2568 64.1558-16.2568 64.5815-18.3168L67.2723-31.2843L65.5055-31.2704L66.4459-28.8297C66.9525-27.7462 67.8607-27.2286 68.944-27.2286L74.0262-27.2286C75.1658-27.2286 76.0985-28.1459 76.0985-29.2731C76.0985-30.4142 75.1658-31.3454 74.0262-31.3454L69.6787-31.3454L68.2524-36.9286C67.7487-38.9661 64.9069-38.9677 64.5039-36.9302L62.9885-29.7333L60.921-43.5702C60.5805-45.8439 57.3463-45.83 57.1082-43.5718L55.5424-29.7651L53.5634-52.8794C53.3619-55.2383 49.8862-55.2383 49.6986-52.8794L47.7074-29.7651L46.1538-43.5718C45.9019-45.8422 42.666-45.8422 42.3272-43.5702L40.2613-29.7333L38.7598-36.9334C38.3568-38.8983 35.4995-38.8983 34.9973-36.9334L33.5833-31.3454L29.0968-31.3454C27.9573-31.3454 27.0245-30.4142 27.0245-29.2731C27.0245-28.1459 27.9573-27.2286 29.0968-27.2286Z"/>
  </g>
  <g id="Ultralight-S" transform="matrix(1 0 0 1 510.237 696)">
   <path class="SFSymbolsPreviewWireframe" d="M10.4526-38.4502L22.1338-2.8081C23.6226 1.76271 25.8623 3.43117 30.6909 3.43117L68.3018 3.43117C73.1758 3.43117 75.4156 1.76271 76.9043-2.8081L88.4038-37.9053C90.0288-42.9404 89.1963-45.7764 85.232-48.7017L55.2642-70.7695C51.0137-73.8413 47.979-73.8413 43.7739-70.7695L13.7608-48.7017C9.8418-45.8218 8.96387-43.1221 10.4526-38.4502ZM12.5977-39.1455C11.4463-42.6553 12.0777-44.6401 15.106-46.852L45.0703-69.0141C48.3711-71.4531 50.667-71.4531 53.9258-69.0141L83.9355-46.852C86.9604-44.6401 87.5464-42.519 86.2588-38.6006L74.8535-3.46144C73.6987 0.00291467 72.0068 1.20994 68.3018 1.20994L30.6909 1.20994C27.0313 1.20994 25.3394 0.00291467 24.188-3.46144ZM26.7481-28.483L32.9206-28.483C33.2807-28.483 33.6307-28.7097 33.7197-29.0854L34.8894-33.965L34.4348-33.965L37.6379-18.8279C37.8302-17.9801 39.1383-17.9657 39.276-18.8423L41.9957-36.9899L45.0253-10.5747C45.1487-9.58217 46.5702-9.59219 46.6591-10.5747L49.5166-42.8214L52.3884-10.6179C52.4673-9.61095 53.8887-9.59656 54.0121-10.6179L57.0274-36.9899L59.7858-18.7992C59.8992-17.9513 61.2073-17.9513 61.3996-18.7992L64.5926-33.915L64.1079-33.9049L65.3278-29.0854C65.4268-28.6696 65.7668-28.483 66.1125-28.483L72.1992-28.483C72.7039-28.483 73.1142-28.8976 73.1142-29.3779C73.1142-29.8683 72.7039-30.2928 72.1992-30.2928L66.7336-30.2928L65.0904-36.7252C64.8681-37.6045 63.6646-37.5901 63.4868-36.7109L60.7038-23.4768L57.7231-43.2325C57.5797-44.1906 56.2127-44.1806 56.0993-43.2181L53.282-18.7235L50.3456-52.0817C50.2567-53.0886 48.7807-53.0886 48.7019-52.0817L45.7411-18.7235L42.9482-43.2181C42.8248-44.205 41.4722-44.205 41.3144-43.2325L38.3192-23.4768L35.5464-36.6821C35.3685-37.5644 34.1693-37.5644 33.9326-36.6821L32.3138-30.2928L26.7481-30.2928C26.2433-30.2928 25.8331-29.8683 25.8331-29.3779C25.8331-28.8976 26.2433-28.483 26.7481-28.483Z"/>
  </g>
 </g>
 <g id="LayerTree">
  <g class="monochrome-0 multicolor-0:tintColor hierarchical-0:secondary"/>
  <g class="monochrome-1 multicolor-1:tintColor hierarchical-1:primary">
   <g class="shapeGroupLayer-0"/>
  </g>
 </g>
</svg>
