<?xml version="1.0" encoding="UTF-8"?>
<svg id="Layer_2" xmlns="http://www.w3.org/2000/svg" viewBox="0 0 506.89 38.05">
  <defs>
    <style>
      .cls-1, .cls-2, .cls-3 {
        fill: #010101;
      }

      .cls-4 {
        isolation: isolate;
        opacity: .71;
      }

      .cls-2 {
        fill-rule: evenodd;
      }

      .cls-3, .cls-5 {
        opacity: .71;
      }

      .cls-6 {
        fill: rgba(1, 1, 1, 0);
      }
    </style>
  </defs>
  <g id="Layer_2-2" data-name="Layer_2">
    <g id="Layer_1-2">
      <g class="cls-4">
        <g>
          <g>
            <path class="cls-1" d="M490.09,10.2l-.08-1.43-.08-.76h13.1l-.08.76-.67,7.14-.59,5.21v.42l-5.29,1.51-5.38-1.51-.34-4.12h2.6l.17,2.1,2.94.76,2.94-.84.34-3.44h-6.13v-.59l-.08-1.34-.08-.67h6.63l.25-2.6h-10.08l-.08-.59h-.01ZM485.89,3.99l1.93,21.41,8.57,2.35,8.57-2.35,1.93-21.41h-21Z"/>
            <path class="cls-1" d="M458.95,4.12h20.93l-1.84,21.19-8.54,2.26-8.54-2.26-2.01-21.19h0ZM460.96,35.66h1.34v-1.34h1.17v1.34h1.34v-3.94h-1.34v1.26h-1.17v-1.26h-1.34v3.94ZM475.95,8.98l.08-.59h-13.15l.08.75.67,7.29h9.13l-.34,3.27-2.93.59v.08l-2.93-.75-.17-2.01h-2.68l.42,4.02,5.36,1.42,5.36-1.42.08-.42.59-6.78.08-.5h-9.55l-.25-2.85h10.05l.08-.67v-1.42h.02ZM466.57,35.66h1.34v-2.68h1.17v-1.34h-3.68v1.34h1.17v2.68h0ZM469.59,31.64v3.94h1.26v-2.01l.92,1.42.92-1.42v2.01h1.34v-3.94h-1.42l-.84,1.42-.84-1.42h-1.34ZM474.7,31.64v3.94h3.18v-1.34h-1.84v-2.68h-1.34v.08Z"/>
          </g>
          <g>
            <path class="cls-1" d="M136.99,27.58h-24.21V3.37h24.21v24.21ZM125.98,22.42v-8.05h-2.27v7.5c0,.48-.07.82-.14,1.03-.21.34-.41.55-.76.55s-.62,0-.83-.07-.34-.21-.48-.34c-.14-.14-.21-.27-.34-.48,0-.07-.07-.14-.07-.14l-.07-.07-1.86,1.17c.14.27.34.62.55.82.21.27.48.48.76.69.41.27.89.41,1.44.48s1.17.07,1.72-.14c.41-.14.76-.28,1.1-.55.34-.21.55-.55.76-.89.34-.41.48-.89.48-1.51M134.99,23.38c0-.07.07-.21.14-.55.07-.34.07-.69-.07-1.17-.07-.55-.34-1.03-.83-1.51-.48-.48-1.17-.96-2.27-1.38-.34-.14-.76-.34-1.1-.48-.34-.14-.62-.41-.76-.62-.07-.14-.07-.28-.07-.41v-.34c.07-.34.27-.55.62-.62.34-.07.62-.14.96,0,.21.07.41.21.55.34.14.14.34.34.41.62.55-.34.82-.55.96-.62.14-.07.41-.27.76-.48-.14-.21-.21-.34-.34-.48-.14-.14-.21-.21-.28-.28-.34-.34-.69-.62-1.17-.82-.48-.21-1.03-.28-1.72-.28l-.76.07c-.34.07-.69.21-.96.41-.28.21-.55.41-.76.62-.55.69-.76,1.44-.62,2.41.14.96.55,1.65,1.24,2.13.69.55,1.44.89,2.27,1.17.83.27,1.31.62,1.38,1.1.14.62,0,1.03-.48,1.24s-.96.27-1.51.21c-.41-.07-.76-.21-1.03-.48-.28-.28-.55-.48-.76-.89-.48.28-.76.41-.89.55s-.48.27-.96.55c.14.27.21.41.34.55.14.14.28.34.48.55.41.48,1.03.76,1.72.96s1.38.27,2.13.21c.76-.07,1.38-.27,1.93-.62.55-.34,1.24-1.03,1.44-1.65"/>
            <path class="cls-1" d="M424.79,15.74h-.34c-.15,1.42-.34,3.17-2.68,3.17h-1.1c-.62,0-.65-.09-.65-.56v-7.44c0-.48,0-.67,1.27-.67h.45v-.42c-.48.04-1.69.04-2.24.04-.51,0-1.56,0-2.03-.04v.42h.33c1.02,0,1.05.15,1.05.66v7.35c0,.5-.03.65-1.05.65h-.33v.43h6.95l.38-3.6h-.01Z"/>
            <path class="cls-1" d="M425.05,9.29c-.06-.15-.08-.21-.27-.21s-.22.06-.28.21l-2.25,5.42c-.09.23-.26.64-1.14.64v.33c.33-.03.67-.04,1-.04.38,0,1.11.04,1.17.04v-.33c-.43,0-.7-.19-.7-.44,0-.08.01-.1.05-.19l.47-1.14h2.76l.57,1.35s.04.12.04.16c0,.27-.52.27-.79.27v.33c.49-.02,1.12-.04,1.45-.04.46,0,1.19.03,1.3.04v-.33h-.2c-.65,0-.73-.1-.83-.35l-2.37-5.7.02-.02ZM424.5,10.23l1.24,3.01h-2.49l1.25-3.01Z"/>
            <path class="cls-1" d="M435.52,9.82h-8.27l-.26,2.92h.34c.19-2.09.39-2.51,2.44-2.51.24,0,.59,0,.73.02.28.06.28.19.28.49v6.85c0,.44,0,.63-1.42.63h-.54v.4c.56-.04,1.94-.04,2.56-.04s2.02,0,2.58.04v-.4h-.54c-1.42,0-1.42-.18-1.42-.63v-6.85c0-.26,0-.43.24-.49.15-.02.52-.02.77-.02,2.05,0,2.25.42,2.44,2.51h.34l-.26-2.92h0Z"/>
            <path class="cls-1" d="M435.65,20.45c0,.5-.03.65-1.03.65h-.31v.44h7.51l.55-3.61h-.33c-.33,2.16-.63,3.18-2.87,3.18h-1.73c-.62,0-.64-.09-.64-.56v-3.74h1.17c1.27,0,1.41.45,1.41,1.64h.32v-3.72h-.32c0,1.21-.14,1.64-1.41,1.64h-1.17v-3.36c0-.47.02-.56.64-.56h1.68c1.99,0,2.34.77,2.55,2.71h.33l-.37-3.15h-7.33v.44h.31c1,0,1.03.15,1.03.65v7.34h.01Z"/>
            <path class="cls-1" d="M446.76,13.95l1.86-2.8c.3-.44.76-.89,1.97-.91v-.42c-.53,0-1.17.04-1.51.04-.54,0-1.2,0-1.74-.04v.42c.54.02.85.32.85.64,0,.14-.03.18-.12.32l-1.55,2.36-1.75-2.69s-.09-.15-.09-.21c0-.17.29-.4.88-.42v-.42c-.47.04-1.46.04-1.97.04-.42,0-1.27-.02-1.77-.04v.42h.26c.74,0,1.01.1,1.26.5l2.5,3.88-2.23,3.37c-.19.28-.59.92-1.96.92v.43c.48-.02,1.06-.04,1.5-.04.5,0,1.25,0,1.74.04v-.43c-.62-.01-.86-.39-.86-.64,0-.12.04-.19.14-.33l1.92-2.94,2.14,3.34s.07.1.07.16c0,.16-.3.4-.89.41v.43c.47-.04,1.47-.04,1.98-.04.57,0,1.2.01,1.76.04v-.43h-.25c-.7,0-1-.07-1.28-.51l-2.87-4.45h0Z"/>
            <path class="cls-1" d="M191.54,16.56l2.77-1.18c1.43-.59,2.77-1.18,4.2-1.76.17-.08.25-.17.34-.25.59-.67,1.18-1.43,1.85-2.1.42-.42.92-.67,1.43-.84,1.09-.34,1.93-.92,2.6-1.85.59-.76,1.09-1.6,1.68-2.44.42-.59.76-1.17,1.18-1.76.25-.25.5-.59.84-.76.34-.25.76-.17,1.01.08s.5.59.76.84c.84,1.26,1.43,2.6,1.93,4.03,1.17,3.11,2.27,6.21,3.44,9.32.59,1.68,1.34,3.27,1.93,4.95,0,.05.03.11.08.17l-.08.08c-.42-.34-.84-.59-1.26-.92-.59-.5-1.09-1.01-1.68-1.51s-1.18-.92-2.01-1.01c-.92-.08-1.68.17-2.27.84-.67.67-1.34,1.43-1.93,2.18-.84,1.01-1.68,2.02-2.6,2.86-.84.76-1.76,1.34-2.85,1.51-.25.08-.34,0-.42-.17-.5-1.43-1.09-2.77-1.68-4.2-.25-.5-.5-1.01-.84-1.43-.34-.5-.76-.84-1.34-.84-.34,0-.76.17-1.09.17h-.34c-1.85-1.26-3.69-2.6-5.54-3.86,0-.11-.03-.17-.08-.17M201.95,16.47c-1.01-.76-1.93-1.51-2.94-2.18h-.25c-1.93.76-3.78,1.51-5.71,2.35-.08,0-.08.08-.17.08,0,0,0,.08.08.08,1.43,1.01,2.85,2.02,4.28,3.02.08.08.17.08.25,0,.84-.42,1.68-.84,2.52-1.26.08,0,.17-.08.17-.08.67-.76,1.18-1.43,1.76-2.02M206.24,7.74c-.34.42-.67.92-1.01,1.34-.84,1.01-1.85,1.76-3.19,2.1-.08,0-.25.08-.34.17-.92.59-1.51,1.51-2.27,2.35l2.85,2.18c1.76-2.6,2.85-5.38,3.95-8.15"/>
            <path class="cls-1" d="M196.68,34.22c0,.07.07.14.07.21,0-.07.07-.14.07-.21s.07-.14.07-.21l1.21-2.28s0-.07.07-.07,0,0,.07-.07h.71v4.14h-.64v-2.99l-1.21,2.35c0,.07-.07.07-.14.14-.07,0-.07.07-.14.07h-.14c-.07,0-.14,0-.14-.07-.07,0-.07-.07-.14-.14l-1.28-2.35v2.99h-.57v-4.14h.71s.07,0,.07.07,0,.07.07.07l1.21,2.28c0,.07,0,.14.07.21"/>
            <path class="cls-1" d="M203.45,35.72h-.57c-.07,0-.14,0-.14-.07-.07,0-.07-.07-.07-.14l-.29-.86h-1.71l-.28.86c0,.07-.07.07-.07.14-.14.05-.24.07-.29.07h-.64l1.64-4.14h.78l1.64,4.14h0ZM200.74,34.15h1.28l-.5-1.36c0-.07-.07-.14-.07-.21s-.07-.14-.07-.29c0,.07-.07.21-.07.29s-.07.14-.07.21l-.5,1.36h0Z"/>
            <polygon class="cls-1" points="206.37 31.58 206.37 32.23 205.09 32.23 205.09 35.72 204.31 35.72 204.31 32.23 203.09 32.23 203.09 31.58 206.37 31.58"/>
            <polygon class="cls-1" points="207.59 35.08 209.23 35.08 209.23 35.72 206.8 35.72 206.8 31.59 207.59 31.59 207.59 35.08"/>
            <path class="cls-1" d="M213.43,35.72h-.57c-.07,0-.14,0-.14-.07-.07,0-.07-.07-.07-.14l-.43-.79h-1.71l-.29.86c0,.07-.07.07-.07.14s-.07,0-.14,0h-.64l1.64-4.14h.78l1.64,4.14h0ZM210.72,34.15h1.28l-.5-1.36c0-.07-.07-.14-.07-.21s-.07-.14-.07-.29c0,.07-.07.21-.07.29s-.07.14-.07.21l-.5,1.36h0Z"/>
            <path class="cls-1" d="M213.86,35.72v-4.13h1.43c.29,0,.5,0,.71.07s.36.14.5.21.21.21.29.36c.07.14.07.29.07.43,0,.07,0,.21-.07.28,0,.07-.07.14-.14.21-.07.07-.14.14-.21.21s-.21.14-.36.14c.57.14.86.43.86.93,0,.14,0,.36-.07.5s-.14.29-.29.36c-.14.14-.29.21-.5.28-.21.14-.43.14-.71.14h-1.51ZM214.57,33.37h.64c.29,0,.43-.07.57-.14.14-.07.21-.21.21-.43s-.07-.36-.21-.43-.29-.14-.57-.14h-.64v1.14ZM214.57,33.94v1.21h.78c.14,0,.29,0,.36-.07s.14-.07.21-.14.07-.14.14-.21c.07-.07.07-.14.07-.21s0-.14-.07-.21c0-.07-.07-.14-.14-.21-.07-.07-.14-.07-.21-.14-.07,0-.21-.07-.36-.07h-.78v.07-.02Z"/>
            <path class="cls-1" d="M302.67,25.02v-5.48c0-.26.09-.43.17-.61.09-.17.26-.26.44-.35.52-.17.96-.17,1.3-.09.35.09.61.35.78.78l2,4.79,2.09-4.79c.17-.35.44-.61.78-.78.35-.09.78-.09,1.31.09.26.09.43.17.52.35s.17.35.17.61v5.48h-1.39v-5.48l-2.18,4.79c-.09.26-.26.52-.43.61-.17.09-.44.17-.78.17s-.61-.09-.78-.17c-.17-.09-.35-.35-.44-.61l-2.18-4.79v5.48h-1.39.01ZM313.46,20.49v3.13c0,.35.17.61.61.87.43.26.96.43,1.65.43h2.96v.35c0,.09,0,.17-.09.35-.09.17-.26.26-.78.26h-4.44v.96h4.44c.35,0,.78-.17,1.39-.35s.87-.61.87-1.22v-4.96h-1.39v3.66h-3.05c-.35,0-.61-.09-.7-.26-.09-.17-.09-.26-.09-.35v-3.05h-1.39v.17h.01ZM321.21,25.02v-.96h3.92c.17,0,.26-.09.35-.09s.17-.09.26-.09l.17-.17c0-.09.09-.09.09-.17v-.96c0-.09-.09-.09-.09-.09-.09-.09-.17-.17-.26-.17s-.26-.09-.52-.09h-1.92c-.61-.09-1.04-.17-1.39-.43s-.52-.52-.52-.87v-.87c0-.35.09-.61.26-.87s.52-.44.87-.52c.17-.09.26-.09.43-.09h4.61v.96h-4.09c-.26,0-.35.09-.52.09-.09.09-.17.17-.17.26v.87c0,.18.09.35.26.44s.35.09.61.09h1.74c.17,0,.43,0,.61.09.17.09.43.09.61.17.35.17.52.26.7.43.17.17.26.35.26.52v1.05c0,.26-.09.43-.17.7-.17.18-.35.35-.7.52-.17.09-.44.17-.61.17-.17.09-.43.09-.7.09h-4.09,0ZM328.35,23.45c0,.35.09.7.35.87.17.26.52.43.96.61.17,0,.26.09.43.09h3.05l1.13.96h1.65l-1.39-1.22c.26-.09.52-.26.61-.43s.17-.44.17-.78v-3.31c0-.43-.17-.78-.43-1.04-.26-.26-.7-.44-1.31-.52h-3.39c-.61.09-1.04.26-1.31.52-.26.26-.43.61-.43,1.04v3.22h-.09,0ZM343.58,17.01c0-.09-.17-.26-.35-.35s-.35-.26-.43-.26c-.17-.09-.35-.26-.52-.35-.17-.09-.35-.26-.52-.35-.09-.09-.17-.09-.35-.17-.17,0-.26-.09-.35-.17-.17-.09-.35-.09-.61-.17-.26-.09-.44-.17-.52-.26-.17-.17-.26-.43-.44-.7-.17-.26-.26-.52-.35-.78s-.26-.52-.35-.78c-.09-.26-.26-.52-.35-.78-.09-.17-.09-.26-.17-.35,0-.09-.09-.26-.17-.35-.43-.7-.87-1.39-1.48-2-.61-.61-1.22-1.13-1.92-1.65-.26-.18-.43-.26-.7-.44-.26-.17-.52-.26-.78-.35-.17-.09-.26-.09-.52-.09h-.78c-.09,0-.17-.09-.26-.17-.09-.09-.17-.17-.26-.17-.17-.09-.35-.17-.52-.26-.17-.09-.35-.17-.52-.26-.09,0-.17-.09-.35-.09s-.26-.09-.35,0c-.09,0-.09.09-.09.09,0,0,0,.09-.09.09v.17c0,.09,0,.17.09.17.09.17.17.35.26.43s.17.26.35.43c.09.09.17.26.26.35.09.17.17.26.26.43.17.35.26.61.35.96s.17.61.26.87c.09.09.09.26.17.35.09.09.17.26.17.35.09.09.09.17.17.26s.17.17.17.26c.09.09,0,.26-.09.52-.09.26-.17.52-.26.61-.17.43-.17.87-.17,1.48,0,.52.09,1.05.26,1.39.09.17.09.26.17.43.09.17.17.26.35.26.09-.26.09-.52.09-.87,0-.26.09-.52.17-.78.09-.17.17-.26.26-.43.09-.09.17-.26.26-.35.09,0,.09.09.09.17s0,.17.09.17c.09.17.17.35.26.52.09.17.17.35.26.52.17.35.43.7.61.96.17.35.43.61.61.96.09.09.17.17.26.26s.17.26.35.35l.09.09.09.09c-.17-.09-.35-.17-.44-.26s-.26-.26-.35-.35c-.26-.17-.52-.35-.78-.61s-.44-.52-.61-.78l-.43-.87c-.06.06-.09.12-.09.17v.17c-.09.26-.17.52-.17.78s-.17.43-.35.52c-.26.09-.52.09-.7-.09-.17-.17-.35-.35-.43-.52-.26-.43-.43-1.04-.52-1.74s0-1.31.17-1.92c0-.09.09-.26.09-.43s.09-.26.17-.44c0-.09-.09-.17-.09-.17-.09,0-.09-.09-.17-.17-.09-.09-.09-.26-.17-.35s-.17-.26-.17-.35c-.09-.26-.17-.44-.26-.7s-.18-.52-.26-.78c0-.09-.09-.17-.09-.26s-.09-.17-.09-.26c-.09-.17-.17-.26-.26-.44-.09-.09-.17-.26-.26-.43s-.26-.43-.52-.7c-.26-.35-.26-.61-.17-1.05.26-.52.61-.7,1.22-.52.61.17,1.04.43,1.39.61.09.09.17.09.26.17.09.09.17.17.26.17h.78c.26.09.43.09.7.17.26.09.43.17.7.26.87.52,1.65,1.13,2.35,1.74.61.61,1.22,1.39,1.83,2.35.17.17.26.35.35.61.09.26.17.44.26.61.17.35.26.61.43.96.17.35.26.61.43.96.09.17.09.26.17.43.09.17.17.26.26.35.06.06.12.09.17.09.09,0,.17.09.17.09.17.09.35.17.52.26.17.09.35.17.52.26.35.17.61.43.87.61.26.17.61.43.87.7.09.09.17.17.26.26s.17.26.26.35v.09l-.52.09c-.17.09-.35.09-.52.09s-.35,0-.52.09c-.09,0-.26.09-.35.09s-.26.09-.35.09c.09.17.26.35.52.52.26.17.52.26.7.43.17.17.43.35.61.52s.35.35.52.61l.35.26c0,.09.09.09.09.17s.09.09.09.18c-.09,0-.17-.09-.17-.09,0-.09-.09-.09-.17-.17-.09-.09-.26-.17-.35-.26s-.26-.17-.35-.26c-.17-.09-.43-.26-.61-.35-.26-.09-.43-.17-.61-.35-.09-.09-.26-.17-.35-.26s-.26-.17-.35-.26-.26-.17-.35-.26-.17-.26-.26-.35-.09-.09-.09-.17,0-.09-.09-.17c0-.09.09-.17.17-.17s.17,0,.26-.09c.26-.17.61-.26.96-.26s1.04.52,1.48.52M329.83,23.36v-3.22c0-.17.09-.35.26-.52.17-.09.44-.17.78-.17h2.09c.26,0,.52.09.7.17.17.09.26.26.26.43v3.48c0,.09,0,.17-.09.26s-.17.17-.26.17l-1.04-.87h-1.65l1.13,1.04h-1.22c-.26,0-.52-.09-.7-.17-.17-.09-.26-.26-.35-.43.06-.06.09-.12.09-.17M332.7,7.69s.09.09.17.09.09.09.17.09c0,.09.09.09.09.17s0,.09.09.09c0,.09,0,.17-.09.26s-.09.17-.17.17l-.26-.52c-.09-.09-.09-.17-.17-.17-.09-.09-.09-.17-.17-.26h.17c.09,0,.09.09.17.09M336.18,23.36v-4.88h1.39v4.79c0,.26.09.43.26.52s.43.17.87.17h3.66v.96h-4.01c-.7-.09-1.3-.26-1.65-.52-.35-.17-.52-.61-.52-1.05"/>
            <path class="cls-1" d="M278.36,6.98c2.26,0,4.39.21,6.37.68,1.99.41,3.7,1.03,5.21,1.78s2.67,1.64,3.49,2.67c.89,1.03,1.3,2.12,1.3,3.22s-.41,2.19-1.3,3.22c-.89,1.03-2.06,1.92-3.49,2.67-1.51.75-3.22,1.37-5.21,1.78s-4.11.68-6.37.68-4.38-.21-6.37-.68c-1.99-.41-3.7-1.03-5.21-1.78-1.51-.75-2.67-1.65-3.49-2.67-.89-1.03-1.3-2.12-1.3-3.22s.41-2.19,1.3-3.22c.89-1.03,2.06-1.92,3.49-2.67,1.51-.75,3.22-1.37,5.21-1.78,1.99-.48,4.11-.68,6.37-.68M274.12,16.91c.14-.14.27-.27.41-.48s.27-.34.34-.55c.07-.21.2-.34.27-.55.07-.2.14-.41.21-.62.07-.55.07-1.03,0-1.44s-.27-.75-.48-1.1c-.27-.27-.62-.48-1.03-.68-.41-.14-.89-.21-1.44-.21h-3.77l-1.71,9.11h1.99l.41-2.67h2.67c.34,0,.55-.07.82-.14s.48-.14.68-.27c.2-.14.41-.27.62-.41M272.61,12.73c.27.07.41.21.55.34s.21.34.21.55c0,.27,0,.55-.07.89s-.14.68-.27.89c-.14.2-.27.41-.48.62-.21.14-.48.2-.75.27s-.62.07-1.03.07h-1.17l.69-3.77h1.37c.34,0,.68.07.96.14M279.8,17.66h1.99l.82-4.11c.07-.41.14-.75.07-1.03-.07-.27-.2-.48-.41-.68-.2-.21-.48-.34-.89-.48-.41-.07-.82-.14-1.37-.14h-1.71l.48-2.4h-1.92l-1.71,8.84h1.92l1.03-5.07h1.51c.27,0,.48,0,.62.07s.27.14.34.21c.07.07.14.21.14.41s0,.34-.07.62l-.82,3.77h-.02ZM290.56,14.72c.14-.55.14-1.03.07-1.44s-.27-.82-.55-1.1c-.27-.27-.55-.48-.96-.68-.41-.14-.89-.21-1.51-.21h-3.77l-1.71,9.11h1.92l.48-2.67h2.67c.34,0,.55-.07.82-.14s.48-.14.68-.27c.21-.14.41-.2.62-.41.14-.14.27-.27.41-.48s.27-.34.34-.55c.14-.21.21-.34.27-.55.07-.2.2-.41.2-.62M286.93,12.59c.41,0,.69.07.96.14s.41.21.55.34c.14.14.21.34.21.55,0,.27,0,.55-.07.89s-.14.68-.27.89c-.14.2-.27.41-.48.62-.21.14-.48.2-.75.27s-.62.07-1.03.07h-1.16l.68-3.77h1.37,0Z"/>
            <path class="cls-1" d="M389.48,35.48c0,.36-.14.71-.36.86-.21.21-.5.29-.93.29-.21,0-.5,0-.71-.07-.29-.07-.43-.07-.57-.07,0-.14.07-.28.21-.43s.29-.21.43-.21c.21,0,.5.07.86.07.29.07.43-.14.43-.5-.07,0-.14,0-.29.07h-.29c-.43,0-.78-.14-1-.36s-.36-.57-.36-1v-2.28c.07,0,.21,0,.43.07.21.07.29.21.29.43v1.71c0,.21.07.43.14.57s.21.21.43.21h.5v-2.42c0-.21.07-.36.21-.43.14-.07.29-.14.43-.14v3.64h.15ZM395.65,13.35c-1.17-.27-2.06-.75-2.81-1.37s-1.3-1.23-1.71-1.99c-.41-.75-.68-1.44-.82-2.26-.14-.75-.21-1.44-.14-2.12,1.1-.41,2.19-.68,3.36-.68,1.1,0,2.19.14,3.22.48s1.99.82,2.88,1.51c.89.68,1.71,1.44,2.4,2.4.48.62.89,1.3,1.3,2.05.41.75.68,1.44,1.03,2.26.27.75.55,1.51.68,2.33.13.82.27,1.51.34,2.26-.62-.82-1.37-1.51-2.19-2.05s-1.78-.96-2.81-1.37c-.75-.27-1.44-.48-2.19-.68-.75-.21-1.57-.48-2.53-.75M390.12,31.06c-.07.07-.14.14-.14.29,0,.07,0,.14.14.21.07.07.14.14.29.14.07,0,.21,0,.29-.14.07-.07.14-.14.14-.21s-.07-.21-.14-.29c-.07-.07-.14-.14-.29-.14s-.21.07-.29.14M390.69,35.48l-.07.07h-.5s-.07,0-.07-.07v-3.57h.64v3.5s.05.02,0,.07M391.47,31.06c-.07.07-.14.14-.14.29,0,.07,0,.14.14.21.07.07.14.14.29.14.07,0,.21,0,.29-.14.07-.07.14-.14.14-.21s-.07-.21-.14-.29c-.07-.07-.14-.14-.29-.14s-.21.07-.29.14M392.04,35.48s-.05,0,0,0l-.57.07s-.07-.02-.07-.07v-3.57h.64v3.57ZM394.25,31.77h0s-.09.07-.14.07h-.43c-.14,0-.28,0-.28.07-.07.07-.07.14-.07.29v.36h.93v.36h-.93v2.5h-.5v-3.28c0-.29.07-.5.21-.57.14-.07.36-.14.64-.14h.57v.36-.02ZM395.97,32.84s0,.05,0,0c0,.07-.07.07-.14.07h-.71v2.5l-.07.07h-.36v-2.78l.07-.07c.14-.07.29-.07.5-.14h.71v.36h0ZM398.32,35.34v.07s-.07,0-.07.07c-.14.07-.28.07-.5.07h-.5c-.43,0-.71-.14-.86-.36-.14-.21-.29-.57-.29-.93v-.43c0-.36.07-.71.29-.93.21-.21.5-.36.86-.36h.5c.14,0,.36.07.5.07.07,0,.07.07.07.07v2.66ZM397.82,35.12v-2.14c-.07,0-.14,0-.29-.07h-.36c-.29,0-.43.07-.57.21-.07.14-.14.36-.14.64v.43c0,.29.07.5.14.64s.29.29.57.29h.64M405.37,18.76c-.07.62-.2,1.23-.48,2.05-.27.82-.69,1.51-1.23,2.19-.55.68-1.37,1.37-2.33,1.92s-2.12.89-3.56,1.03c-.21-1.64-.07-3.15.48-4.52s1.16-2.47,1.85-3.36c.34-.41.62-.75.89-1.17.27-.34.48-.75.69-1.1.34.14.96.48,1.71.96.75.55,1.44,1.17,1.99,1.99M402.17,35.48s-.05.05,0,0h-.43v-2c0-.21-.07-.43-.14-.43-.07-.07-.21-.07-.36-.07h-.14c-.21,0-.29,0-.36.07-.07.07-.07.14-.07.29v2.21h-.43v-2.21c0-.14,0-.21-.07-.29-.07-.07-.21-.07-.36-.07h-.14c-.14,0-.29,0-.36.07-.07.07-.14.21-.14.43v2h-.43v-2c0-.28.07-.5.21-.71.14-.14.43-.29.71-.29h.14c.14,0,.29,0,.43.07.14,0,.21.07.29.14.07-.07.21-.14.29-.14.14,0,.29-.07.43-.07h.14c.36,0,.57.07.71.29.14.14.21.43.21.71v1.93l-.14.07h.01ZM404.81,34.12h0s-.09.07-.14.07h-1.78v.07c0,.29.07.5.21.64.14.14.29.21.57.21h.5c.14,0,.36,0,.43-.07h.07v.36h-.07c-.14,0-.29.07-.43.07h-.5c-.29,0-.57-.07-.86-.29-.29-.21-.36-.5-.36-1v-.5c0-.36.07-.71.29-.93.21-.21.5-.36.86-.36s.71.14.86.36c.21.21.28.5.28.93v.43h.07ZM404.31,33.77c0-.29-.07-.5-.14-.64-.14-.14-.29-.21-.57-.21-.21,0-.43.07-.5.21-.14.14-.21.36-.21.64v.07l1.43-.07h0ZM410.31,5.67c.55.96.82,2.12.75,3.49-.07.89-.2,1.71-.55,2.47-.34.82-.68,1.58-1.23,2.33-.48.75-1.03,1.44-1.64,2.19-.62.68-1.3,1.37-1.92,2.05-.07-1.64-.27-3.08-.62-4.32-.34-1.23-.82-2.54-1.37-4.04-.27-.75-.34-1.51-.14-2.19.21-.68.55-1.37,1.03-1.99.48-.62,1.03-1.1,1.71-1.44.69-.34,1.3-.55,1.92-.62.82.41,1.51,1.1,2.05,2.06M408.73,34.34c0,.5-.14.79-.36.93-.21.14-.5.21-.71.21h-.36c-.14,0-.21-.07-.36-.07-.14.07-.21.07-.36.07h-.36c-.29,0-.5-.07-.71-.21s-.36-.5-.36-.93v-1.78h.43v1.78c0,.29.07.5.14.64.14.14.29.21.5.21h.21c.07,0,.14-.07.21-.07v-2.5h.43v2.5c.07,0,.14.07.21.07h.21c.21,0,.43-.07.5-.21.14-.14.14-.36.14-.64v-1.78h.43v1.78h.17ZM411.16,35.19c-.21.21-.5.36-.86.36-.43,0-.71-.14-.93-.36-.21-.21-.29-.57-.29-.93v-.43c0-.43.07-.71.29-1,.21-.21.5-.36.93-.36.36,0,.71.14.86.36.21.21.29.57.29,1v.43c0,.36-.07.71-.29.93M411.02,33.84c0-.29-.07-.5-.14-.64-.14-.14-.28-.21-.57-.21s-.43.07-.57.21-.14.36-.14.64v.43c0,.29.07.5.14.64.14.14.29.21.57.21.21,0,.43-.07.57-.21s.14-.36.14-.64v-.43ZM413.16,32.91h-.86v2.5l-.07.07h-.36v-2.78l.07-.07c.14-.07.36-.07.5-.14h.71v.43h0ZM415.58,35.41c0,.07-.07.07,0,0,0,.07-.07.07-.07.07h-.43s0-.07-.07-.07l-1.07-1.28v1.35h-.43v-3.99h.36v2.28l1.07-1.21.07-.07h.57v.14l-1.14,1.28,1.14,1.5Z"/>
            <path class="cls-1" d="M156.91,4.11c-1.19-.02-2.17.81-2.17,1.84v3.38h-4.9c-.53,0-.96.43-.96.95v.36c0,.53.43.95.96.95h4.9v7.46h-4.9c-.53,0-.96.43-.96.95v.36c0,.53.43.95.96.95h4.9v3.35c0,1.42,1.77,2.3,3.18,1.59l18.74-9.36c.24-.12.43-.27.59-.44h5.19c.53,0,.96-.43.96-.96v-.36c0-.53-.43-.96-.96-.96h-5.16c-.16-.18-.37-.34-.62-.47l-18.74-9.36c-.32-.15-.66-.24-1.01-.24M161.41,11.27h1.66v3.23h3.22v1.64h-3.22v3.23h-1.66v-3.23h-3.22v-1.64h3.22s0-3.23,0-3.23ZM173.75,30.71c-.23,0-.26.47-.04.55.06.02.13.07.16.11s.21.66.4,1.38c.47,1.82.83,3.12.89,3.26.05.11.08.12.37.1l.31-.02.4-1.34c.71-2.4.82-2.74.87-2.74.06,0,.06.03.7,2.36l.47,1.72.32.02c.29,0,.32,0,.37-.1.06-.13.43-1.49.92-3.36.29-1.13.33-1.23.49-1.37.13-.12.17-.2.17-.34,0-.22-.1-.27-.4-.22-.36.06-.44.25-.98,2.36-.42,1.65-.53,2.02-.59,1.92-.02-.04-.29-.99-.58-2.1-.3-1.11-.56-2.05-.59-2.09s-.15-.06-.28-.06c-.21,0-.23.01-.29.16-.05.12-.85,2.8-1.19,3.98-.02.06-.06.12-.08.12-.06,0-.1-.13-.56-1.9-.42-1.62-.56-2.09-.66-2.21-.08-.09-.39-.2-.57-.2h-.03ZM168.57,30.71h-.76c-.65.01-1.23.04-1.28.06-.05.02-.14.16-.21.3-.12.24-.9,2.33-1.32,3.54-.11.31-.22.54-.25.54s-.1-.1-.14-.22c-1.27-3.48-1.48-4.02-1.62-4.11-.17-.11-.48-.15-.57-.08-.04.04-.07.15-.07.26,0,.15.02.2.1.23.15.05.27.32,1.11,2.53.42,1.11.79,2.1.83,2.19.06.16.07.17.37.17h.31l1.82-4.86h1.19v4.36h-.19c-.23,0-.31.07-.31.25,0,.23.07.25.85.25h.72v-.25q0-.25-.16-.25c-.09,0-.19-.02-.22-.04-.04-.02-.06-.7-.09-2.18l-.03-2.14h.19c.22,0,.32-.09.32-.28,0-.21-.02-.27-.57-.27h-.02ZM170.28,30.72c-.29,0-.49,0-.52.02-.14.03-.2.28-.12.43.04.07.1.11.22.11h.17l.03,2.26c.03,2.41.04,2.49.29,2.56.07.02.73.04,1.48.04h1.35l.1-.13c.08-.11.11-.21.11-.51v-.37h-.19c-.24,0-.29.03-.35.25-.04.16-.07.18-.28.22-.22.04-1.76,0-1.81-.03,0,0-.04-.44-.05-.94l-.03-.92h1.98v-.14c.02-.08.02-.2,0-.28l-.02-.14h-1.97v-1.88h.83c.9,0,1.09.04,1.09.21,0,.21.09.3.3.3h.19l.03-.25c.04-.37,0-.6-.16-.7-.11-.08-.33-.09-1.62-.1h-1.09.03ZM159.06,30.72c-.2.02-.27.1-.26.29,0,.17.03.19.18.2.3.03.29-.04.31,2.55l.02,2.38.26-.02c.25,0,.26-.02.28-.18.02-.21.13-.22.32-.03.08.08.26.17.41.23.79.27,1.59-.07,2-.85.47-.89.29-2.1-.39-2.72-.55-.49-1.39-.52-2.02-.06-.14.1-.26.18-.28.18,0,0-.03-.39-.04-.86-.02-1.02-.03-1.06-.53-1.1-.1-.01-.19-.01-.25,0h-.01ZM151.29,30.72c-.08,0-.14.02-.19.04-.09.05-.11.1-.1.25,0,.17.04.19.22.25l.21.07.03.64c.02.36.03,1.39.03,2.3,0,1.51,0,1.66.09,1.73.05.04.12.09.16.11.04,0,.67.03,1.39.03,1.28,0,1.32,0,1.43-.11.1-.1.12-.16.12-.51v-.39h-.25c-.23,0-.25,0-.28.14-.06.27-.09.29-.51.33-.51.05-1.42.02-1.49-.04-.03-.03-.07-.9-.09-2.34-.03-2.02-.05-2.3-.12-2.37-.08-.08-.43-.13-.67-.11h0l.02-.02ZM180.95,30.76l.05.2c.06.22.12.27.15.09.02-.12.14-.19.14-.07,0,.1.04.12.29.16.22.04.28-.03.23-.23-.02-.09-.05-.11-.17-.08-.08.02-.16,0-.17-.02,0-.03-.14-.05-.27-.05h-.25,0ZM156.74,32.23c-.54,0-.68.02-.85.1-.31.15-.39.26-.42.59l-.02.28.25-.02c.23-.02.25-.03.33-.2.11-.23.31-.32.73-.31.23,0,.38.03.54.12.19.1.23.16.32.41.13.39.09.45-.33.5-1.07.12-1.41.22-1.76.52-.36.31-.47.91-.24,1.34.12.24.48.52.76.6.25.07.66.06.9-.02.12-.04.34-.17.48-.28l.26-.2.06.15c.03.08.11.19.17.23.15.1.71.1.81,0,.15-.15.05-.35-.22-.42l-.19-.05-.04-1.15c-.02-.63-.06-1.25-.09-1.36-.07-.26-.34-.59-.6-.73-.16-.08-.3-.1-.84-.1M161.07,32.74c.51,0,.81.2,1.03.68.17.37.17,1.15,0,1.53-.14.31-.49.64-.76.72-.24.07-.4.06-.63-.02-.33-.12-.54-.34-.69-.73-.16-.41-.18-.85-.08-1.25.17-.64.53-.93,1.13-.93h0ZM157.7,34.19l-.03.3c-.07.57-.42,1.07-.84,1.19-.53.15-.99-.07-1.05-.5-.04-.28,0-.42.2-.61.22-.22.54-.31,1.18-.35l.55-.04h0Z"/>
            <path class="cls-2" d="M88.41,15.16l3.25-3.64-4.77-1.04.49-4.86-4.47,1.96-2.46-4.21-2.46,4.21-4.47-1.96.48,4.85-4.77,1.04,3.25,3.64-3.25,3.64,4.77,1.04-.49,4.85,4.47-1.96,2.46,4.21,2.46-4.21,4.47,1.96-.49-4.85,4.77-1.04-3.24-3.64h0ZM89.99,17.9l-2.81-.96-1.86-2.42,2.48.92,2.2,2.46h-.01ZM82.45,22.23l-1.68,2.88v-3.05l1.75-2.55-.07,2.73h0ZM79.51,10.29l-2.89-1.03-1.73-2.34,3.04,1.33,1.59,2.03h0ZM82.98,8.26l3.03-1.33-1.73,2.34-2.89,1.03,1.59-2.03h0ZM86.23,10.61l-1.51,2.14.09-3.11,1.76-2.37-.33,3.34h0ZM80.45,21.38l-2.02-2.95,2.02-2.75,2.02,2.75-2.02,2.95ZM76.85,13.58l-.1-3.58,3.38,1.2v3.49l-3.28-1.1h0ZM80.77,11.2l3.38-1.2-.1,3.58-3.28,1.1v-3.49h0ZM74.67,10.61l-.33-3.34,1.76,2.37.09,3.11-1.51-2.14h0ZM79.92,15.3l-2.02,2.75-3.44-1.01,2.18-2.84,3.28,1.11h0ZM78.38,19.5l1.75,2.55v3.05l-1.68-2.88-.06-2.72h-.01ZM80.97,15.3l3.28-1.11,2.18,2.84-3.44,1.01-2.02-2.75h0ZM90.44,11.91l-2.55,2.87-3.01-1.12,1.81-2.57,3.76.82h0ZM80.45,4.65l1.94,3.32-1.94,2.48-1.94-2.48s1.94-3.32,1.94-3.32ZM70.46,11.91l3.76-.82,1.81,2.57-3.01,1.12-2.55-2.87h0ZM73.11,15.43l2.48-.92-1.87,2.42-2.81.96s2.2-2.46,2.2-2.46ZM71.05,18.53l2.87-.98,2.99.88-2.58.82-3.29-.72h.01ZM74.66,19.83l3.06-.97.08,3.25-3.52,1.54.38-3.83h0ZM83.1,22.11l.08-3.25,3.06.97.38,3.83-3.52-1.54h0ZM86.56,19.25l-2.58-.82,2.99-.88,2.88.98s-3.29.72-3.29.72Z"/>
            <path class="cls-2" d="M67.22,31.85h.91l.43,2.37.63-2.37h.8l.75,2.41.44-2.41h.87l-.74,3.55h-1l-.66-2.21-.68,2.21h-1.05l-.69-3.55h-.01ZM93.68,35.4h-.91l-.43-2.38-.63,2.38h-.8l-.75-2.41-.44,2.41h-.87l.74-3.55h1l.66,2.21.68-2.21h1.05s.7,3.55.7,3.55ZM73.96,31.79c1.16,0,1.76.7,1.76,1.83s-.61,1.83-1.76,1.83-1.75-.71-1.75-1.83.6-1.83,1.75-1.83M73.96,34.76c.57,0,.79-.55.79-1.13,0-.61-.22-1.13-.79-1.13s-.79.52-.79,1.13.23,1.13.79,1.13M76.24,31.85h.93v2.85h1.45v.7h-2.38v-3.55ZM79,31.85h2.34v.67h-1.41v.78h1.35v.67h-1.35v1.43h-.93s0-3.55,0-3.55ZM81.83,31.85h1.67c.62,0,1.13.28,1.13.9,0,.47-.22.79-.67.89h0c.3.09.32.36.5.79l.34.96h-.97l-.2-.64c-.19-.61-.31-.76-.66-.76h-.2v1.4h-.93v-3.55h0ZM82.77,33.33h.25c.3,0,.68,0,.68-.41,0-.33-.33-.39-.68-.39h-.25v.8ZM86.21,31.85h1.14l1.35,3.55h-1.02l-.26-.76h-1.31l-.28.76h-.95s1.33-3.55,1.33-3.55ZM86.78,32.59h-.01l-.45,1.39h.88l-.42-1.39Z"/>
            <path class="cls-1" d="M50.49,16.29v-1.18h1.18v-.95h-1.18v-1.18h-1.18v1.18h-1.18v.95h1.18v1.18h1.18ZM54.75,12.98h-.95v1.18h-1.42v.95h1.42v1.18h.95v-1.18h1.18v-.95h-1.18s0-1.18,0-1.18ZM57.48,7.37c-.14-.26-.33-.5-.54-.62L45.54.17c-.19-.12-.45-.17-.73-.17s-.54.07-.73.17l-11.49,6.58c-.4.24-.81.83-.81,1.28v13.19c0,.26.17.54.33.8l.02.02c.12.19.31.36.47.45l11.44,6.61c.19.12.47.17.76.17s.54-.07.73-.17l11.25-6.61c.4-.24.57-.83.57-1.28v-13.19c0-.19.09-.43,0-.62l.12-.05v.02ZM56.48,7.86c0,.07-.07.12-.07.17v13.19c0,.19-.05.4-.09.47l-11.27,6.58s-.12.05-.26.05-.24-.02-.26-.05l-11.42-6.58s-.02-.02-.05-.02l-.14-.14c-.09-.17.05-.26-.19-.28v-13.19c.24-.12.21-.4.33-.45L44.5.99s.14-.05.28-.05.24.02.26.05l11.37,6.56.1.21s-.02.07-.02.1M44.8,20.44c-3.2,0-5.8-2.6-5.8-5.8s2.61-5.8,5.8-5.8c2.15,0,4.05,1.18,5.04,2.96l3.08-1.78c-1.61-2.82-4.64-4.74-8.12-4.74-5.16,0-9.36,4.19-9.36,9.35s4.19,9.36,9.36,9.36c3.46,0,6.49-1.89,8.1-4.69l-3.06-1.8c-1,1.75-2.89,2.94-5.04,2.94"/>
            <path class="cls-1" d="M4.25,34.41c0-.99-.28-1.49-.85-1.51-.23-.02-.44.04-.66.11-.18.05-.28.12-.34.18v2.34c.35.23.67.34.96.32.59-.05.89-.53.89-1.44M4.94,34.45c0,.5-.11.9-.35,1.24-.27.37-.62.57-1.1.57-.35.02-.71-.11-1.08-.34v2.13l-.6-.21v-4.74c.11-.12.23-.23.37-.32.35-.21.8-.32,1.3-.32.46,0,.83.2,1.08.57.27.41.39.85.39,1.42M8.62,35.85c0,.67-.07,1.14-.19,1.38-.14.25-.39.46-.76.62-.32.12-.64.2-.99.2l-.11-.37c.37-.05.62-.11.76-.14.28-.11.5-.25.6-.46.09-.16.12-.48.12-.94v-.16c-.41.2-.85.28-1.29.28-.3,0-.57-.09-.78-.28-.25-.2-.37-.46-.37-.78v-2.5l.6-.21v2.52c0,.27.09.48.27.62s.39.21.67.21.57-.11.89-.32v-2.95h.6s-.02,3.28-.02,3.28ZM10.96,36.24h-.19c-.34,0-.6-.09-.8-.25-.19-.16-.28-.39-.28-.67v-2.38h-.41v-.37h.41v-1.01l.6-.21v1.22h.67v.37h-.67v2.34c0,.23.05.39.18.48.11.07.27.12.5.14v.34h-.01ZM14.61,36.19h-.6v-2.32c0-.23-.05-.44-.16-.6-.12-.2-.3-.28-.53-.28-.28,0-.62.14-1.03.44v2.79h-.6v-5.55l.6-.2v2.52c.39-.28.8-.43,1.26-.43.32,0,.57.11.78.32.19.21.3.48.3.8l-.02,2.52h0ZM17.81,34.31c0-.37-.07-.69-.21-.94-.18-.3-.43-.46-.8-.48-.66.04-.99.51-.99,1.42,0,.43.07.76.21,1.05.18.35.44.53.8.53.66-.02.99-.53.99-1.58M18.46,34.31c0,.53-.14.99-.41,1.35-.3.39-.73.6-1.24.6s-.94-.2-1.24-.6c-.27-.35-.41-.8-.41-1.35,0-.51.14-.94.44-1.28.32-.37.71-.55,1.21-.55s.91.18,1.22.55c.28.35.43.78.43,1.28M21.92,36.19h-.6v-2.45c0-.27-.09-.48-.25-.62s-.37-.23-.66-.21c-.28,0-.57.11-.82.28v3.03h-.6v-3.11c.34-.25.66-.43.96-.5.28-.07.51-.11.73-.11.14,0,.28.02.41.04.23.05.43.16.57.3.16.16.25.37.25.6l.02,2.73v.02Z"/>
            <path class="cls-1" d="M11.42,3.47c-.95,0-1.87.09-2.67.24-2.38.42-2.8,1.28-2.8,2.91v2.14h5.59v.71H3.87c-1.6,0-3.03.98-3.48,2.82-.51,2.14-.53,3.45,0,5.68.39,1.67,1.34,2.82,2.97,2.82h1.93v-2.56c0-1.84,1.61-3.48,3.48-3.48h5.56c1.55,0,2.79-1.28,2.79-2.85v-5.32c0-1.52-1.28-2.65-2.79-2.91-.98-.15-1.96-.24-2.91-.21M8.38,5.16c.57,0,1.04.48,1.04,1.07s-.47,1.07-1.04,1.07-1.04-.48-1.04-1.07.45-1.07,1.04-1.07"/>
            <path class="cls-1" d="M17.81,9.41v2.47c0,1.93-1.64,3.54-3.51,3.54h-5.56c-1.52,0-2.79,1.31-2.79,2.85v5.32c0,1.52,1.31,2.41,2.79,2.85,1.75.54,3.45.62,5.59,0,1.4-.42,2.79-1.22,2.79-2.85v-2.14h-5.59v-.71h8.38c1.61,0,2.23-1.13,2.79-2.82.59-1.75.56-3.42,0-5.68-.39-1.61-1.16-2.82-2.79-2.82h-2.11.01ZM14.66,22.88c.56,0,1.04.47,1.04,1.07s-.47,1.07-1.04,1.07-1.04-.47-1.04-1.07.48-1.07,1.04-1.07"/>
            <path class="cls-2" d="M349.84,16v-2.54c.06-.03.04-.1.05-.15.8-3.48,2.98-5.58,6.42-6.41.3-.07.62-.07.91-.17h1.7c.04.07.11.04.17.05,1.71.18,3.25.79,4.61,1.84,1.16.9,2.09,2.01,2.91,3.21.1.15.15.15.25,0,.47-.69.99-1.36,1.56-1.97,1.42-1.53,3.11-2.58,5.19-2.96.31-.06.63-.06.94-.16h1.65c.03.06.1.04.15.05.49.06.98.15,1.45.28,3.58,1.03,6.1,4.31,5.89,8.02-.18,3.1-1.75,5.33-4.46,6.76-1.37.72-2.86.93-4.4.9-2.03-.04-3.79-.74-5.31-2.07-1.05-.92-1.88-2.03-2.65-3.2-.11-.17-.16-.15-.26,0-.48.74-1,1.46-1.59,2.13-1.03,1.17-2.22,2.13-3.71,2.65-1.84.64-3.72.67-5.58.14-2.68-.76-4.53-2.46-5.52-5.08-.16-.43-.23-.89-.37-1.32M375.15,19.91c.6.02,1.19-.02,1.75-.19,2.08-.62,3.49-1.94,3.88-4.11.39-2.16-.44-3.88-2.23-5.12-1.99-1.38-4.9-1.24-6.93.27-1.35,1-2.27,2.37-3.16,3.76-.05.08-.04.14,0,.21.72,1.14,1.43,2.29,2.36,3.28,1.17,1.26,2.58,1.97,4.33,1.89M358.3,19.91c1.52.06,2.83-.45,3.93-1.48,1.15-1.07,1.96-2.4,2.79-3.71.05-.08.03-.14-.01-.21-.7-1.1-1.43-2.18-2.38-3.09-1.83-1.74-3.99-2.33-6.4-1.56-2.01.64-3.28,2.07-3.58,4.2-.28,1.98.49,3.58,2.08,4.77,1.05.8,2.27,1.11,3.57,1.07h0ZM358.03,35.62c-.3,0-.49-.14-.57-.42-.08-.28-.23-.39-.45-.34h-.84c-.1,0-.15.03-.17.13-.04.17-.11.34-.15.51-.02.1-.07.12-.17.12h-.55c-.12,0-.14-.04-.1-.15.28-.9.55-1.8.83-2.7.09-.31.19-.62.28-.93.03-.1.07-.15.18-.14h.85c.09,0,.12.03.15.11.37,1.22.75,2.44,1.12,3.66.03.11.02.15-.11.14h-.32.02ZM356.73,32.66h-.04c-.15.51-.3,1.01-.44,1.52.03,0,.04,0,.05,0h.54q.34,0,.25-.32c-.12-.4-.24-.81-.35-1.21M378.89,34.16c-.06.18-.1.36-.17.53-.42,1.08-1.94,1.36-2.66.51-.25-.29-.36-.64-.4-1.01-.06-.52-.06-1.04.14-1.53.28-.7.87-1.06,1.66-1,.71.05,1.19.48,1.36,1.22.02.1.01.2.07.28v1.01h0ZM376.5,33.66c0,.28.02.57.12.84.08.21.2.37.43.43.41.11.74-.06.87-.47.16-.52.15-1.06,0-1.58-.1-.34-.3-.49-.63-.5-.35,0-.56.14-.68.47-.1.26-.11.54-.11.81ZM362.1,33.66v-1.77c0-.13.03-.19.17-.18.47.02.95-.03,1.42.03.9.11,1.36.58,1.46,1.49.05.44.03.88-.12,1.3-.25.66-.77.97-1.44,1.06-.45.06-.91.02-1.37.03-.12,0-.11-.07-.11-.15v-1.81h-.01ZM362.92,33.66v.9c0,.26.13.38.39.37.49-.02.8-.27.92-.75.09-.38.08-.76-.01-1.14-.1-.38-.34-.59-.73-.63-.14-.02-.28,0-.42-.02-.12,0-.15.04-.15.15v1.12M365.52,33.17v-1.32c0-.1.02-.14.13-.14h.55c.12,0,.15.04.15.15v2.23c0,.13,0,.26.02.38.04.35.24.53.62.54.38,0,.6-.15.65-.51.02-.13.03-.26.03-.38v-2.23c0-.14.02-.2.18-.19.17.02.35,0,.52,0,.09,0,.13.02.13.12,0,.85,0,1.7-.02,2.55-.02.74-.5,1.21-1.24,1.3-.32.04-.62.02-.93-.08-.48-.16-.76-.55-.78-1.12-.01-.43,0-.87,0-1.3h0ZM360.74,33.77c.29.23.4.55.55.85.15.29.28.58.43.87.05.1.06.15-.08.14h-.7c-.1,0-.14-.04-.17-.12-.16-.37-.33-.74-.5-1.11-.09-.2-.24-.33-.47-.36-.13-.02-.17.02-.17.16v1.27c0,.12-.03.17-.16.16-.18,0-.36,0-.54,0-.1,0-.14-.02-.14-.13v-3.66s-.01-.12.07-.12c.6.02,1.2-.06,1.79.07.81.18.91.87.77,1.37-.1.33-.35.51-.69.62h.01ZM359.63,32.88v.42s0,.09.06.09c.23,0,.46.02.67-.09.19-.1.27-.27.24-.5-.02-.19-.13-.31-.34-.36-.12-.03-.24-.04-.36-.04-.33,0-.26-.03-.27.26v.23h0ZM373.14,33.07v2.32c0,.15-.08.23-.24.23h-.35c-.13,0-.17-.03-.17-.17v-3.6c0-.12.03-.15.15-.15.23,0,.46.01.69,0,.11,0,.17.04.21.14.36.77.72,1.54,1.08,2.32,0,.02.02.04.06.1v-2.39c0-.12.03-.17.16-.16.16.01.32,0,.48,0,.09,0,.13.02.13.12v3.67c0,.09-.03.13-.12.13h-.75c-.1,0-.13-.06-.16-.13-.36-.77-.71-1.54-1.07-2.3-.02-.04-.02-.09-.09-.12h0ZM370.42,31.71h1.16c.11,0,.15.03.14.14v.4c0,.11-.04.13-.14.13h-.6c-.09,0-.14.02-.14.13v2.31c0,.1.03.14.13.13h.6c.11,0,.14.04.14.15v.42c0,.09-.03.11-.12.11h-2.34c-.09,0-.13-.03-.13-.12v-.42c0-.1.03-.14.13-.14h.62c.1,0,.12-.03.12-.13v-2.33c0-.09-.03-.12-.12-.11h-.62c-.11,0-.15-.04-.14-.14.02-.17-.07-.39.04-.5.1-.1.31-.02.47-.03h.79M382.97,7.75c-.04.05-.05.07-.06.09-.06.1-.01.29-.18.29-.14,0-.11-.18-.16-.28-.01-.03-.03-.05-.07-.12v.29c0,.05,0,.12-.07.12-.08,0-.08-.06-.08-.11v-.54c0-.06,0-.13.09-.13.07,0,.13,0,.17.09.04.11.05.24.14.35.08-.11.1-.23.13-.34.03-.09.08-.1.16-.1.1,0,.09.07.09.13v.54c0,.05,0,.12-.07.12-.08,0-.08-.06-.08-.12v-.27M381.99,7.34h.07c.09.02.22-.05.25.05.04.14-.11.07-.18.1-.07.03-.05.09-.05.14v.38c0,.07-.01.12-.1.12-.08,0-.08-.06-.08-.12v-.35c0-.1,0-.19-.14-.18-.05,0-.09-.01-.09-.07,0-.09.07-.07.12-.07h.21-.01Z"/>
            <path class="cls-2" d="M375.04,12.18h.61c.13,0,.18.04.17.18v1.13c0,.17.04.23.22.23.37-.01.74,0,1.11,0,.14,0,.22.03.21.19v1.22c0,.15-.05.19-.19.18h-1.13c-.16,0-.22.04-.21.21.01.38,0,.75,0,1.13,0,.16-.04.22-.21.22-.4,0-.8-.01-1.2,0-.16,0-.2-.05-.2-.2.01-.39,0-.78,0-1.17,0-.13-.04-.18-.17-.17h-1.13c-.19,0-.24-.06-.23-.24.01-.37.02-.74,0-1.1-.01-.22.07-.26.27-.26.36.01.72,0,1.08,0,.14,0,.19-.04.18-.19v-1.13c0-.16.04-.23.21-.21.2.01.41,0,.61,0v-.02ZM358.26,13.88h2.59c.2,0,.25.06.24.25-.02.24-.02.49,0,.73.01.2-.04.27-.25.26-1.14-.01-2.29,0-3.43,0h-1.74c-.2,0-.25-.06-.24-.25.02-.25.01-.5,0-.75,0-.18.04-.24.23-.24.87.01,1.74,0,2.61,0"/>
            <polygon class="cls-1" points="492.83 35.51 489.55 35.51 489.55 31.48 492.83 31.48 492.83 32.65 490.98 32.65 490.98 34.33 492.83 34.33 492.83 35.51"/>
            <polygon class="cls-1" points="497.11 35.51 493.58 35.51 493.58 34.33 495.43 34.33 493.58 32.57 493.58 31.56 497.11 31.56 497.11 32.74 495.51 32.74 497.11 34.75 497.11 35.51"/>
            <polygon class="cls-1" points="501.56 35.51 497.78 35.51 497.78 34.33 499.8 34.33 497.78 32.57 497.78 31.56 501.56 31.56 501.56 32.74 499.88 32.74 501.56 34.75 501.56 35.51"/>
          </g>
        </g>
      </g>
    </g>
    <g>
      <rect class="cls-6" x="228.15" y="3.07" width="25.3" height="21.99"/>
      <path class="cls-3" d="M228.15,17.11c1.86,3.03,6.7,7.69,13.23,7.69,4.16,0,5.31-1.93,7.72-1.93,2.01,0,2.81,1.35,3.12,1.88.09.17.24.28.33-.04.06-.23.12-.54.12-.92,0-1.06-.33-3.08-2.1-5.31.39-1.08.43-2.29.43-3,0-3.22-1.81-8.81-7.81-12.42,1.25,1.76,2.92,4.44,2.92,8.16,0,1.35-.36,2.83-.66,3.57-3.26-1.89-9.5-7.09-11.98-9.74,2,3.07,4.37,5.86,7,8.78-3.54-2.24-6.83-4.74-9.89-7.48,2.94,4.27,6.66,8.47,11.56,12.44-1.4.79-2.84,1.39-5.32,1.39-3,0-6.67-1.45-8.67-3.07Z"/>
    </g>
    <g class="cls-5">
      <path d="M233.45,35.89c-.39,0-.73-.06-1.02-.17-.29-.12-.52-.28-.69-.5-.17-.21-.26-.47-.28-.78v-.05s.97,0,.97,0v.04c.03.13.09.24.18.33.09.09.21.16.36.22.15.05.32.08.5.08s.36-.03.49-.08c.14-.05.24-.12.32-.22s.11-.21.11-.33h0c0-.17-.07-.3-.2-.39-.13-.09-.35-.17-.65-.23l-.52-.11c-.49-.1-.85-.26-1.1-.49-.25-.23-.37-.54-.37-.91h0c0-.3.08-.57.25-.79s.38-.4.67-.52c.28-.12.61-.19.97-.19s.71.06.99.18c.28.12.49.29.65.5.15.22.24.47.26.76v.06s-.97,0-.97,0v-.04c-.02-.13-.07-.24-.15-.33-.08-.09-.19-.16-.32-.21s-.28-.08-.45-.08-.33.03-.45.08-.23.12-.29.21c-.07.09-.1.19-.1.31h0c0,.16.07.29.2.38s.34.17.62.23l.52.11c.34.07.63.16.85.28s.38.27.49.46c.11.18.16.4.16.66h0c0,.32-.08.59-.24.83-.16.23-.39.41-.68.54-.3.13-.65.19-1.07.19Z"/>
      <path d="M236.69,35.81l-.98-3.66h1.01l.55,2.72h.02l.65-2.72h.96l.65,2.72h.02l.56-2.72h.98l-.97,3.66h-1.06l-.66-2.59h-.02l-.66,2.59h-1.05Z"/>
      <path d="M242.03,31.67c-.15,0-.28-.05-.38-.16-.1-.1-.16-.23-.16-.37s.05-.27.16-.37c.1-.1.23-.15.38-.15s.28.05.38.15.15.22.15.37-.05.26-.15.37-.23.16-.38.16ZM241.53,35.81v-3.66h1v3.66h-1Z"/>
      <path d="M243.46,35.81v-2.91h-.5v-.75h.5v-.29c0-.24.04-.44.12-.59.08-.16.21-.27.39-.35.18-.08.41-.11.7-.11.09,0,.18,0,.28.01s.17.02.23.03v.66s-.07,0-.12-.01c-.05,0-.09,0-.14,0-.16,0-.28.04-.36.1s-.12.17-.12.3v.26h.73v.75h-.7v2.91h-1Z"/>
      <path d="M247.14,35.88c-.41,0-.71-.08-.9-.26-.2-.17-.29-.45-.29-.84v-1.89h-.51v-.75h.51v-.9h1.01v.9h.67v.75h-.67v1.78c0,.17.04.29.11.36.08.07.19.1.34.1.05,0,.09,0,.12,0,.03,0,.07,0,.1-.01v.73c-.05,0-.12.02-.2.03-.08,0-.17.01-.28.01Z"/>
      <path d="M250.33,35.89c-.42,0-.79-.08-1.1-.23s-.55-.37-.72-.64c-.17-.28-.25-.6-.25-.96v-3.19h1.03v3.1c0,.21.04.4.12.55.08.16.2.28.35.36.15.09.34.13.56.13s.41-.04.56-.13c.15-.09.27-.21.35-.36s.12-.34.12-.55v-3.1h1.03v3.19c0,.36-.08.68-.25.96-.17.27-.41.49-.71.64-.31.15-.68.23-1.1.23Z"/>
      <path d="M253.21,35.81v-4.93h1.03v4.93h-1.03Z"/>
    </g>
  </g>
</svg>