<?xml version="1.0" encoding="UTF-8"?>
<!--Generator: Apple Native CoreSVG 338-->
<!DOCTYPE svg
PUBLIC "-//W3C//DTD SVG 1.1//EN"
       "http://www.w3.org/Graphics/SVG/1.1/DTD/svg11.dtd">
<svg version="1.1" xmlns="http://www.w3.org/2000/svg" xmlns:xlink="http://www.w3.org/1999/xlink" viewBox="0 0 3300 2200">
 <!--glyph: "", point size: 100.0, font version: "20.0d8e1", template writer version: "138.0.0"-->
 <style>.monochrome-0 {-sfsymbols-motion-group:1;-sfsymbols-indices:0 1;-sfsymbols-layer-tags:79e61d0a0bcfba4e bubble.left}
.monochrome-1 {-sfsymbols-motion-group:0;-sfsymbols-always-pulses:true;-sfsymbols-layer-tags:79e61d0a0bcfba4e}

.multicolor-0:tintColor {-sfsymbols-motion-group:1;-sfsymbols-indices:0 1;-sfsymbols-layer-tags:79e61d0a0bcfba4e bubble.left}
.multicolor-1:tintColor {-sfsymbols-motion-group:0;-sfsymbols-always-pulses:true;-sfsymbols-layer-tags:79e61d0a0bcfba4e}

.hierarchical-0:secondary {-sfsymbols-motion-group:1;-sfsymbols-indices:0 1;-sfsymbols-layer-tags:79e61d0a0bcfba4e bubble.left}
.hierarchical-1:primary {-sfsymbols-motion-group:0;-sfsymbols-layer-tags:79e61d0a0bcfba4e}

.shapeGroupLayer-0 {-sfsymbols-fill-action:draw;-sfsymbols-indices:2}

.SFSymbolsPreviewWireframe {fill:none;opacity:1.0;stroke:black;stroke-width:0.5}
</style>
 <g id="Notes">
  <rect height="2200" id="artboard" style="fill:white;opacity:1" width="3300" x="0" y="0"/>
  <line style="fill:none;stroke:black;opacity:1;stroke-width:0.5;" x1="263" x2="3036" y1="292" y2="292"/>
  <text style="stroke:none;fill:black;font-family:sans-serif;font-size:13;font-weight:bold;" transform="matrix(1 0 0 1 263 322)">Weight/Scale Variations</text>
  <text style="stroke:none;fill:black;font-family:sans-serif;font-size:13;text-anchor:middle;" transform="matrix(1 0 0 1 559.711 322)">Ultralight</text>
  <text style="stroke:none;fill:black;font-family:sans-serif;font-size:13;text-anchor:middle;" transform="matrix(1 0 0 1 856.422 322)">Thin</text>
  <text style="stroke:none;fill:black;font-family:sans-serif;font-size:13;text-anchor:middle;" transform="matrix(1 0 0 1 1153.13 322)">Light</text>
  <text style="stroke:none;fill:black;font-family:sans-serif;font-size:13;text-anchor:middle;" transform="matrix(1 0 0 1 1449.84 322)">Regular</text>
  <text style="stroke:none;fill:black;font-family:sans-serif;font-size:13;text-anchor:middle;" transform="matrix(1 0 0 1 1746.56 322)">Medium</text>
  <text style="stroke:none;fill:black;font-family:sans-serif;font-size:13;text-anchor:middle;" transform="matrix(1 0 0 1 2043.27 322)">Semibold</text>
  <text style="stroke:none;fill:black;font-family:sans-serif;font-size:13;text-anchor:middle;" transform="matrix(1 0 0 1 2339.98 322)">Bold</text>
  <text style="stroke:none;fill:black;font-family:sans-serif;font-size:13;text-anchor:middle;" transform="matrix(1 0 0 1 2636.69 322)">Heavy</text>
  <text style="stroke:none;fill:black;font-family:sans-serif;font-size:13;text-anchor:middle;" transform="matrix(1 0 0 1 2933.4 322)">Black</text>
  <line style="fill:none;stroke:black;opacity:1;stroke-width:0.5;" x1="263" x2="3036" y1="1903" y2="1903"/>
  <g transform="matrix(0.2 0 0 0.2 263 1933)">
   <path d="m46.2402 4.15039c21.7773 0 39.4531-17.627 39.4531-39.4043s-17.6758-39.4043-39.4531-39.4043c-21.7285 0-39.4043 17.627-39.4043 39.4043s17.6758 39.4043 39.4043 39.4043Zm0-7.42188c-17.6758 0-31.9336-14.3066-31.9336-31.9824s14.2578-31.9824 31.9336-31.9824 31.9824 14.3066 31.9824 31.9824-14.3066 31.9824-31.9824 31.9824Zm-17.9688-31.9824c0 2.14844 1.51367 3.61328 3.75977 3.61328h10.498v10.5957c0 2.19727 1.46484 3.71094 3.61328 3.71094 2.24609 0 3.71094-1.51367 3.71094-3.71094v-10.5957h10.5957c2.19727 0 3.71094-1.46484 3.71094-3.61328 0-2.19727-1.51367-3.71094-3.71094-3.71094h-10.5957v-10.5469c0-2.24609-1.46484-3.75977-3.71094-3.75977-2.14844 0-3.61328 1.51367-3.61328 3.75977v10.5469h-10.498c-2.24609 0-3.75977 1.51367-3.75977 3.71094Z"/>
  </g>
  <g transform="matrix(0.2 0 0 0.2 281.506 1933)">
   <path d="m58.5449 14.5508c27.4902 0 49.8047-22.3145 49.8047-49.8047s-22.3145-49.8047-49.8047-49.8047-49.8047 22.3145-49.8047 49.8047 22.3145 49.8047 49.8047 49.8047Zm0-8.30078c-22.9492 0-41.5039-18.5547-41.5039-41.5039s18.5547-41.5039 41.5039-41.5039 41.5039 18.5547 41.5039 41.5039-18.5547 41.5039-41.5039 41.5039Zm-22.6562-41.5039c0 2.39258 1.66016 4.00391 4.15039 4.00391h14.3555v14.4043c0 2.44141 1.66016 4.15039 4.05273 4.15039 2.44141 0 4.15039-1.66016 4.15039-4.15039v-14.4043h14.4043c2.44141 0 4.15039-1.61133 4.15039-4.00391 0-2.44141-1.70898-4.15039-4.15039-4.15039h-14.4043v-14.3555c0-2.49023-1.70898-4.19922-4.15039-4.19922-2.39258 0-4.05273 1.70898-4.05273 4.19922v14.3555h-14.3555c-2.49023 0-4.15039 1.70898-4.15039 4.15039Z"/>
  </g>
  <g transform="matrix(0.2 0 0 0.2 304.924 1933)">
   <path d="m74.8535 28.3203c35.1074 0 63.623-28.4668 63.623-63.5742s-28.5156-63.623-63.623-63.623-63.5742 28.5156-63.5742 63.623 28.4668 63.5742 63.5742 63.5742Zm0-9.08203c-30.127 0-54.4922-24.3652-54.4922-54.4922s24.3652-54.4922 54.4922-54.4922 54.4922 24.3652 54.4922 54.4922-24.3652 54.4922-54.4922 54.4922Zm-28.8574-54.4922c0 2.58789 1.85547 4.39453 4.58984 4.39453h19.7266v19.7754c0 2.68555 1.85547 4.58984 4.44336 4.58984 2.68555 0 4.54102-1.85547 4.54102-4.58984v-19.7754h19.7754c2.68555 0 4.58984-1.80664 4.58984-4.39453 0-2.73438-1.85547-4.58984-4.58984-4.58984h-19.7754v-19.7266c0-2.73438-1.85547-4.63867-4.54102-4.63867-2.58789 0-4.44336 1.9043-4.44336 4.63867v19.7266h-19.7266c-2.73438 0-4.58984 1.85547-4.58984 4.58984Z"/>
  </g>
  <text style="stroke:none;fill:black;font-family:sans-serif;font-size:13;font-weight:bold;" transform="matrix(1 0 0 1 263 1953)">Design Variations</text>
  <text style="stroke:none;fill:black;font-family:sans-serif;font-size:13;" transform="matrix(1 0 0 1 263 1971)">Symbols are supported in up to nine weights and three scales.</text>
  <text style="stroke:none;fill:black;font-family:sans-serif;font-size:13;" transform="matrix(1 0 0 1 263 1989)">For optimal layout with text and other symbols, vertically align</text>
  <text style="stroke:none;fill:black;font-family:sans-serif;font-size:13;" transform="matrix(1 0 0 1 263 2007)">symbols with the adjacent text.</text>
  <line style="fill:none;stroke:#00AEEF;stroke-width:0.5;opacity:1.0;" x1="776" x2="776" y1="1919" y2="1933"/>
  <g transform="matrix(0.2 0 0 0.2 776 1933)">
   <path d="m16.5527 0.78125c2.58789 0 3.85742-0.976562 4.78516-3.71094l6.29883-17.2363h28.8086l6.29883 17.2363c0.927734 2.73438 2.19727 3.71094 4.73633 3.71094 2.58789 0 4.24805-1.5625 4.24805-4.00391 0-0.830078-0.146484-1.61133-0.537109-2.63672l-22.9004-60.9863c-1.12305-2.97852-3.125-4.49219-6.25-4.49219-3.02734 0-5.07812 1.46484-6.15234 4.44336l-22.9004 61.084c-0.390625 1.02539-0.537109 1.80664-0.537109 2.63672 0 2.44141 1.5625 3.95508 4.10156 3.95508Zm13.4766-28.3691 11.8652-32.8613h0.244141l11.8652 32.8613Z"/>
  </g>
  <line style="fill:none;stroke:#00AEEF;stroke-width:0.5;opacity:1.0;" x1="792.836" x2="792.836" y1="1919" y2="1933"/>
  <text style="stroke:none;fill:black;font-family:sans-serif;font-size:13;font-weight:bold;" transform="matrix(1 0 0 1 776 1953)">Margins</text>
  <text style="stroke:none;fill:black;font-family:sans-serif;font-size:13;" transform="matrix(1 0 0 1 776 1971)">Leading and trailing margins on the left and right side of each symbol</text>
  <text style="stroke:none;fill:black;font-family:sans-serif;font-size:13;" transform="matrix(1 0 0 1 776 1989)">can be adjusted by modifying the x-location of the margin guidelines.</text>
  <text style="stroke:none;fill:black;font-family:sans-serif;font-size:13;" transform="matrix(1 0 0 1 776 2007)">Modifications are automatically applied proportionally to all</text>
  <text style="stroke:none;fill:black;font-family:sans-serif;font-size:13;" transform="matrix(1 0 0 1 776 2025)">scales and weights.</text>
  <g transform="matrix(0.2 0 0 0.2 1289 1933)">
   <path d="m14.209 9.32617 8.49609 8.54492c4.29688 4.3457 9.22852 4.05273 13.8672-1.07422l53.4668-58.9355-4.83398-4.88281-53.0762 58.3984c-1.75781 2.00195-3.41797 2.49023-5.76172 0.146484l-5.85938-5.81055c-2.34375-2.29492-1.80664-4.00391 0.195312-5.81055l57.373-54.0039-4.88281-4.83398-57.959 54.4434c-4.93164 4.58984-5.32227 9.47266-1.02539 13.8184Zm32.0801-90.9668c-2.09961 2.05078-2.24609 4.93164-1.07422 6.88477 1.17188 1.80664 3.4668 2.97852 6.68945 2.14844 7.32422-1.70898 14.9414-2.00195 22.0703 2.68555l-2.92969 7.27539c-1.70898 4.15039-0.830078 7.08008 1.85547 9.81445l11.4746 11.5723c2.44141 2.44141 4.49219 2.53906 7.32422 2.05078l5.32227-0.976562 3.32031 3.36914-0.195312 2.7832c-0.195312 2.49023 0.439453 4.39453 2.88086 6.78711l3.80859 3.71094c2.39258 2.39258 5.46875 2.53906 7.8125 0.195312l14.5508-14.5996c2.34375-2.34375 2.24609-5.32227-0.146484-7.71484l-3.85742-3.80859c-2.39258-2.39258-4.24805-3.17383-6.64062-2.97852l-2.88086 0.244141-3.22266-3.17383 1.2207-5.61523c0.634766-2.83203-0.146484-5.0293-3.07617-7.95898l-10.9863-10.9375c-16.6992-16.6016-38.8672-16.2109-53.3203-1.75781Zm7.4707 1.85547c12.1582-8.88672 28.6133-7.37305 39.7461 3.75977l12.1582 12.0605c1.17188 1.17188 1.36719 2.09961 1.02539 3.80859l-1.61133 7.42188 7.51953 7.42188 4.93164-0.292969c1.26953-0.0488281 1.66016 0.0488281 2.63672 1.02539l2.88086 2.88086-12.207 12.207-2.88086-2.88086c-0.976562-0.976562-1.12305-1.36719-1.07422-2.68555l0.341797-4.88281-7.4707-7.42188-7.61719 1.26953c-1.61133 0.341797-2.34375 0.195312-3.56445-0.976562l-10.0098-10.0098c-1.26953-1.17188-1.41602-2.00195-0.634766-3.85742l4.39453-10.4492c-7.8125-7.27539-17.9688-10.4004-28.125-7.42188-0.78125 0.195312-1.07422-0.439453-0.439453-0.976562Z"/>
  </g>
  <text style="stroke:none;fill:black;font-family:sans-serif;font-size:13;font-weight:bold;" transform="matrix(1 0 0 1 1289 1953)">Exporting</text>
  <text style="stroke:none;fill:black;font-family:sans-serif;font-size:13;" transform="matrix(1 0 0 1 1289 1971)">Symbols should be outlined when exporting to ensure the</text>
  <text style="stroke:none;fill:black;font-family:sans-serif;font-size:13;" transform="matrix(1 0 0 1 1289 1989)">design is preserved when submitting to Xcode.</text>
  <text id="template-version" style="stroke:none;fill:black;font-family:sans-serif;font-size:13;text-anchor:end;" transform="matrix(1 0 0 1 3036 1933)">Template v.6.0</text>
  <text style="stroke:none;fill:black;font-family:sans-serif;font-size:13;text-anchor:end;" transform="matrix(1 0 0 1 3036 1951)">Requires Xcode 16 or greater</text>
  <text id="descriptive-name" style="stroke:none;fill:black;font-family:sans-serif;font-size:13;text-anchor:end;" transform="matrix(1 0 0 1 3036 1969)">Generated from bubble.left</text>
  <text style="stroke:none;fill:black;font-family:sans-serif;font-size:13;text-anchor:end;" transform="matrix(1 0 0 1 3036 1987)">Typeset at 100.0 points</text>
  <text style="stroke:none;fill:black;font-family:sans-serif;font-size:13;" transform="matrix(1 0 0 1 263 726)">Small</text>
  <text style="stroke:none;fill:black;font-family:sans-serif;font-size:13;" transform="matrix(1 0 0 1 263 1156)">Medium</text>
  <text style="stroke:none;fill:black;font-family:sans-serif;font-size:13;" transform="matrix(1 0 0 1 263 1586)">Large</text>
 </g>
 <g id="Guides">
  <g id="H-reference" style="fill:#27AAE1;stroke:none;" transform="matrix(1 0 0 1 339 696)">
   <path d="M0.993654 0L3.63775 0L29.3281-67.1323L30.0303-67.1323L30.0303-70.459L28.1226-70.459ZM11.6885-24.4799L46.9815-24.4799L46.2315-26.7285L12.4385-26.7285ZM55.1196 0L57.7637 0L30.6382-70.459L29.4326-70.459L29.4326-67.1323Z"/>
  </g>
  <line id="Baseline-S" style="fill:none;stroke:#27AAE1;opacity:1;stroke-width:0.5;" x1="263" x2="3036" y1="696" y2="696"/>
  <line id="Capline-S" style="fill:none;stroke:#27AAE1;opacity:1;stroke-width:0.5;" x1="263" x2="3036" y1="625.541" y2="625.541"/>
  <g id="H-reference" style="fill:#27AAE1;stroke:none;" transform="matrix(1 0 0 1 339 1126)">
   <path d="M0.993654 0L3.63775 0L29.3281-67.1323L30.0303-67.1323L30.0303-70.459L28.1226-70.459ZM11.6885-24.4799L46.9815-24.4799L46.2315-26.7285L12.4385-26.7285ZM55.1196 0L57.7637 0L30.6382-70.459L29.4326-70.459L29.4326-67.1323Z"/>
  </g>
  <line id="Baseline-M" style="fill:none;stroke:#27AAE1;opacity:1;stroke-width:0.5;" x1="263" x2="3036" y1="1126" y2="1126"/>
  <line id="Capline-M" style="fill:none;stroke:#27AAE1;opacity:1;stroke-width:0.5;" x1="263" x2="3036" y1="1055.54" y2="1055.54"/>
  <g id="H-reference" style="fill:#27AAE1;stroke:none;" transform="matrix(1 0 0 1 339 1556)">
   <path d="M0.993654 0L3.63775 0L29.3281-67.1323L30.0303-67.1323L30.0303-70.459L28.1226-70.459ZM11.6885-24.4799L46.9815-24.4799L46.2315-26.7285L12.4385-26.7285ZM55.1196 0L57.7637 0L30.6382-70.459L29.4326-70.459L29.4326-67.1323Z"/>
  </g>
  <line id="Baseline-L" style="fill:none;stroke:#27AAE1;opacity:1;stroke-width:0.5;" x1="263" x2="3036" y1="1556" y2="1556"/>
  <line id="Capline-L" style="fill:none;stroke:#27AAE1;opacity:1;stroke-width:0.5;" x1="263" x2="3036" y1="1485.54" y2="1485.54"/>
  <line id="right-margin-Black-S" style="fill:none;stroke:#00AEEF;stroke-width:0.5;opacity:1.0;" x1="2989.45" x2="2989.45" y1="600.785" y2="720.121"/>
  <line id="left-margin-Black-S" style="fill:none;stroke:#00AEEF;stroke-width:0.5;opacity:1.0;" x1="2877.35" x2="2877.35" y1="600.785" y2="720.121"/>
  <line id="right-margin-Regular-S" style="fill:none;stroke:#00AEEF;stroke-width:0.5;opacity:1.0;" x1="1502.16" x2="1502.16" y1="600.785" y2="720.121"/>
  <line id="left-margin-Regular-S" style="fill:none;stroke:#00AEEF;stroke-width:0.5;opacity:1.0;" x1="1397.53" x2="1397.53" y1="600.785" y2="720.121"/>
  <line id="right-margin-Ultralight-S" style="fill:none;stroke:#00AEEF;stroke-width:0.5;opacity:1.0;" x1="609.873" x2="609.873" y1="600.785" y2="720.121"/>
  <line id="left-margin-Ultralight-S" style="fill:none;stroke:#00AEEF;stroke-width:0.5;opacity:1.0;" x1="509.549" x2="509.549" y1="600.785" y2="720.121"/>
 </g>
 <g id="Symbols">
  <g id="Black-S" transform="matrix(1 0 0 1 2877.35 696)">
   <path class="SFSymbolsPreviewWireframe" d="M39.8438 10.3516C43.2617 10.3516 46.2402 9.08203 50.4395 5.46875L63.0371-5.37109L82.2266-5.37109C94.2383-5.37109 102.344-13.4766 102.344-25.4883L102.344-57.1289C102.344-69.1406 94.2383-77.2461 82.2266-77.2461L29.8828-77.2461C17.8711-77.2461 9.76562-69.1406 9.76562-57.1289L9.76562-25.4883C9.76562-13.4766 18.8477-5.37109 28.418-5.37109L31.6406-5.37109L31.6406 1.46484C31.6406 7.03125 34.8145 10.3516 39.8438 10.3516ZM43.1641-5.17578L43.1641-15.2344C43.1641-18.3594 41.4062-19.5312 38.8672-19.5312L31.1523-19.5312C26.4648-19.5312 23.9258-21.875 23.9258-26.7578L23.9258-55.8594C23.9258-60.7422 26.4648-63.0859 31.1523-63.0859L80.957-63.0859C85.6445-63.0859 88.1836-60.7422 88.1836-55.8594L88.1836-26.7578C88.1836-21.875 85.6445-19.5312 80.957-19.5312L61.7676-19.5312C58.5449-19.5312 57.2754-18.7988 54.834-16.4551ZM32.6499-35.5275L38.4326-35.5275C39.9328-35.5275 41.0586-35.9511 41.7377-36.8715L43.7103-39.0631L39.8824-39.0631L42.2631-26.5977C42.8664-23.504 47.2429-23.507 47.6816-26.5947L48.2651-30.8122L49.6332-17.4765C49.9882-14.174 54.8368-14.1725 55.111-17.4765L56.0464-29.3146L56.9788-17.4675C57.2545-14.168 62.1032-14.171 62.4581-17.4675L63.8293-30.8122L64.4052-26.6037C64.8484-23.51 69.2249-23.51 69.8282-26.6037L72.2394-39.0706L69.1968-39.0721L70.2075-37.9705C71.1744-36.4199 72.6198-35.5275 74.4123-35.5275L79.4549-35.5275C80.9328-35.5275 82.1941-36.7873 82.1941-38.2696C82.1941-39.7503 80.9328-41.0087 79.4549-41.0087L74.8262-41.0087L73.5132-46.4555C72.8276-49.2859 68.695-49.2889 68.1466-46.4585L67.5752-43.4203L66.1691-53.4079C65.7014-56.6297 61.0462-56.6312 60.7187-53.4109L60.0954-47.1247L58.7975-63.2291C58.5233-66.5866 53.568-66.5866 53.2923-63.2291L51.9989-47.1247L51.3711-53.4109C51.0451-56.6266 46.3869-56.6266 45.9223-53.4079L44.5192-43.4203L43.9463-46.4645C43.3978-49.2629 39.2637-49.2629 38.5812-46.4645L37.2636-41.0087L32.6499-41.0087C31.1722-41.0087 29.9108-39.7503 29.9108-38.2696C29.9108-36.7873 31.1722-35.5275 32.6499-35.5275Z"/>
  </g>
  <g id="Regular-S" transform="matrix(1 0 0 1 1397.53 696)">
   <path class="SFSymbolsPreviewWireframe" d="M34.2773 7.37305C36.4258 7.37305 37.8906 6.25 40.5273 3.85742L53.6133-7.86133L76.5625-7.86133C88.5742-7.86133 94.873-14.3555 94.873-26.1719L94.873-54.5898C94.873-66.4062 88.5742-72.9004 76.5625-72.9004L28.0762-72.9004C16.0645-72.9004 9.76562-66.4062 9.76562-54.5898L9.76562-26.1719C9.76562-14.3555 16.0645-7.86133 28.0762-7.86133L29.4922-7.86133L29.4922 1.85547C29.4922 5.22461 31.2012 7.37305 34.2773 7.37305ZM36.084-0.634766L36.084-11.6211C36.084-14.0137 35.2051-14.8926 32.8125-14.8926L28.0762-14.8926C20.2148-14.8926 16.7969-18.6523 16.7969-26.1719L16.7969-54.5898C16.7969-62.0605 20.2148-65.8203 28.0762-65.8203L76.5625-65.8203C84.4238-65.8203 87.8418-62.0605 87.8418-54.5898L87.8418-26.1719C87.8418-18.6523 84.4238-14.8926 76.5625-14.8926L53.2227-14.8926C50.8789-14.8926 49.6582-14.5508 48.0957-12.8906ZM29.8536-36.3286L35.392-36.3286C36.3523-36.3286 37.141-36.7077 37.5123-37.4687L38.7835-40.4539L36.731-40.4539L39.4236-27.4136C39.8492-25.3536 42.9237-25.3552 43.2225-27.412L44.715-37.346L46.795-18.7527C47.0591-16.4165 50.4323-16.4304 50.6338-18.7527L52.3887-38.9965L54.142-18.7479C54.3296-16.4133 57.7028-16.4149 57.9669-18.7479L60.0485-37.346L61.5516-27.4168C61.8381-25.3568 64.9126-25.3568 65.3383-27.4168L68.0291-40.3843L66.2624-40.3704L67.2027-37.9297C67.7093-36.8462 68.6176-36.3286 69.7008-36.3286L74.7831-36.3286C75.9226-36.3286 76.8553-37.2459 76.8553-38.3731C76.8553-39.5142 75.9226-40.4454 74.7831-40.4454L70.4356-40.4454L69.0093-46.0286C68.5055-48.0661 65.6637-48.0677 65.2608-46.0302L63.7453-38.8333L61.6778-52.6702C61.3374-54.9439 58.1031-54.93 57.8651-52.6718L56.2992-38.8651L54.3203-61.9794C54.1188-64.3383 50.643-64.3383 50.4555-61.9794L48.4643-38.8651L46.9107-52.6718C46.6587-54.9422 43.4228-54.9422 43.0841-52.6702L41.0181-38.8333L39.5166-46.0334C39.1136-47.9983 36.2563-47.9983 35.7542-46.0334L34.3402-40.4454L29.8536-40.4454C28.7141-40.4454 27.7813-39.5142 27.7813-38.3731C27.7813-37.2459 28.7141-36.3286 29.8536-36.3286Z"/>
  </g>
  <g id="Ultralight-S" transform="matrix(1 0 0 1 509.549 696)">
   <path class="SFSymbolsPreviewWireframe" d="M28.919 4.10354C29.6597 4.10354 30.2164 3.70705 30.8551 3.17627L44.7584-8.6787L76.5625-8.6787C85.1231-8.6787 90.5591-14.2192 90.5591-22.6753L90.5591-56.043C90.5591-64.499 85.1231-70.0396 76.5625-70.0396L23.7622-70.0396C15.2017-70.0396 9.76562-64.5899 9.76562-56.043L9.76562-22.6753C9.76562-14.1284 15.2017-8.6787 23.7622-8.6787L27.3125-8.6787L27.3125 2.26416C27.3125 3.40822 27.9771 4.10354 28.919 4.10354ZM29.4087 1.68113L29.4087-9.8047C29.4087-10.5625 29.0748-10.8965 28.3169-10.8965L23.8531-10.8965C16.5821-10.8965 11.9834-15.5645 11.9834-22.7661L11.9834-55.9521C11.9834-63.1958 16.5821-67.8183 23.8531-67.8183L76.4717-67.8183C83.561-67.8183 88.3413-63.1958 88.3413-55.9521L88.3413-22.7661C88.3413-15.5645 83.561-10.8965 76.4717-10.8965L45.1397-10.8965C44.1128-10.8965 43.5733-10.6909 42.6465-9.89358ZM27.4368-37.583L33.6094-37.583C33.9694-37.583 34.3195-37.8097 34.4084-38.1854L35.5782-43.065L35.1235-43.065L38.3266-27.9279C38.5189-27.0801 39.827-27.0657 39.9647-27.9423L42.6844-46.0899L45.7141-19.6747C45.8374-18.6822 47.2589-18.6922 47.3478-19.6747L50.2053-51.9214L53.0771-19.7179C53.156-18.711 54.5775-18.6966 54.7008-19.7179L57.7161-46.0899L60.4746-27.8992C60.5879-27.0513 61.896-27.0513 62.0883-27.8992L65.2813-43.015L64.7966-43.0049L66.0166-38.1854C66.1155-37.7696 66.4555-37.583 66.8012-37.583L72.8879-37.583C73.3926-37.583 73.803-37.9976 73.803-38.4779C73.803-38.9683 73.3926-39.3928 72.8879-39.3928L67.4224-39.3928L65.7791-45.8252C65.5569-46.7045 64.3533-46.6901 64.1755-45.8109L61.3926-32.5768L58.4118-52.3325C58.2684-53.2906 56.9014-53.2806 56.788-52.3181L53.9707-27.8235L51.0344-61.1817C50.9454-62.1886 49.4695-62.1886 49.3906-61.1817L46.4298-27.8235L43.6369-52.3181C43.5135-53.305 42.1609-53.305 42.0031-52.3325L39.008-32.5768L36.2351-45.7821C36.0572-46.6644 34.8581-46.6644 34.6213-45.7821L33.0026-39.3928L27.4368-39.3928C26.932-39.3928 26.5218-38.9683 26.5218-38.4779C26.5218-37.9976 26.932-37.583 27.4368-37.583Z"/>
  </g>
 </g>
 <g id="LayerTree">
  <g class="monochrome-0 multicolor-0:tintColor hierarchical-0:secondary"/>
  <g class="monochrome-1 multicolor-1:tintColor hierarchical-1:primary">
   <g class="shapeGroupLayer-0"/>
  </g>
 </g>
</svg>
