<?xml version="1.0" encoding="UTF-8"?>
<!--Generator: Apple Native CoreSVG 338-->
<!DOCTYPE svg
PUBLIC "-//W3C//DTD SVG 1.1//EN"
       "http://www.w3.org/Graphics/SVG/1.1/DTD/svg11.dtd">
<svg version="1.1" xmlns="http://www.w3.org/2000/svg" xmlns:xlink="http://www.w3.org/1999/xlink" viewBox="0 0 3300 2200">
 <!--glyph: "", point size: 100.0, font version: "20.0d8e1", template writer version: "138.0.0"-->
 <style>.monochrome-0 {-sfsymbols-motion-group:1;-sfsymbols-layer-tags:574311d19b91aa38 hexagon.fill}
.monochrome-1 {opacity:0.0;-sfsymbols-clear-behind:true;-sfsymbols-motion-group:0;-sfsymbols-always-pulses:true;-sfsymbols-layer-tags:-359118ac16a0adcb 574311d19b91aa38 sparkles}
.monochrome-2 {opacity:0.0;-sfsymbols-clear-behind:true;-sfsymbols-motion-group:0;-sfsymbols-always-pulses:true;-sfsymbols-layer-tags:-359118ac16a0adcb 574311d19b91aa38 sparkles}
.monochrome-3 {opacity:0.0;-sfsymbols-clear-behind:true;-sfsymbols-motion-group:0;-sfsymbols-always-pulses:true;-sfsymbols-layer-tags:-359118ac16a0adcb 574311d19b91aa38 sparkles}

.multicolor-0:tintColor {-sfsymbols-motion-group:1;-sfsymbols-layer-tags:574311d19b91aa38 hexagon.fill}
.multicolor-1:white {-sfsymbols-motion-group:0;-sfsymbols-always-pulses:true;-sfsymbols-layer-tags:-359118ac16a0adcb 574311d19b91aa38 sparkles}
.multicolor-2:white {-sfsymbols-motion-group:0;-sfsymbols-always-pulses:true;-sfsymbols-layer-tags:-359118ac16a0adcb 574311d19b91aa38 sparkles}
.multicolor-3:white {-sfsymbols-motion-group:0;-sfsymbols-always-pulses:true;-sfsymbols-layer-tags:-359118ac16a0adcb 574311d19b91aa38 sparkles}

.hierarchical-0:tertiary {-sfsymbols-motion-group:1;-sfsymbols-layer-tags:574311d19b91aa38 hexagon.fill}
.hierarchical-1:primary {-sfsymbols-motion-group:0;-sfsymbols-layer-tags:-359118ac16a0adcb 574311d19b91aa38 sparkles}
.hierarchical-2:primary {-sfsymbols-motion-group:0;-sfsymbols-layer-tags:-359118ac16a0adcb 574311d19b91aa38 sparkles}
.hierarchical-3:primary {-sfsymbols-motion-group:0;-sfsymbols-layer-tags:-359118ac16a0adcb 574311d19b91aa38 sparkles}

.SFSymbolsPreviewWireframe {fill:none;opacity:1.0;stroke:black;stroke-width:0.5}
</style>
 <g id="Notes">
  <rect height="2200" id="artboard" style="fill:white;opacity:1" width="3300" x="0" y="0"/>
  <line style="fill:none;stroke:black;opacity:1;stroke-width:0.5;" x1="263" x2="3036" y1="292" y2="292"/>
  <text style="stroke:none;fill:black;font-family:sans-serif;font-size:13;font-weight:bold;" transform="matrix(1 0 0 1 263 322)">Weight/Scale Variations</text>
  <text style="stroke:none;fill:black;font-family:sans-serif;font-size:13;text-anchor:middle;" transform="matrix(1 0 0 1 559.711 322)">Ultralight</text>
  <text style="stroke:none;fill:black;font-family:sans-serif;font-size:13;text-anchor:middle;" transform="matrix(1 0 0 1 856.422 322)">Thin</text>
  <text style="stroke:none;fill:black;font-family:sans-serif;font-size:13;text-anchor:middle;" transform="matrix(1 0 0 1 1153.13 322)">Light</text>
  <text style="stroke:none;fill:black;font-family:sans-serif;font-size:13;text-anchor:middle;" transform="matrix(1 0 0 1 1449.84 322)">Regular</text>
  <text style="stroke:none;fill:black;font-family:sans-serif;font-size:13;text-anchor:middle;" transform="matrix(1 0 0 1 1746.56 322)">Medium</text>
  <text style="stroke:none;fill:black;font-family:sans-serif;font-size:13;text-anchor:middle;" transform="matrix(1 0 0 1 2043.27 322)">Semibold</text>
  <text style="stroke:none;fill:black;font-family:sans-serif;font-size:13;text-anchor:middle;" transform="matrix(1 0 0 1 2339.98 322)">Bold</text>
  <text style="stroke:none;fill:black;font-family:sans-serif;font-size:13;text-anchor:middle;" transform="matrix(1 0 0 1 2636.69 322)">Heavy</text>
  <text style="stroke:none;fill:black;font-family:sans-serif;font-size:13;text-anchor:middle;" transform="matrix(1 0 0 1 2933.4 322)">Black</text>
  <line style="fill:none;stroke:black;opacity:1;stroke-width:0.5;" x1="263" x2="3036" y1="1903" y2="1903"/>
  <g transform="matrix(0.2 0 0 0.2 263 1933)">
   <path d="m46.2402 4.15039c21.7773 0 39.4531-17.627 39.4531-39.4043s-17.6758-39.4043-39.4531-39.4043c-21.7285 0-39.4043 17.627-39.4043 39.4043s17.6758 39.4043 39.4043 39.4043Zm0-7.42188c-17.6758 0-31.9336-14.3066-31.9336-31.9824s14.2578-31.9824 31.9336-31.9824 31.9824 14.3066 31.9824 31.9824-14.3066 31.9824-31.9824 31.9824Zm-17.9688-31.9824c0 2.14844 1.51367 3.61328 3.75977 3.61328h10.498v10.5957c0 2.19727 1.46484 3.71094 3.61328 3.71094 2.24609 0 3.71094-1.51367 3.71094-3.71094v-10.5957h10.5957c2.19727 0 3.71094-1.46484 3.71094-3.61328 0-2.19727-1.51367-3.71094-3.71094-3.71094h-10.5957v-10.5469c0-2.24609-1.46484-3.75977-3.71094-3.75977-2.14844 0-3.61328 1.51367-3.61328 3.75977v10.5469h-10.498c-2.24609 0-3.75977 1.51367-3.75977 3.71094Z"/>
  </g>
  <g transform="matrix(0.2 0 0 0.2 281.506 1933)">
   <path d="m58.5449 14.5508c27.4902 0 49.8047-22.3145 49.8047-49.8047s-22.3145-49.8047-49.8047-49.8047-49.8047 22.3145-49.8047 49.8047 22.3145 49.8047 49.8047 49.8047Zm0-8.30078c-22.9492 0-41.5039-18.5547-41.5039-41.5039s18.5547-41.5039 41.5039-41.5039 41.5039 18.5547 41.5039 41.5039-18.5547 41.5039-41.5039 41.5039Zm-22.6562-41.5039c0 2.39258 1.66016 4.00391 4.15039 4.00391h14.3555v14.4043c0 2.44141 1.66016 4.15039 4.05273 4.15039 2.44141 0 4.15039-1.66016 4.15039-4.15039v-14.4043h14.4043c2.44141 0 4.15039-1.61133 4.15039-4.00391 0-2.44141-1.70898-4.15039-4.15039-4.15039h-14.4043v-14.3555c0-2.49023-1.70898-4.19922-4.15039-4.19922-2.39258 0-4.05273 1.70898-4.05273 4.19922v14.3555h-14.3555c-2.49023 0-4.15039 1.70898-4.15039 4.15039Z"/>
  </g>
  <g transform="matrix(0.2 0 0 0.2 304.924 1933)">
   <path d="m74.8535 28.3203c35.1074 0 63.623-28.4668 63.623-63.5742s-28.5156-63.623-63.623-63.623-63.5742 28.5156-63.5742 63.623 28.4668 63.5742 63.5742 63.5742Zm0-9.08203c-30.127 0-54.4922-24.3652-54.4922-54.4922s24.3652-54.4922 54.4922-54.4922 54.4922 24.3652 54.4922 54.4922-24.3652 54.4922-54.4922 54.4922Zm-28.8574-54.4922c0 2.58789 1.85547 4.39453 4.58984 4.39453h19.7266v19.7754c0 2.68555 1.85547 4.58984 4.44336 4.58984 2.68555 0 4.54102-1.85547 4.54102-4.58984v-19.7754h19.7754c2.68555 0 4.58984-1.80664 4.58984-4.39453 0-2.73438-1.85547-4.58984-4.58984-4.58984h-19.7754v-19.7266c0-2.73438-1.85547-4.63867-4.54102-4.63867-2.58789 0-4.44336 1.9043-4.44336 4.63867v19.7266h-19.7266c-2.73438 0-4.58984 1.85547-4.58984 4.58984Z"/>
  </g>
  <text style="stroke:none;fill:black;font-family:sans-serif;font-size:13;font-weight:bold;" transform="matrix(1 0 0 1 263 1953)">Design Variations</text>
  <text style="stroke:none;fill:black;font-family:sans-serif;font-size:13;" transform="matrix(1 0 0 1 263 1971)">Symbols are supported in up to nine weights and three scales.</text>
  <text style="stroke:none;fill:black;font-family:sans-serif;font-size:13;" transform="matrix(1 0 0 1 263 1989)">For optimal layout with text and other symbols, vertically align</text>
  <text style="stroke:none;fill:black;font-family:sans-serif;font-size:13;" transform="matrix(1 0 0 1 263 2007)">symbols with the adjacent text.</text>
  <line style="fill:none;stroke:#00AEEF;stroke-width:0.5;opacity:1.0;" x1="776" x2="776" y1="1919" y2="1933"/>
  <g transform="matrix(0.2 0 0 0.2 776 1933)">
   <path d="m16.5527 0.78125c2.58789 0 3.85742-0.976562 4.78516-3.71094l6.29883-17.2363h28.8086l6.29883 17.2363c0.927734 2.73438 2.19727 3.71094 4.73633 3.71094 2.58789 0 4.24805-1.5625 4.24805-4.00391 0-0.830078-0.146484-1.61133-0.537109-2.63672l-22.9004-60.9863c-1.12305-2.97852-3.125-4.49219-6.25-4.49219-3.02734 0-5.07812 1.46484-6.15234 4.44336l-22.9004 61.084c-0.390625 1.02539-0.537109 1.80664-0.537109 2.63672 0 2.44141 1.5625 3.95508 4.10156 3.95508Zm13.4766-28.3691 11.8652-32.8613h0.244141l11.8652 32.8613Z"/>
  </g>
  <line style="fill:none;stroke:#00AEEF;stroke-width:0.5;opacity:1.0;" x1="792.836" x2="792.836" y1="1919" y2="1933"/>
  <text style="stroke:none;fill:black;font-family:sans-serif;font-size:13;font-weight:bold;" transform="matrix(1 0 0 1 776 1953)">Margins</text>
  <text style="stroke:none;fill:black;font-family:sans-serif;font-size:13;" transform="matrix(1 0 0 1 776 1971)">Leading and trailing margins on the left and right side of each symbol</text>
  <text style="stroke:none;fill:black;font-family:sans-serif;font-size:13;" transform="matrix(1 0 0 1 776 1989)">can be adjusted by modifying the x-location of the margin guidelines.</text>
  <text style="stroke:none;fill:black;font-family:sans-serif;font-size:13;" transform="matrix(1 0 0 1 776 2007)">Modifications are automatically applied proportionally to all</text>
  <text style="stroke:none;fill:black;font-family:sans-serif;font-size:13;" transform="matrix(1 0 0 1 776 2025)">scales and weights.</text>
  <g transform="matrix(0.2 0 0 0.2 1289 1933)">
   <path d="m14.209 9.32617 8.49609 8.54492c4.29688 4.3457 9.22852 4.05273 13.8672-1.07422l53.4668-58.9355-4.83398-4.88281-53.0762 58.3984c-1.75781 2.00195-3.41797 2.49023-5.76172 0.146484l-5.85938-5.81055c-2.34375-2.29492-1.80664-4.00391 0.195312-5.81055l57.373-54.0039-4.88281-4.83398-57.959 54.4434c-4.93164 4.58984-5.32227 9.47266-1.02539 13.8184Zm32.0801-90.9668c-2.09961 2.05078-2.24609 4.93164-1.07422 6.88477 1.17188 1.80664 3.4668 2.97852 6.68945 2.14844 7.32422-1.70898 14.9414-2.00195 22.0703 2.68555l-2.92969 7.27539c-1.70898 4.15039-0.830078 7.08008 1.85547 9.81445l11.4746 11.5723c2.44141 2.44141 4.49219 2.53906 7.32422 2.05078l5.32227-0.976562 3.32031 3.36914-0.195312 2.7832c-0.195312 2.49023 0.439453 4.39453 2.88086 6.78711l3.80859 3.71094c2.39258 2.39258 5.46875 2.53906 7.8125 0.195312l14.5508-14.5996c2.34375-2.34375 2.24609-5.32227-0.146484-7.71484l-3.85742-3.80859c-2.39258-2.39258-4.24805-3.17383-6.64062-2.97852l-2.88086 0.244141-3.22266-3.17383 1.2207-5.61523c0.634766-2.83203-0.146484-5.0293-3.07617-7.95898l-10.9863-10.9375c-16.6992-16.6016-38.8672-16.2109-53.3203-1.75781Zm7.4707 1.85547c12.1582-8.88672 28.6133-7.37305 39.7461 3.75977l12.1582 12.0605c1.17188 1.17188 1.36719 2.09961 1.02539 3.80859l-1.61133 7.42188 7.51953 7.42188 4.93164-0.292969c1.26953-0.0488281 1.66016 0.0488281 2.63672 1.02539l2.88086 2.88086-12.207 12.207-2.88086-2.88086c-0.976562-0.976562-1.12305-1.36719-1.07422-2.68555l0.341797-4.88281-7.4707-7.42188-7.61719 1.26953c-1.61133 0.341797-2.34375 0.195312-3.56445-0.976562l-10.0098-10.0098c-1.26953-1.17188-1.41602-2.00195-0.634766-3.85742l4.39453-10.4492c-7.8125-7.27539-17.9688-10.4004-28.125-7.42188-0.78125 0.195312-1.07422-0.439453-0.439453-0.976562Z"/>
  </g>
  <text style="stroke:none;fill:black;font-family:sans-serif;font-size:13;font-weight:bold;" transform="matrix(1 0 0 1 1289 1953)">Exporting</text>
  <text style="stroke:none;fill:black;font-family:sans-serif;font-size:13;" transform="matrix(1 0 0 1 1289 1971)">Symbols should be outlined when exporting to ensure the</text>
  <text style="stroke:none;fill:black;font-family:sans-serif;font-size:13;" transform="matrix(1 0 0 1 1289 1989)">design is preserved when submitting to Xcode.</text>
  <text id="template-version" style="stroke:none;fill:black;font-family:sans-serif;font-size:13;text-anchor:end;" transform="matrix(1 0 0 1 3036 1933)">Template v.6.0</text>
  <text style="stroke:none;fill:black;font-family:sans-serif;font-size:13;text-anchor:end;" transform="matrix(1 0 0 1 3036 1951)">Requires Xcode 16 or greater</text>
  <text id="descriptive-name" style="stroke:none;fill:black;font-family:sans-serif;font-size:13;text-anchor:end;" transform="matrix(1 0 0 1 3036 1969)">Generated from hexagon.fill</text>
  <text style="stroke:none;fill:black;font-family:sans-serif;font-size:13;text-anchor:end;" transform="matrix(1 0 0 1 3036 1987)">Typeset at 100.0 points</text>
  <text style="stroke:none;fill:black;font-family:sans-serif;font-size:13;" transform="matrix(1 0 0 1 263 726)">Small</text>
  <text style="stroke:none;fill:black;font-family:sans-serif;font-size:13;" transform="matrix(1 0 0 1 263 1156)">Medium</text>
  <text style="stroke:none;fill:black;font-family:sans-serif;font-size:13;" transform="matrix(1 0 0 1 263 1586)">Large</text>
 </g>
 <g id="Guides">
  <g id="H-reference" style="fill:#27AAE1;stroke:none;" transform="matrix(1 0 0 1 339 696)">
   <path d="M0.993654 0L3.63775 0L29.3281-67.1323L30.0303-67.1323L30.0303-70.459L28.1226-70.459ZM11.6885-24.4799L46.9815-24.4799L46.2315-26.7285L12.4385-26.7285ZM55.1196 0L57.7637 0L30.6382-70.459L29.4326-70.459L29.4326-67.1323Z"/>
  </g>
  <line id="Baseline-S" style="fill:none;stroke:#27AAE1;opacity:1;stroke-width:0.5;" x1="263" x2="3036" y1="696" y2="696"/>
  <line id="Capline-S" style="fill:none;stroke:#27AAE1;opacity:1;stroke-width:0.5;" x1="263" x2="3036" y1="625.541" y2="625.541"/>
  <g id="H-reference" style="fill:#27AAE1;stroke:none;" transform="matrix(1 0 0 1 339 1126)">
   <path d="M0.993654 0L3.63775 0L29.3281-67.1323L30.0303-67.1323L30.0303-70.459L28.1226-70.459ZM11.6885-24.4799L46.9815-24.4799L46.2315-26.7285L12.4385-26.7285ZM55.1196 0L57.7637 0L30.6382-70.459L29.4326-70.459L29.4326-67.1323Z"/>
  </g>
  <line id="Baseline-M" style="fill:none;stroke:#27AAE1;opacity:1;stroke-width:0.5;" x1="263" x2="3036" y1="1126" y2="1126"/>
  <line id="Capline-M" style="fill:none;stroke:#27AAE1;opacity:1;stroke-width:0.5;" x1="263" x2="3036" y1="1055.54" y2="1055.54"/>
  <g id="H-reference" style="fill:#27AAE1;stroke:none;" transform="matrix(1 0 0 1 339 1556)">
   <path d="M0.993654 0L3.63775 0L29.3281-67.1323L30.0303-67.1323L30.0303-70.459L28.1226-70.459ZM11.6885-24.4799L46.9815-24.4799L46.2315-26.7285L12.4385-26.7285ZM55.1196 0L57.7637 0L30.6382-70.459L29.4326-70.459L29.4326-67.1323Z"/>
  </g>
  <line id="Baseline-L" style="fill:none;stroke:#27AAE1;opacity:1;stroke-width:0.5;" x1="263" x2="3036" y1="1556" y2="1556"/>
  <line id="Capline-L" style="fill:none;stroke:#27AAE1;opacity:1;stroke-width:0.5;" x1="263" x2="3036" y1="1485.54" y2="1485.54"/>
  <line id="right-margin-Black-S" style="fill:none;stroke:#00AEEF;stroke-width:0.5;opacity:1.0;" x1="2985.55" x2="2985.55" y1="600.785" y2="720.121"/>
  <line id="left-margin-Black-S" style="fill:none;stroke:#00AEEF;stroke-width:0.5;opacity:1.0;" x1="2881.25" x2="2881.25" y1="600.785" y2="720.121"/>
  <line id="right-margin-Regular-S" style="fill:none;stroke:#00AEEF;stroke-width:0.5;opacity:1.0;" x1="1498.62" x2="1498.62" y1="600.785" y2="720.121"/>
  <line id="left-margin-Regular-S" style="fill:none;stroke:#00AEEF;stroke-width:0.5;opacity:1.0;" x1="1401.07" x2="1401.07" y1="600.785" y2="720.121"/>
  <line id="right-margin-Ultralight-S" style="fill:none;stroke:#00AEEF;stroke-width:0.5;opacity:1.0;" x1="605.107" x2="605.107" y1="600.785" y2="720.121"/>
  <line id="left-margin-Ultralight-S" style="fill:none;stroke:#00AEEF;stroke-width:0.5;opacity:1.0;" x1="514.315" x2="514.315" y1="600.785" y2="720.121"/>
 </g>
 <g id="Symbols">
  <g id="Black-S" transform="matrix(1 0 0 1 2881.25 696)">
   <path class="monochrome-0 multicolor-0:tintColor hierarchical-0:tertiary SFSymbolsPreviewWireframe" d="M16.0645-7.12891L45.8008 10.0586C49.8047 12.4023 54.4922 12.4023 58.4961 10.0586L88.2324-7.12891C92.1387-9.375 94.5312-13.4766 94.5312-18.0664L94.5312-52.4414C94.5312-57.0312 92.1387-61.1328 88.2324-63.3789L58.4961-80.5664C54.4922-82.9102 49.8047-82.9102 45.8008-80.5664L16.0645-63.3789C12.1582-61.1328 9.76562-57.0312 9.76562-52.4414L9.76562-18.0664C9.76562-13.4766 12.1582-9.375 16.0645-7.12891Z"/>
   <path class="monochrome-1 multicolor-1:white hierarchical-1:primary SFSymbolsPreviewWireframe" d="M49.9725-49.0964C50.3688-49.0964 50.6659-49.3921 50.7178-49.7624C51.1588-52.7714 51.1328-52.6642 54.3423-53.358C54.7371-53.4387 55.0068-53.7039 55.0068-54.1032C55.0068-54.5025 54.7082-54.7967 54.3133-54.8485C51.1328-55.2819 51.1298-55.2327 50.7178-58.4152C50.6659-58.8129 50.3688-59.1085 49.9725-59.1085C49.5747-59.1085 49.2746-58.8129 49.2228-58.3863C48.8701-55.4351 48.8366-55.5423 45.6013-54.8485C45.2034-54.7677 44.9338-54.5025 44.9338-54.1032C44.9338-53.7039 45.2034-53.4387 45.688-53.358C48.7788-52.8088 48.8122-52.887 49.2228-49.7913C49.2746-49.3921 49.5747-49.0964 49.9725-49.0964Z"/>
   <path class="monochrome-2 multicolor-2:white hierarchical-2:primary SFSymbolsPreviewWireframe" d="M40.6111-34.4399C41.2373-34.4399 41.7582-34.9061 41.839-35.5323C42.4452-40.3395 42.4727-40.4778 47.7217-41.3556C48.3494-41.4653 48.7821-41.9604 48.7821-42.5835C48.7821-43.2052 48.3205-43.7322 47.6928-43.813C42.5595-44.4484 42.4467-44.5762 41.839-49.6088C41.7582-50.2595 41.2662-50.7256 40.6111-50.7256C39.9575-50.7256 39.4654-50.2595 39.3847-49.5814C38.8318-44.8 38.7465-44.6922 33.502-43.813C32.8743-43.7048 32.4416-43.2052 32.4416-42.5835C32.4416-41.9329 32.8743-41.4653 33.6406-41.3556C38.6856-40.6668 38.8318-40.4263 39.3847-35.5871C39.4654-34.9061 39.9575-34.4399 40.6111-34.4399Z"/>
   <path class="monochrome-3 multicolor-3:white hierarchical-3:primary SFSymbolsPreviewWireframe" d="M55.4519-12.9815C56.622-12.9815 57.5559-13.8286 57.7493-15.0336C59.2394-24.5668 60.5987-25.9837 69.7263-27.0654C70.9557-27.204 71.8606-28.1942 71.8606-29.3977C71.8606-30.5708 70.9847-31.5365 69.7552-31.7315C60.6566-33.1314 59.5864-34.2316 57.7493-43.7618C57.5269-44.9683 56.5931-45.8154 55.4519-45.8154C54.2834-45.8154 53.3496-44.9683 53.1547-43.7618C51.6661-34.2316 50.3067-32.8132 41.1791-31.7315C39.9497-31.5943 39.0433-30.5997 39.0433-29.3977C39.0433-28.2231 39.9208-27.2619 41.1502-27.0654C50.2564-25.7242 51.3431-24.5698 53.1547-15.0336C53.3785-13.8286 54.3123-12.9815 55.4519-12.9815Z"/>
  </g>
  <g id="Regular-S" transform="matrix(1 0 0 1 1401.07 696)">
   <path class="monochrome-0 multicolor-0:tintColor hierarchical-0:tertiary SFSymbolsPreviewWireframe" d="M14.4043-10.0098L44.1406 7.12891C47.1191 8.88672 50.4395 8.88672 53.418 7.12891L83.1543-10.0098C86.084-11.7188 87.793-14.6973 87.793-18.0664L87.793-52.4414C87.793-55.8105 86.084-58.7891 83.1543-60.498L53.418-77.6367C50.4395-79.3945 47.1191-79.3945 44.1406-77.6367L14.4043-60.498C11.4746-58.7891 9.76562-55.8105 9.76562-52.4414L9.76562-18.0664C9.76562-14.6973 11.4746-11.7188 14.4043-10.0098Z"/>
   <path class="monochrome-1 multicolor-1:white hierarchical-1:primary SFSymbolsPreviewWireframe" d="M47.2192-49.2978C47.5428-49.2978 47.7532-49.5221 47.8036-49.8057C48.3469-52.9002 48.307-52.8753 51.5485-53.5384C51.8565-53.601 52.0703-53.7976 52.0703-54.1228C52.0703-54.448 51.8444-54.6568 51.5363-54.7072C48.307-55.2611 48.3348-55.2605 47.8036-58.4278C47.7532-58.7375 47.5428-58.9618 47.2192-58.9618C46.9095-58.9618 46.6975-58.7375 46.6471-58.4157C46.1263-55.3455 46.1559-55.3703 42.9039-54.7072C42.5942-54.6447 42.3804-54.448 42.3804-54.1228C42.3804-53.7976 42.5942-53.601 42.9402-53.5384C46.1316-52.9359 46.102-52.9487 46.6471-49.8178C46.6975-49.5221 46.9095-49.2978 47.2192-49.2978Z"/>
   <path class="monochrome-2 multicolor-2:white hierarchical-2:primary SFSymbolsPreviewWireframe" d="M37.984-35.4455C38.4774-35.4455 38.8544-35.7999 38.9169-36.2933C39.551-41.2712 39.6948-41.3467 44.9732-42.3098C45.4527-42.3845 45.8072-42.751 45.8072-43.2427C45.8072-43.7484 45.4406-44.1286 44.9611-44.1912C39.7312-44.8488 39.5371-45.051 38.9169-50.1817C38.8544-50.6995 38.4895-51.0539 37.984-51.0539C37.4645-51.0539 37.0997-50.6995 37.0371-50.1556C36.469-45.1882 36.2127-45.1404 30.9808-44.1912C30.5013-44.1026 30.1469-43.7484 30.1469-43.2427C30.1469-42.7249 30.5013-42.3845 31.0971-42.3098C36.2162-41.5567 36.469-41.3371 37.0371-36.3453C37.0997-35.7999 37.4645-35.4455 37.984-35.4455Z"/>
   <path class="monochrome-3 multicolor-3:white hierarchical-3:primary SFSymbolsPreviewWireframe" d="M51.7348-14.2366C52.5257-14.2366 53.1616-14.8066 53.3005-15.6424C54.753-25.5259 56.2372-27.17 65.9279-28.3219C66.7881-28.4087 67.4118-29.0828 67.4118-29.903C67.4118-30.725 66.8002-31.3747 65.94-31.4997C56.2615-32.785 54.8986-34.2818 53.3005-44.1636C53.1495-45.0149 52.5136-45.585 51.7348-45.585C50.9299-45.585 50.2941-45.0149 50.169-44.1636C48.7026-34.2818 47.2185-32.6515 37.5277-31.4997C36.6675-31.3989 36.0577-30.7371 36.0577-29.903C36.0577-29.0949 36.6554-28.433 37.5156-28.3219C47.1835-26.9652 48.5406-25.5275 50.169-15.6424C50.3062-14.8066 50.942-14.2366 51.7348-14.2366Z"/>
  </g>
  <g id="Ultralight-S" transform="matrix(1 0 0 1 514.315 696)">
   <path class="monochrome-0 multicolor-0:tintColor hierarchical-0:tertiary SFSymbolsPreviewWireframe" d="M12.8604-12.916L42.2788 4.13186C44.2583 5.25393 46.5342 5.25393 48.5137 4.13186L77.8868-12.916C79.8628-14.0801 81.0269-16.0596 81.0269-18.2935L81.0269-52.2144C81.0269-54.4483 79.8628-56.4278 77.8868-57.5918L48.5137-74.5489C46.5342-75.6709 44.2583-75.6709 42.2788-74.5489L12.8604-57.5918C10.9297-56.4278 9.76562-54.4483 9.76562-52.2144L9.76562-18.2935C9.76562-16.0596 10.9297-14.0801 12.8604-12.916Z"/>
   <path class="monochrome-1 multicolor-1:white hierarchical-1:primary SFSymbolsPreviewWireframe" d="M44.3425-49.6234C44.5535-49.6234 44.6711-49.7511 44.7056-49.942C45.1576-52.9332 45.1376-53.313 48.5674-53.8038C48.7827-53.8383 48.8961-53.9704 48.8961-54.167C48.8961-54.3636 48.7827-54.4957 48.5674-54.5301C45.1376-55.021 45.1576-55.4008 44.7056-58.3919C44.6711-58.5928 44.5535-58.7206 44.3425-58.7206C44.1415-58.7206 44.0382-58.5928 44.0037-58.3919C43.5416-55.4008 43.5717-55.021 40.1275-54.5301C39.9266-54.4957 39.8132-54.3636 39.8132-54.167C39.8132-53.9704 39.9266-53.8383 40.1275-53.8038C43.5717-53.313 43.5416-52.9332 44.0037-49.942C44.0382-49.7511 44.1415-49.6234 44.3425-49.6234Z"/>
   <path class="monochrome-2 multicolor-2:white hierarchical-2:primary SFSymbolsPreviewWireframe" d="M34.9281-36.6975C35.1605-36.6975 35.3283-36.8509 35.3627-37.0833C36.137-42.2146 36.1697-42.1095 41.4244-43.1493C41.6467-43.1837 41.8245-43.3371 41.8245-43.5839C41.8245-43.8406 41.6467-43.9797 41.4244-44.0141C36.1697-44.9279 36.127-44.8987 35.3627-50.0701C35.3283-50.3268 35.1605-50.4802 34.9281-50.4802C34.6858-50.4802 34.518-50.3268 34.4835-50.06C33.7393-44.9431 33.6897-45.0439 28.4219-44.0141C28.1996-43.9696 28.0217-43.8406 28.0217-43.5839C28.0217-43.3271 28.1996-43.1837 28.462-43.1493C33.7097-42.1997 33.7393-42.2202 34.4835-37.1033C34.518-36.8509 34.6858-36.6975 34.9281-36.6975Z"/>
   <path class="monochrome-3 multicolor-3:white hierarchical-3:primary SFSymbolsPreviewWireframe" d="M47.9064-15.2784C48.3183-15.2784 48.6039-15.5583 48.6584-15.9471C49.8585-27.1495 51.1476-28.3274 62.0709-29.3798C62.4842-29.4142 62.7697-29.7097 62.7697-30.103C62.7697-30.5062 62.4842-30.7773 62.0709-30.8218C51.1476-31.8741 49.8585-33.0419 48.6584-44.2587C48.6039-44.6432 48.3183-44.9231 47.9064-44.9231C47.4844-44.9231 47.1989-44.6432 47.1544-44.2587C45.9442-33.0419 44.6552-31.8741 33.7318-30.8218C33.3186-30.7773 33.0431-30.5062 33.0431-30.103C33.0431-29.7097 33.3186-29.4142 33.7318-29.3798C44.6164-28.0269 45.8235-27.1352 47.1544-15.9471C47.1989-15.5583 47.4844-15.2784 47.9064-15.2784Z"/>
  </g>
 </g>
</svg>
