<?xml version="1.0" encoding="UTF-8"?>
<svg id="Layer_2" data-name="Layer 2" xmlns="http://www.w3.org/2000/svg" viewBox="0 0 428.99 564.11">
  <defs>
    <style>
      .cls-1 {
        fill: #fff;
      }
    </style>
  </defs>
  <g id="Layer_1-2" data-name="Layer 1">
    <path class="cls-1" d="M419.72,268.14c-11.31-13.42-33.01-23.12-68.3-30.55-31.12-6.55-65.45-9.73-88.78-11.25-4.75-.31-9.76-.47-14.91-.47-40.6,0-89.77,9.42-135.22,25.89-.43.15-.9.15-1.32-.02-15.45-5.97-27.79-11.32-37.7-16.31-18.22-9.19-24.39-15.44-26.39-18.12-.45-.6-.49-1.41-.11-2.05.95-1.6,3.1-4.47,7.84-8.55,9.67-8.35,30.72-18.73,56.54-27.89.38-.14.8-.15,1.19-.02,31.07,9.69,67.03,16.65,104.15,20.15,4.13.39,10.52,1.16,17.91,2.06,25.39,3.08,63.77,7.74,98.21,7.91.83,0,1.68,0,2.52,0,34.54,0,75.49-3.95,85.61-34.72l.11-.35c.15-.52.88-3.23,1.01-5.54.36-6.41-1-15.98-9.57-25.15-7.59-8.12-23.92-19.87-77.9-28.15-32.41-4.97-67.65-7-89.82-7.25-1.01-.01-2.02-.02-3.04-.02-36.94,0-81.28,7.35-124.86,20.68-1.58.48-3.15.97-4.72,1.47-.39.12-.82.12-1.21-.02-26.2-9.39-44.71-20.05-53.6-30.89-1.09-1.33-1.72-2.34-2.07-3-.19-.36-.26-.78-.19-1.18,1.25-7.3,6.69-14.02,16.57-20.5,22.06-14.46,62.83-24.41,111.87-27.28,9.23-.54,18.66-.82,28.04-.82,34.13,0,66.16,3.69,85.68,9.88,2.27.72,4.61,1.08,6.97,1.08,3.65,0,7.3-.9,10.57-2.59,4.08-2.12,7.39-5.37,9.56-9.36l.41.11,1.17-3.65c.02-.06.04-.12.06-.19.05-.13.1-.26.14-.4l1.15-3.79-.42-.14c.54-4.8-.29-9.85-2.36-13.85-2.83-5.45-7.61-9.48-13.47-11.33C287.01,4.37,250.8,0,211.7,0,142.15,0,80.34,13.3,46.35,35.59c-22.44,14.71-34.99,33.39-37.28,55.5-.9,8.68.56,22.11,12.61,36.82,6.83,8.33,16.43,16.33,28.62,23.84,1.24.76,1.17,2.58-.12,3.26-10.7,5.64-19.26,11.22-25.53,16.64C5.39,188.27-2.58,206.02.94,224.39c3.78,19.73,19.73,35.73,51.71,51.86.01,0,.02.01.03.02,1.32.67,1.4,2.52.14,3.29C20.45,299.14,2.8,320.37.31,342.75c-1.37,12.35,1.1,30.8,20.67,48.5,5.43,4.92,11.85,9.52,19.47,13.96,1.15.67,1.24,2.27.21,3.1-17.34,13.89-27.95,29.73-31.59,47.19-2.76,13.27.1,26.64,8.28,38.66,28.43,41.77,120.33,59.44,138.47,62.55,26.56,4.56,64.26,7.4,98.39,7.4,23.05,0,64.85-1.42,85.81-10.88,10.13-4.58,15.37-15.77,12.9-26.26l.43-.18-1.73-3.76c-.03-.06-.06-.13-.09-.19l-1.58-3.62-.4.17c-2.63-3.8-6.35-6.72-10.75-8.38-2.62-.99-5.36-1.5-8.14-1.5-3.27,0-6.45.69-9.46,2.05-9.22,4.16-34.78,6.75-66.72,6.75h-1.06c-31.79-.07-66.16-2.63-89.7-6.68-50.94-8.75-97.47-27.28-108.23-43.1-1.52-2.23-1.35-3.05-1.28-3.4,1.45-6.96,8.77-20.81,41.25-36.21.43-.2.93-.24,1.38-.09,31.6,10.09,68.85,18.66,101.27,25.74,23.22,5.07,64.29,10.79,103.69,12.14,5.9.2,11.64.3,17.03.3,41.83,0,69.23-6.2,83.79-18.94,9.47-8.3,14.14-19.52,13.14-31.59-2.24-27.1-25.89-45.99-70.3-56.16-29.24-6.69-61.67-8.62-79.1-9.65-2.03-.12-3.85-.23-5.41-.33-3.63-.23-7.67-.35-12.02-.35-27.49,0-76.87,5.06-125.58,19.32-10.21,2.99-19.96,6.27-29.02,9.77-.43.17-.9.17-1.33,0-2.52-.94-4.93-1.88-7.2-2.8-32.32-13.09-40.13-23.88-39.65-28.2.39-3.47,5.1-10.77,17.11-19.92,11.98-9.12,28.83-18.3,48.83-26.61.44-.18.93-.2,1.37-.03,9.17,3.34,19.36,6.95,31.83,11.27,29.44,10.19,84.4,19.51,136.77,23.19,16.3,1.14,31.59,1.72,45.45,1.72,40.21,0,68.35-4.92,83.62-14.63,13.15-8.36,16.86-19.16,17.66-26.75.74-7.06-.23-17.68-9.08-28.18ZM34.05,117.76c-8.56-10.44-9.66-19.37-9.07-25.02,1.77-17.1,11.91-31.82,30.14-43.77C86.77,28.22,145.09,15.84,211.13,15.84c37.56,0,72.23,4.15,95.1,11.4,1.78.56,3.24,1.79,4.1,3.45.74,1.42.9,4.04.4,5.99-.03.13-.08.25-.13.37-.65,1.45-1.73,2.59-3.14,3.33-1.01.53-2.09.79-3.21.79-.71,0-1.43-.11-2.13-.33-21.36-6.77-54.13-10.65-89.91-10.65-9.82,0-19.77.29-29.59.87-30.41,1.78-86.4,8.04-119.7,29.88-14.74,9.66-22.55,20.62-23.89,33.51-.45,4.36,1.56,9.31,5.97,14.7,5.11,6.23,12.45,12.23,21.93,17.96,14.67,7.69,57.58,25.84,103.25,35.21.22-.04.45-.04.68,0,8.43,1.62,16.86,3.03,25.23,4.22,2.94.35,5.64.71,8.11,1.08,5.18.65,10.34,1.23,15.44,1.71,4.53.43,10.79,1.19,18.72,2.15,23.74,2.88,59.61,7.23,91.54,7.66,1.67.02,3.3.03,4.87.03,26.8,0,40.63-3.21,47.51-5.9,6.65-2.6,6.82-11.94.27-14.79h0c-4.49-1.95-21.41-8.68-50.49-13.27-31.33-4.94-65.74-6.96-87.49-7.2-.94-.01-1.88-.02-2.83-.02-21.32,0-45.12,2.65-70.77,7.89-.25.05-.5.05-.75,0-8.2-1.63-16.18-3.43-23.91-5.37-1.9-.48-1.88-3.18.02-3.66,33.81-8.5,67.06-13.1,95.37-13.1.97,0,1.94,0,2.9.02,21.62.24,55.98,2.22,87.57,7.07,54.74,8.4,65.2,19.59,68.63,23.26,4.7,5.03,5.47,10.02,5.28,13.31-.02.23-.16,1.05-.38,1.89-.02.06-.04.13-.06.19-3,8.76-11.04,14.89-24.57,18.73-14.83,4.22-33.3,4.71-45.89,4.71-.77,0-1.53,0-2.29,0-33.51-.17-71.35-4.76-96.39-7.8h-.1c-7.45-.92-13.88-1.7-18.21-2.1-4.98-.47-9.91-1.01-14.8-1.6-1.06-.09-2.11-.22-3.16-.37-.04,0-.08-.01-.12-.02-18.5-2.33-36.31-5.49-53.27-9.48,0,0-.01,0-.02,0-30.31-6.83-65.96-17.85-91.62-35.6-8.95-5.86-16.04-11.94-21.16-18.18ZM229.5,154.29c4.2-.2,8.3-.29,12.3-.29.87,0,1.74,0,2.6.01,21.19.23,54.69,2.2,85.18,7,4.02.63,7.92,1.33,11.71,2.08-2.08.04-4.23.07-6.44.07-1.53,0-3.1-.01-4.73-.03-31.07-.42-66.47-4.71-89.89-7.55-3.99-.48-7.56-.92-10.73-1.29ZM71.88,423.28c-19.23,11.72-30.42,24.66-33.32,38.58-1.1,5.26.12,10.38,3.71,15.66,13.79,20.26,60.4,39.84,118.75,49.87,24.73,4.25,59.26,6.83,92.37,6.91h1.39c25.06,0,58.06-1.42,73.01-8.17.92-.42,1.89-.63,2.88-.63.84,0,1.67.15,2.48.46,1.7.64,3.06,1.9,3.8,3.46,1.55,3.5-.02,7.64-3.51,9.22-13.52,6.1-41.66,9.47-79.23,9.47-33.29,0-69.95-2.75-95.68-7.17-7.56-1.3-34.38-6.27-61.98-15.74-33.04-11.33-55.86-25.18-65.98-40.05-5.68-8.35-7.7-17.48-5.85-26.39,3.33-15.97,14.57-30.6,33.43-43.5.54-.37,1.23-.43,1.83-.17,2.71,1.2,5.53,2.39,8.42,3.57,1.04.42,2.1.84,3.17,1.26,1.45.57,1.62,2.55.29,3.36ZM87.57,295.07c-34.45,16.89-55.58,35.63-57.32,51.23-1.19,10.73,6.23,21.17,22.09,31.17,13.83,7.38,71.72,27.94,109.68,38.31,8.04,1.94,15.97,3.77,23.45,5.46,3.18.52,6.09,1.19,8.72,1.95,3.65.81,7.14,1.58,10.44,2.3,22.72,4.96,64.83,10.71,103.63,11.62,3.58.08,7.1.13,10.46.13,15.71,0,53.46-1.17,64.79-12.02h0c1.98-1.9,2.86-4.68,2.31-7.37-3.33-16.38-33.93-25.07-46.94-28.05-26.83-6.14-57.63-7.97-74.18-8.95l-.69-.04c-1.82-.11-3.46-.21-4.89-.3-3.06-.2-6.5-.3-10.23-.3-21.99,0-62.26,3.82-103.99,14.55-.31.08-.64.08-.95,0-7-1.84-13.53-3.64-19.67-5.43-1.8-.52-1.81-3.07-.02-3.61,1.19-.36,2.38-.72,3.58-1.07,47.1-13.79,94.57-18.68,120.91-18.68,4.05,0,7.81.11,11.16.33,1.59.1,3.44.21,5.52.33,16.96,1.01,48.52,2.88,76.46,9.28,36.83,8.43,56.32,22.52,57.92,41.88.57,6.89-2.18,13.37-7.74,18.24-11.19,9.8-36.52,14.97-73.25,14.97-5.21,0-10.75-.1-16.48-.3-38.41-1.32-78.31-6.87-100.82-11.78-5.93-1.29-12.05-2.65-18.29-4.05-2.01-.42-4.15-.9-6.42-1.46,0,0-.02,0-.02,0-16.89-3.86-34.42-8.12-51.15-12.74-.11-.03-.19-.09-.29-.13-35.04-9.28-69.2-20.08-80.44-31.31-.01-.01-.02-.02-.03-.03-5.05-3.17-9.43-6.42-13.17-9.8-14.55-13.17-16.46-26.23-15.5-34.87,1.63-14.71,13.07-29.59,33.98-44.23,6.68-4.68,14.35-9.32,22.84-13.82.5-.27,1.1-.29,1.62-.07,4.01,1.7,8.24,3.45,12.77,5.25,1.52.6,1.6,2.72.14,3.44ZM188.88,401.89c21.72-3.59,43.19-5.68,59.84-5.68,3.43,0,6.59.09,9.38.27,1.34.09,2.85.18,4.52.28l1.16.07c16.08.95,46.03,2.73,71.55,8.57,10.88,2.49,19.79,5.75,25.92,8.87,1.59.81,1.29,3.14-.45,3.53-8.05,1.78-21.13,3.44-41.96,3.44-3.27,0-6.7-.04-10.19-.12-37.75-.89-78.61-6.46-100.6-11.26-6.93-1.51-13.32-2.93-19.29-4.28-2.02-.46-1.92-3.36.12-3.7ZM412.88,294.64c-.43,4.08-2.57,9.99-10.33,14.92-8.71,5.54-28.79,12.13-75.04,12.14-13.49,0-28.4-.57-44.33-1.69-31.52-2.21-63.87-6.48-90.66-11.71,0,0-.01,0-.02,0-2.31-.43-4.75-.92-7.31-1.48-13.59-2.86-25.46-5.96-34.67-9.15-1.69-.59-3.34-1.16-4.95-1.72-33.19-10.48-70.39-25.09-92.98-37.8,0,0-.01,0-.02-.01-.09-.05-.18-.1-.27-.15-.04-.02-.07-.04-.11-.06-21.99-12.15-33.06-23.59-35.54-36.55-2.37-12.35,3.84-25,18.45-37.62,7.53-6.5,19.52-13.62,34.8-20.66.5-.23,1.09-.23,1.59,0,4.14,1.94,8.48,3.84,12.99,5.68,1.55.63,1.56,2.82.02,3.48-18.1,7.65-32.08,15.41-40.12,22.35-10.55,9.11-15.21,17.31-13.85,24.39,1.68,8.74,12.37,18.38,31.79,28.67h0c16.16,7.79,78.25,33.74,114.27,43.09,3.41.82,6.99,1.63,10.71,2.41,0,0,0,0,0,0,1.83.33,3.56.69,5.21,1.08,28.79,5.78,64.92,10.46,98.75,12.51,13.24.8,25.74,1.21,37.16,1.21,22.08,0,51.31-1.56,65.21-8.96h0c4.94-2.63,5.72-9.4,1.5-13.08-5.28-4.61-17.34-11.42-44.85-17.65-23.66-5.36-55.43-9.53-89.45-11.74-4.24-.28-8.71-.42-13.3-.42-25.94,0-57.2,4.51-88.21,12.71-.36.1-.75.08-1.11-.04-6.26-2.17-11.94-4.17-17.2-6.04-1.72-.61-1.64-3.05.1-3.58,36.85-11.06,74.9-17.29,106.56-17.29,4.82,0,9.52.15,13.96.44,22.8,1.49,56.32,4.59,86.52,10.95,31.61,6.65,50.48,14.66,59.37,25.2,5.22,6.19,5.81,12.22,5.4,16.19ZM201.84,276.06c16.2-2.61,31.63-3.96,45.55-3.96,4.28,0,8.44.13,12.37.39,33.21,2.16,64.09,6.21,86.96,11.38,4.7,1.06,8.85,2.13,12.49,3.17,2,.57,1.73,3.49-.34,3.69-7.85.75-17.73,1.26-30.14,1.26-11.02,0-23.31-.41-36.52-1.21-30.49-1.85-63.34-5.91-90.43-11-2.08-.39-2.03-3.38.05-3.72Z"/>
  </g>
</svg>