<?xml version="1.0" encoding="UTF-8"?>
<svg id="Layer_2" data-name="Layer 2" xmlns="http://www.w3.org/2000/svg" viewBox="0 0 331.8 403.21">
  <g id="Layer_1-2" data-name="Layer 1">
    <path d="M249.5,403.21c2.81,0,4.88-1.89,5.26-4.73,6.56-60.38,12.86-66.7,72.2-72.33,2.82-.25,4.85-2.41,4.85-5.14s-2.03-4.96-4.85-5.16c-59.34-5.65-65.63-11.95-72.2-72.31-.38-2.91-2.45-4.78-5.26-4.78s-4.86,1.87-5.3,4.78c-6.54,60.36-12.86,66.65-72.17,72.31-2.85.2-4.9,2.38-4.9,5.16s2.05,4.76,4.9,5.14c58.98,7.33,64.99,11.68,72.17,72.33.44,2.84,2.6,4.73,5.3,4.73Z"/>
    <g>
      <path d="M149.13,321.01c0-.99.08-1.95.2-2.9H45.53c-19.13,0-29-10-29-28.83V45.36c0-18.83,9.87-28.86,29-28.86h167.16c19.13,0,28.99,10.03,28.99,28.86v176.76c2.45-.87,5.07-1.35,7.81-1.35,3.08,0,6.01.59,8.69,1.66V44.91c0-29.64-15.1-44.91-44.58-44.91H44.61C15.1,0,0,15.27,0,44.91v244.82c0,29.64,15.1,44.91,44.61,44.91h108.96c-2.82-3.82-4.45-8.53-4.45-13.63Z"/>
      <path d="M79.08,85.39c6.45-5.63,13.29-8.76,21.33-10.26,4.03-.83,5.94-2.28,5.94-5.11,0-2.55-1.81-4.41-5.23-4.41-10.25,0-23.69,6.54-32.76,16.41-8.95,9.79-14.09,22.32-14.09,36.36,0,25.54,15.86,40.11,35.89,40.11,18.54,0,32.51-13.73,32.51-32.5s-12.52-31.57-30.29-31.57c-8.73,0-16.82,3.11-22.75,10.38h-2.51c1.61-6.98,5.78-13.88,11.97-19.42Z"/>
      <path d="M65.14,248.36c-4.02,0-7,3.03-7,6.84s2.98,6.67,7,6.67h62.23c3.97,0,6.96-2.94,6.96-6.67s-2.98-6.84-6.96-6.84h-62.23Z"/>
      <path d="M200.61,206.43c0-3.78-2.98-6.76-6.92-6.76H65.14c-4.02,0-7,2.98-7,6.76s2.98,6.88,7,6.88h128.56c3.94,0,6.92-3.07,6.92-6.88Z"/>
      <path d="M160.58,85.44c6.45-5.76,13.37-8.8,21.58-10.39,3.95-.83,5.9-2.28,5.9-5.07,0-2.59-1.9-4.41-5.32-4.41-10.25,0-23.82,6.67-32.72,16.41-8.99,9.79-14.13,22.32-14.13,36.36,0,25.5,15.86,40.08,36.01,40.08,18.42,0,32.42-13.73,32.42-32.5s-12.48-31.57-30.29-31.57c-8.73,0-16.86,3.11-22.79,10.38h-2.51c1.61-6.9,5.7-13.71,11.84-19.28Z"/>
    </g>
  </g>
</svg>